<mxfile host="app.diagrams.net" modified="2022-05-10T14:26:02.092Z" agent="5.0 (Windows NT 10.0; Win64; x64) AppleWebKit/537.36 (KHTML, like Gecko) Chrome/101.0.4951.54 Safari/537.36" etag="kZrXKsQgmvxBHbXVuHgN" version="18.0.1" type="github" pages="3">
  <diagram name="Page-2" id="K7W2w1LJvE5GjsivaBRJ">
    <mxGraphModel dx="1395" dy="715" grid="1" gridSize="10" guides="1" tooltips="1" connect="1" arrows="1" fold="1" page="1" pageScale="1" pageWidth="827" pageHeight="1169" math="1" shadow="0">
      <root>
        <mxCell id="NK96kK6ZexJCDKCEKkFz-0" />
        <mxCell id="NK96kK6ZexJCDKCEKkFz-1" parent="NK96kK6ZexJCDKCEKkFz-0" />
        <mxCell id="NK96kK6ZexJCDKCEKkFz-2" value="" style="shape=document;whiteSpace=wrap;html=1;boundedLbl=1;" parent="NK96kK6ZexJCDKCEKkFz-1" vertex="1">
          <mxGeometry x="290" y="850" width="120" height="80" as="geometry" />
        </mxCell>
        <mxCell id="NK96kK6ZexJCDKCEKkFz-3" value="" style="shape=document;whiteSpace=wrap;html=1;boundedLbl=1;" parent="NK96kK6ZexJCDKCEKkFz-1" vertex="1">
          <mxGeometry x="290" y="850" width="120" height="80" as="geometry" />
        </mxCell>
        <mxCell id="NK96kK6ZexJCDKCEKkFz-4" value="" style="shape=document;whiteSpace=wrap;html=1;boundedLbl=1;" parent="NK96kK6ZexJCDKCEKkFz-1" vertex="1">
          <mxGeometry x="290" y="850" width="120" height="80" as="geometry" />
        </mxCell>
        <mxCell id="NK96kK6ZexJCDKCEKkFz-5" value="" style="shape=document;whiteSpace=wrap;html=1;boundedLbl=1;fillColor=#dae8fc;strokeColor=#6c8ebf;" parent="NK96kK6ZexJCDKCEKkFz-1" vertex="1">
          <mxGeometry x="290" y="850" width="120" height="80" as="geometry" />
        </mxCell>
        <mxCell id="NK96kK6ZexJCDKCEKkFz-6" value="" style="shape=document;whiteSpace=wrap;html=1;boundedLbl=1;" parent="NK96kK6ZexJCDKCEKkFz-1" vertex="1">
          <mxGeometry x="290" y="850" width="120" height="80" as="geometry" />
        </mxCell>
        <mxCell id="NK96kK6ZexJCDKCEKkFz-7" value="" style="shape=document;whiteSpace=wrap;html=1;boundedLbl=1;fillColor=#dae8fc;strokeColor=#6c8ebf;" parent="NK96kK6ZexJCDKCEKkFz-1" vertex="1">
          <mxGeometry x="290" y="850" width="120" height="80" as="geometry" />
        </mxCell>
        <mxCell id="NK96kK6ZexJCDKCEKkFz-8" value="" style="shape=document;whiteSpace=wrap;html=1;boundedLbl=1;fillColor=#dae8fc;strokeColor=#6c8ebf;" parent="NK96kK6ZexJCDKCEKkFz-1" vertex="1">
          <mxGeometry x="280" y="860" width="120" height="80" as="geometry" />
        </mxCell>
        <mxCell id="NK96kK6ZexJCDKCEKkFz-9" value="" style="shape=document;whiteSpace=wrap;html=1;boundedLbl=1;fillColor=#dae8fc;strokeColor=#6c8ebf;" parent="NK96kK6ZexJCDKCEKkFz-1" vertex="1">
          <mxGeometry x="270" y="870" width="120" height="80" as="geometry" />
        </mxCell>
        <mxCell id="NK96kK6ZexJCDKCEKkFz-10" value="&lt;b&gt;&lt;font style=&quot;font-size: 8px&quot;&gt;&lt;font&gt;Input&lt;/font&gt;&amp;nbsp;&lt;font&gt;Do&lt;/font&gt;&lt;font&gt;cument:&lt;/font&gt;&lt;/font&gt;&lt;/b&gt;" style="text;html=1;resizable=0;autosize=1;align=center;verticalAlign=middle;points=[];fillColor=none;strokeColor=none;" parent="NK96kK6ZexJCDKCEKkFz-1" vertex="1">
          <mxGeometry x="265" y="870" width="110" height="20" as="geometry" />
        </mxCell>
        <mxCell id="sT_bOk5FC5yaoyQuoM4E-109" style="edgeStyle=orthogonalEdgeStyle;rounded=0;orthogonalLoop=1;jettySize=auto;html=1;" parent="NK96kK6ZexJCDKCEKkFz-1" source="NK96kK6ZexJCDKCEKkFz-21" edge="1">
          <mxGeometry relative="1" as="geometry">
            <mxPoint x="568" y="830" as="targetPoint" />
          </mxGeometry>
        </mxCell>
        <mxCell id="NK96kK6ZexJCDKCEKkFz-21" value="" style="shape=document;whiteSpace=wrap;html=1;boundedLbl=1;fillColor=#ffe6cc;strokeColor=#d79b00;" parent="NK96kK6ZexJCDKCEKkFz-1" vertex="1">
          <mxGeometry x="508" y="850" width="120" height="30" as="geometry" />
        </mxCell>
        <mxCell id="NK96kK6ZexJCDKCEKkFz-22" value="" style="shape=document;whiteSpace=wrap;html=1;boundedLbl=1;fillColor=#ffe6cc;strokeColor=#d79b00;" parent="NK96kK6ZexJCDKCEKkFz-1" vertex="1">
          <mxGeometry x="518" y="860" width="120" height="30" as="geometry" />
        </mxCell>
        <mxCell id="NK96kK6ZexJCDKCEKkFz-23" value="" style="shape=document;whiteSpace=wrap;html=1;boundedLbl=1;fillColor=#ffe6cc;strokeColor=#d79b00;" parent="NK96kK6ZexJCDKCEKkFz-1" vertex="1">
          <mxGeometry x="528" y="870" width="120" height="50" as="geometry" />
        </mxCell>
        <mxCell id="NK96kK6ZexJCDKCEKkFz-24" value="&lt;font style=&quot;font-size: 12px&quot;&gt;&lt;b&gt;Target Summary:&lt;/b&gt;&lt;/font&gt;" style="text;html=1;resizable=0;autosize=1;align=left;verticalAlign=middle;points=[];fillColor=none;strokeColor=none;" parent="NK96kK6ZexJCDKCEKkFz-1" vertex="1">
          <mxGeometry x="533" y="870" width="110" height="20" as="geometry" />
        </mxCell>
        <mxCell id="NK96kK6ZexJCDKCEKkFz-57" style="edgeStyle=orthogonalEdgeStyle;orthogonalLoop=1;jettySize=auto;html=1;entryX=1;entryY=0.6;entryDx=0;entryDy=0;entryPerimeter=0;" parent="NK96kK6ZexJCDKCEKkFz-1" source="NK96kK6ZexJCDKCEKkFz-33" edge="1">
          <mxGeometry relative="1" as="geometry">
            <Array as="points">
              <mxPoint x="589" y="1050" />
            </Array>
            <mxPoint x="340" y="1050" as="targetPoint" />
          </mxGeometry>
        </mxCell>
        <mxCell id="NK96kK6ZexJCDKCEKkFz-33" value="" style="shape=document;whiteSpace=wrap;html=1;boundedLbl=1;size=0.3333333333333333;fillColor=#ffe6cc;strokeColor=#d79b00;" parent="NK96kK6ZexJCDKCEKkFz-1" vertex="1">
          <mxGeometry x="508" y="1015" width="161" height="30" as="geometry" />
        </mxCell>
        <mxCell id="NK96kK6ZexJCDKCEKkFz-37" value="" style="shape=document;whiteSpace=wrap;html=1;boundedLbl=1;size=0.3333333333333333;fillColor=#ffe6cc;strokeColor=#d79b00;" parent="NK96kK6ZexJCDKCEKkFz-1" vertex="1">
          <mxGeometry x="518" y="1025" width="161" height="30" as="geometry" />
        </mxCell>
        <mxCell id="NK96kK6ZexJCDKCEKkFz-38" value="" style="shape=document;whiteSpace=wrap;html=1;boundedLbl=1;size=0.18181818181818182;fillColor=#ffe6cc;strokeColor=#d79b00;" parent="NK96kK6ZexJCDKCEKkFz-1" vertex="1">
          <mxGeometry x="528" y="1035" width="161" height="45" as="geometry" />
        </mxCell>
        <mxCell id="NK96kK6ZexJCDKCEKkFz-39" value="&lt;b&gt;&lt;font style=&quot;font-size: 12px&quot;&gt;Candidate Summary:&lt;/font&gt;&lt;/b&gt;" style="text;html=1;resizable=0;autosize=1;align=left;verticalAlign=middle;points=[];fillColor=none;strokeColor=none;" parent="NK96kK6ZexJCDKCEKkFz-1" vertex="1">
          <mxGeometry x="528" y="1035" width="140" height="20" as="geometry" />
        </mxCell>
        <mxCell id="NK96kK6ZexJCDKCEKkFz-73" style="edgeStyle=orthogonalEdgeStyle;orthogonalLoop=1;jettySize=auto;html=1;entryX=0.347;entryY=0.94;entryDx=0;entryDy=0;entryPerimeter=0;" parent="NK96kK6ZexJCDKCEKkFz-1" edge="1">
          <mxGeometry relative="1" as="geometry">
            <mxPoint x="237.65" y="1067.4" as="sourcePoint" />
            <mxPoint x="142.35000000000005" y="934.9999999999999" as="targetPoint" />
          </mxGeometry>
        </mxCell>
        <mxCell id="NK96kK6ZexJCDKCEKkFz-42" value="" style="ellipse;whiteSpace=wrap;html=1;aspect=fixed;fillColor=#f5f5f5;strokeColor=#666666;gradientColor=#b3b3b3;" parent="NK96kK6ZexJCDKCEKkFz-1" vertex="1">
          <mxGeometry x="270" y="1000" width="20" height="20" as="geometry" />
        </mxCell>
        <mxCell id="NK96kK6ZexJCDKCEKkFz-50" value="" style="ellipse;whiteSpace=wrap;html=1;aspect=fixed;fillColor=#f5f5f5;strokeColor=#666666;gradientColor=#b3b3b3;" parent="NK96kK6ZexJCDKCEKkFz-1" vertex="1">
          <mxGeometry x="260" y="1030" width="20" height="20" as="geometry" />
        </mxCell>
        <mxCell id="NK96kK6ZexJCDKCEKkFz-55" value="" style="ellipse;whiteSpace=wrap;html=1;aspect=fixed;fillColor=#f5f5f5;strokeColor=#666666;gradientColor=#b3b3b3;" parent="NK96kK6ZexJCDKCEKkFz-1" vertex="1">
          <mxGeometry x="270" y="1060" width="20" height="20" as="geometry" />
        </mxCell>
        <mxCell id="NK96kK6ZexJCDKCEKkFz-61" value="" style="endArrow=none;html=1;" parent="NK96kK6ZexJCDKCEKkFz-1" edge="1">
          <mxGeometry width="50" height="50" relative="1" as="geometry">
            <mxPoint x="480" y="1050" as="sourcePoint" />
            <mxPoint x="480" y="880" as="targetPoint" />
          </mxGeometry>
        </mxCell>
        <mxCell id="NK96kK6ZexJCDKCEKkFz-96" style="edgeStyle=orthogonalEdgeStyle;sketch=0;orthogonalLoop=1;jettySize=auto;html=1;" parent="NK96kK6ZexJCDKCEKkFz-1" edge="1">
          <mxGeometry relative="1" as="geometry">
            <mxPoint x="140" y="830" as="targetPoint" />
            <mxPoint x="139.5" y="870" as="sourcePoint" />
            <Array as="points">
              <mxPoint x="140" y="840" />
              <mxPoint x="140" y="840" />
            </Array>
          </mxGeometry>
        </mxCell>
        <mxCell id="NK96kK6ZexJCDKCEKkFz-74" value="" style="endArrow=none;html=1;" parent="NK96kK6ZexJCDKCEKkFz-1" source="NK96kK6ZexJCDKCEKkFz-24" edge="1">
          <mxGeometry width="50" height="50" relative="1" as="geometry">
            <mxPoint x="450" y="970" as="sourcePoint" />
            <mxPoint x="480" y="880" as="targetPoint" />
          </mxGeometry>
        </mxCell>
        <mxCell id="NK96kK6ZexJCDKCEKkFz-79" value="&lt;b&gt;&lt;font style=&quot;font-size: 14px&quot;&gt;Template&lt;/font&gt;&lt;/b&gt;" style="text;html=1;resizable=0;autosize=1;align=center;verticalAlign=middle;points=[];fillColor=none;strokeColor=none;" parent="NK96kK6ZexJCDKCEKkFz-1" vertex="1">
          <mxGeometry x="150" y="1015" width="80" height="20" as="geometry" />
        </mxCell>
        <mxCell id="NK96kK6ZexJCDKCEKkFz-82" value="" style="endArrow=classic;html=1;" parent="NK96kK6ZexJCDKCEKkFz-1" edge="1">
          <mxGeometry width="50" height="50" relative="1" as="geometry">
            <mxPoint x="480" y="990" as="sourcePoint" />
            <mxPoint x="480" y="1040" as="targetPoint" />
          </mxGeometry>
        </mxCell>
        <mxCell id="NK96kK6ZexJCDKCEKkFz-99" value="&lt;b&gt;Summarization Layer&lt;/b&gt;" style="whiteSpace=wrap;html=1;sketch=0;fillColor=#dae8fc;strokeColor=#6c8ebf;" parent="NK96kK6ZexJCDKCEKkFz-1" vertex="1">
          <mxGeometry x="447.25" y="560" width="232.75" height="40" as="geometry" />
        </mxCell>
        <mxCell id="NK96kK6ZexJCDKCEKkFz-107" value="&lt;font style=&quot;font-size: 12px&quot; color=&quot;#3333ff&quot;&gt;&lt;b&gt;Data Construction&lt;/b&gt;&lt;/font&gt;" style="text;html=1;resizable=0;autosize=1;align=center;verticalAlign=middle;points=[];fillColor=none;strokeColor=none;dashed=1;sketch=0;" parent="NK96kK6ZexJCDKCEKkFz-1" vertex="1">
          <mxGeometry x="60" y="1100" width="120" height="20" as="geometry" />
        </mxCell>
        <mxCell id="NK96kK6ZexJCDKCEKkFz-122" style="edgeStyle=orthogonalEdgeStyle;sketch=0;orthogonalLoop=1;jettySize=auto;html=1;exitX=1;exitY=0.5;exitDx=0;exitDy=0;" parent="NK96kK6ZexJCDKCEKkFz-1" edge="1">
          <mxGeometry relative="1" as="geometry">
            <mxPoint x="528.75" y="410" as="sourcePoint" />
            <mxPoint x="553.75" y="410" as="targetPoint" />
          </mxGeometry>
        </mxCell>
        <mxCell id="NK96kK6ZexJCDKCEKkFz-125" style="edgeStyle=orthogonalEdgeStyle;sketch=0;orthogonalLoop=1;jettySize=auto;html=1;exitX=1;exitY=0.5;exitDx=0;exitDy=0;entryX=0;entryY=0.5;entryDx=0;entryDy=0;" parent="NK96kK6ZexJCDKCEKkFz-1" edge="1">
          <mxGeometry relative="1" as="geometry">
            <mxPoint x="583.75" y="410" as="sourcePoint" />
            <mxPoint x="608.75" y="410" as="targetPoint" />
          </mxGeometry>
        </mxCell>
        <mxCell id="NK96kK6ZexJCDKCEKkFz-127" value="&lt;b&gt;attorney&lt;/b&gt;" style="text;html=1;resizable=0;autosize=1;align=center;verticalAlign=middle;points=[];fillColor=none;strokeColor=none;sketch=0;" parent="NK96kK6ZexJCDKCEKkFz-1" vertex="1">
          <mxGeometry x="500.75" y="440" width="60" height="20" as="geometry" />
        </mxCell>
        <mxCell id="NK96kK6ZexJCDKCEKkFz-128" value="&lt;b&gt;&amp;nbsp;general&lt;/b&gt;" style="text;html=1;resizable=0;autosize=1;align=center;verticalAlign=middle;points=[];fillColor=none;strokeColor=none;sketch=0;" parent="NK96kK6ZexJCDKCEKkFz-1" vertex="1">
          <mxGeometry x="556.38" y="440" width="60" height="20" as="geometry" />
        </mxCell>
        <mxCell id="NK96kK6ZexJCDKCEKkFz-138" value="&lt;b&gt;&lt;font style=&quot;font-size: 18px&quot;&gt;...&lt;/font&gt;&lt;/b&gt;" style="text;html=1;resizable=0;autosize=1;align=center;verticalAlign=middle;points=[];fillColor=none;strokeColor=none;sketch=0;" parent="NK96kK6ZexJCDKCEKkFz-1" vertex="1">
          <mxGeometry x="624.5" y="400" width="30" height="20" as="geometry" />
        </mxCell>
        <mxCell id="NK96kK6ZexJCDKCEKkFz-153" value="&lt;b&gt;question answering Layer&lt;/b&gt;" style="whiteSpace=wrap;html=1;sketch=0;fillColor=#dae8fc;strokeColor=#6c8ebf;" parent="NK96kK6ZexJCDKCEKkFz-1" vertex="1">
          <mxGeometry x="74.25" y="560" width="265.75" height="40" as="geometry" />
        </mxCell>
        <mxCell id="sT_bOk5FC5yaoyQuoM4E-137" style="edgeStyle=orthogonalEdgeStyle;rounded=0;orthogonalLoop=1;jettySize=auto;html=1;entryX=0;entryY=0.5;entryDx=0;entryDy=0;dashed=1;" parent="NK96kK6ZexJCDKCEKkFz-1" source="NK96kK6ZexJCDKCEKkFz-167" target="sT_bOk5FC5yaoyQuoM4E-122" edge="1">
          <mxGeometry relative="1" as="geometry">
            <Array as="points">
              <mxPoint x="489.5" y="450" />
              <mxPoint x="489.5" y="410" />
            </Array>
          </mxGeometry>
        </mxCell>
        <mxCell id="NK96kK6ZexJCDKCEKkFz-167" value="&lt;b&gt;bos&lt;/b&gt;" style="text;html=1;resizable=0;autosize=1;align=center;verticalAlign=middle;points=[];fillColor=none;strokeColor=none;rounded=0;" parent="NK96kK6ZexJCDKCEKkFz-1" vertex="1">
          <mxGeometry x="464" y="440" width="40" height="20" as="geometry" />
        </mxCell>
        <mxCell id="NK96kK6ZexJCDKCEKkFz-182" value="" style="endArrow=classic;html=1;" parent="NK96kK6ZexJCDKCEKkFz-1" edge="1">
          <mxGeometry width="50" height="50" relative="1" as="geometry">
            <mxPoint x="202" y="499.5" as="sourcePoint" />
            <mxPoint x="202" y="460.5" as="targetPoint" />
          </mxGeometry>
        </mxCell>
        <mxCell id="NK96kK6ZexJCDKCEKkFz-185" value="" style="endArrow=classic;html=1;" parent="NK96kK6ZexJCDKCEKkFz-1" edge="1">
          <mxGeometry width="50" height="50" relative="1" as="geometry">
            <mxPoint x="257" y="499" as="sourcePoint" />
            <mxPoint x="257" y="460" as="targetPoint" />
          </mxGeometry>
        </mxCell>
        <mxCell id="NK96kK6ZexJCDKCEKkFz-186" value="&lt;b&gt;Answer start&lt;/b&gt;" style="text;html=1;resizable=0;autosize=1;align=center;verticalAlign=middle;points=[];fillColor=none;strokeColor=none;rounded=0;" parent="NK96kK6ZexJCDKCEKkFz-1" vertex="1">
          <mxGeometry x="113.75" y="470" width="90" height="20" as="geometry" />
        </mxCell>
        <mxCell id="NK96kK6ZexJCDKCEKkFz-187" value="&lt;b&gt;Answer end&lt;/b&gt;" style="text;html=1;resizable=0;autosize=1;align=center;verticalAlign=middle;points=[];fillColor=none;strokeColor=none;rounded=0;" parent="NK96kK6ZexJCDKCEKkFz-1" vertex="1">
          <mxGeometry x="256.75" y="470" width="80" height="20" as="geometry" />
        </mxCell>
        <mxCell id="NK96kK6ZexJCDKCEKkFz-191" value="&lt;b&gt;Eric&lt;/b&gt;" style="text;html=1;resizable=0;autosize=1;align=center;verticalAlign=middle;points=[];fillColor=none;strokeColor=none;rounded=0;" parent="NK96kK6ZexJCDKCEKkFz-1" vertex="1">
          <mxGeometry x="188.25" y="440" width="40" height="20" as="geometry" />
        </mxCell>
        <mxCell id="NK96kK6ZexJCDKCEKkFz-192" value="&lt;b&gt;Holder&lt;/b&gt;" style="text;html=1;resizable=0;autosize=1;align=center;verticalAlign=middle;points=[];fillColor=none;strokeColor=none;rounded=0;" parent="NK96kK6ZexJCDKCEKkFz-1" vertex="1">
          <mxGeometry x="220.75" y="440" width="50" height="20" as="geometry" />
        </mxCell>
        <mxCell id="NK96kK6ZexJCDKCEKkFz-193" value="&lt;b&gt;c&#39;&lt;/b&gt;" style="text;html=1;resizable=0;autosize=1;align=center;verticalAlign=middle;points=[];fillColor=none;strokeColor=none;rounded=0;" parent="NK96kK6ZexJCDKCEKkFz-1" vertex="1">
          <mxGeometry x="270.75" y="440" width="30" height="20" as="geometry" />
        </mxCell>
        <mxCell id="NK96kK6ZexJCDKCEKkFz-195" value="&lt;b&gt;c&lt;/b&gt;" style="text;html=1;resizable=0;autosize=1;align=center;verticalAlign=middle;points=[];fillColor=none;strokeColor=none;rounded=0;" parent="NK96kK6ZexJCDKCEKkFz-1" vertex="1">
          <mxGeometry x="160.75" y="440" width="20" height="20" as="geometry" />
        </mxCell>
        <mxCell id="NK96kK6ZexJCDKCEKkFz-200" value="&lt;b&gt;&lt;font color=&quot;#3333ff&quot;&gt;Q&amp;amp;A Module&lt;/font&gt;&lt;/b&gt;" style="text;html=1;resizable=0;autosize=1;align=center;verticalAlign=middle;points=[];fillColor=none;strokeColor=none;rounded=0;dashed=1;" parent="NK96kK6ZexJCDKCEKkFz-1" vertex="1">
          <mxGeometry x="62" y="380" width="90" height="20" as="geometry" />
        </mxCell>
        <mxCell id="NK96kK6ZexJCDKCEKkFz-206" value="" style="endArrow=classic;html=1;entryX=0.5;entryY=0.44;entryDx=0;entryDy=0;entryPerimeter=0;exitX=0.5;exitY=0.56;exitDx=0;exitDy=0;exitPerimeter=0;" parent="NK96kK6ZexJCDKCEKkFz-1" edge="1">
          <mxGeometry width="50" height="50" relative="1" as="geometry">
            <mxPoint x="553.6800000000001" y="500" as="sourcePoint" />
            <mxPoint x="553.6800000000001" y="470" as="targetPoint" />
          </mxGeometry>
        </mxCell>
        <mxCell id="NK96kK6ZexJCDKCEKkFz-207" value="" style="rounded=0;whiteSpace=wrap;html=1;fillColor=#b0e3e6;strokeColor=#0e8088;" parent="NK96kK6ZexJCDKCEKkFz-1" vertex="1">
          <mxGeometry x="212.5" y="250" width="12.5" height="50" as="geometry" />
        </mxCell>
        <mxCell id="NK96kK6ZexJCDKCEKkFz-209" value="" style="rounded=0;whiteSpace=wrap;html=1;fillColor=#b0e3e6;strokeColor=#0e8088;" parent="NK96kK6ZexJCDKCEKkFz-1" vertex="1">
          <mxGeometry x="177.5" y="250" width="12.5" height="50" as="geometry" />
        </mxCell>
        <mxCell id="NK96kK6ZexJCDKCEKkFz-210" value="" style="rounded=0;whiteSpace=wrap;html=1;fillColor=#b0e3e6;strokeColor=#0e8088;" parent="NK96kK6ZexJCDKCEKkFz-1" vertex="1">
          <mxGeometry x="247.5" y="250" width="12.5" height="50" as="geometry" />
        </mxCell>
        <mxCell id="NK96kK6ZexJCDKCEKkFz-211" value="" style="rounded=0;whiteSpace=wrap;html=1;fillColor=#b0e3e6;strokeColor=#0e8088;" parent="NK96kK6ZexJCDKCEKkFz-1" vertex="1">
          <mxGeometry x="287.5" y="250" width="12.5" height="50" as="geometry" />
        </mxCell>
        <mxCell id="NK96kK6ZexJCDKCEKkFz-217" value="" style="rounded=0;whiteSpace=wrap;html=1;fillColor=#b0e3e6;strokeColor=#0e8088;" parent="NK96kK6ZexJCDKCEKkFz-1" vertex="1">
          <mxGeometry x="550.75" y="250" width="12.5" height="50" as="geometry" />
        </mxCell>
        <mxCell id="NK96kK6ZexJCDKCEKkFz-218" value="" style="rounded=0;whiteSpace=wrap;html=1;fillColor=#b0e3e6;strokeColor=#0e8088;" parent="NK96kK6ZexJCDKCEKkFz-1" vertex="1">
          <mxGeometry x="603" y="250" width="12.5" height="50" as="geometry" />
        </mxCell>
        <mxCell id="NK96kK6ZexJCDKCEKkFz-219" value="" style="rounded=0;whiteSpace=wrap;html=1;fillColor=#b0e3e6;strokeColor=#0e8088;" parent="NK96kK6ZexJCDKCEKkFz-1" vertex="1">
          <mxGeometry x="500.5" y="250" width="12.5" height="50" as="geometry" />
        </mxCell>
        <mxCell id="NK96kK6ZexJCDKCEKkFz-231" style="edgeStyle=orthogonalEdgeStyle;rounded=1;orthogonalLoop=1;jettySize=auto;html=1;exitX=0.25;exitY=0;exitDx=0;exitDy=0;entryX=0.5;entryY=0;entryDx=0;entryDy=0;" parent="NK96kK6ZexJCDKCEKkFz-1" source="NK96kK6ZexJCDKCEKkFz-220" target="NK96kK6ZexJCDKCEKkFz-209" edge="1">
          <mxGeometry relative="1" as="geometry" />
        </mxCell>
        <mxCell id="NK96kK6ZexJCDKCEKkFz-232" style="edgeStyle=orthogonalEdgeStyle;rounded=1;orthogonalLoop=1;jettySize=auto;html=1;exitX=0.25;exitY=0;exitDx=0;exitDy=0;entryX=0.5;entryY=0;entryDx=0;entryDy=0;" parent="NK96kK6ZexJCDKCEKkFz-1" source="NK96kK6ZexJCDKCEKkFz-220" target="NK96kK6ZexJCDKCEKkFz-207" edge="1">
          <mxGeometry relative="1" as="geometry" />
        </mxCell>
        <mxCell id="NK96kK6ZexJCDKCEKkFz-233" style="edgeStyle=orthogonalEdgeStyle;rounded=1;orthogonalLoop=1;jettySize=auto;html=1;exitX=0.25;exitY=0;exitDx=0;exitDy=0;entryX=0.5;entryY=0;entryDx=0;entryDy=0;" parent="NK96kK6ZexJCDKCEKkFz-1" source="NK96kK6ZexJCDKCEKkFz-220" target="NK96kK6ZexJCDKCEKkFz-210" edge="1">
          <mxGeometry relative="1" as="geometry" />
        </mxCell>
        <mxCell id="NK96kK6ZexJCDKCEKkFz-234" style="edgeStyle=orthogonalEdgeStyle;rounded=1;orthogonalLoop=1;jettySize=auto;html=1;exitX=0.25;exitY=0;exitDx=0;exitDy=0;entryX=0.5;entryY=0;entryDx=0;entryDy=0;" parent="NK96kK6ZexJCDKCEKkFz-1" source="NK96kK6ZexJCDKCEKkFz-220" target="NK96kK6ZexJCDKCEKkFz-211" edge="1">
          <mxGeometry relative="1" as="geometry" />
        </mxCell>
        <mxCell id="NK96kK6ZexJCDKCEKkFz-220" value="" style="rounded=0;whiteSpace=wrap;html=1;fillColor=#b0e3e6;strokeColor=#0e8088;" parent="NK96kK6ZexJCDKCEKkFz-1" vertex="1">
          <mxGeometry x="352.5" y="210" width="92" height="10" as="geometry" />
        </mxCell>
        <mxCell id="NK96kK6ZexJCDKCEKkFz-221" value="&lt;b&gt;answer span representations&lt;/b&gt;" style="text;html=1;resizable=0;autosize=1;align=center;verticalAlign=middle;points=[];fillColor=none;strokeColor=none;rounded=0;" parent="NK96kK6ZexJCDKCEKkFz-1" vertex="1">
          <mxGeometry x="152.5" y="310" width="180" height="20" as="geometry" />
        </mxCell>
        <mxCell id="NK96kK6ZexJCDKCEKkFz-235" value="&lt;b&gt;Summarized summary vector&lt;/b&gt;" style="text;html=1;resizable=0;autosize=1;align=center;verticalAlign=middle;points=[];fillColor=none;strokeColor=none;rounded=0;" parent="NK96kK6ZexJCDKCEKkFz-1" vertex="1">
          <mxGeometry x="450.5" y="205" width="180" height="20" as="geometry" />
        </mxCell>
        <mxCell id="NK96kK6ZexJCDKCEKkFz-237" value="&lt;b&gt;summary representations&lt;/b&gt;" style="text;html=1;resizable=0;autosize=1;align=center;verticalAlign=middle;points=[];fillColor=none;strokeColor=none;rounded=0;" parent="NK96kK6ZexJCDKCEKkFz-1" vertex="1">
          <mxGeometry x="484.75" y="310" width="160" height="20" as="geometry" />
        </mxCell>
        <mxCell id="NK96kK6ZexJCDKCEKkFz-239" style="edgeStyle=orthogonalEdgeStyle;rounded=1;orthogonalLoop=1;jettySize=auto;html=1;entryX=0.637;entryY=1.276;entryDx=0;entryDy=0;entryPerimeter=0;" parent="NK96kK6ZexJCDKCEKkFz-1" source="NK96kK6ZexJCDKCEKkFz-238" target="NK96kK6ZexJCDKCEKkFz-220" edge="1">
          <mxGeometry relative="1" as="geometry" />
        </mxCell>
        <mxCell id="NK96kK6ZexJCDKCEKkFz-238" value="" style="rounded=0;whiteSpace=wrap;html=1;fillColor=none;dashed=1;" parent="NK96kK6ZexJCDKCEKkFz-1" vertex="1">
          <mxGeometry x="482.5" y="240" width="160" height="90" as="geometry" />
        </mxCell>
        <mxCell id="NK96kK6ZexJCDKCEKkFz-240" value="" style="rounded=0;whiteSpace=wrap;html=1;dashed=1;fillColor=none;" parent="NK96kK6ZexJCDKCEKkFz-1" vertex="1">
          <mxGeometry x="152.5" y="240" width="180" height="90" as="geometry" />
        </mxCell>
        <mxCell id="NK96kK6ZexJCDKCEKkFz-241" value="" style="rounded=0;whiteSpace=wrap;html=1;dashed=1;fillColor=none;" parent="NK96kK6ZexJCDKCEKkFz-1" vertex="1">
          <mxGeometry x="337.5" y="200" width="305" height="30" as="geometry" />
        </mxCell>
        <mxCell id="NK96kK6ZexJCDKCEKkFz-243" value="" style="rounded=0;whiteSpace=wrap;html=1;dashed=1;fillColor=none;" parent="NK96kK6ZexJCDKCEKkFz-1" vertex="1">
          <mxGeometry x="60" y="140" width="650" height="200" as="geometry" />
        </mxCell>
        <mxCell id="NK96kK6ZexJCDKCEKkFz-244" value="&lt;b&gt;&lt;font color=&quot;#3333ff&quot;&gt;Span-Summary InfoMax&lt;/font&gt;&lt;/b&gt;" style="text;html=1;resizable=0;autosize=1;align=center;verticalAlign=middle;points=[];fillColor=none;strokeColor=none;rounded=0;dashed=1;" parent="NK96kK6ZexJCDKCEKkFz-1" vertex="1">
          <mxGeometry x="65.75" y="150" width="150" height="20" as="geometry" />
        </mxCell>
        <mxCell id="NK96kK6ZexJCDKCEKkFz-255" value="&lt;font style=&quot;font-size: 14px&quot;&gt;&lt;b&gt;OpenIE&lt;/b&gt;&lt;/font&gt;" style="text;html=1;resizable=0;autosize=1;align=center;verticalAlign=middle;points=[];fillColor=none;strokeColor=none;rounded=0;" parent="NK96kK6ZexJCDKCEKkFz-1" vertex="1">
          <mxGeometry x="388" y="1055" width="60" height="20" as="geometry" />
        </mxCell>
        <mxCell id="NK96kK6ZexJCDKCEKkFz-258" value="" style="endArrow=classic;html=1;entryX=0.846;entryY=0.6;entryDx=0;entryDy=0;entryPerimeter=0;exitX=0.694;exitY=0.787;exitDx=0;exitDy=0;exitPerimeter=0;" parent="NK96kK6ZexJCDKCEKkFz-1" source="NK96kK6ZexJCDKCEKkFz-23" edge="1">
          <mxGeometry width="50" height="50" relative="1" as="geometry">
            <mxPoint x="610" y="920" as="sourcePoint" />
            <mxPoint x="609.9000000000001" y="1020" as="targetPoint" />
            <Array as="points" />
          </mxGeometry>
        </mxCell>
        <mxCell id="NK96kK6ZexJCDKCEKkFz-259" value="" style="endArrow=none;html=1;" parent="NK96kK6ZexJCDKCEKkFz-1" edge="1">
          <mxGeometry width="50" height="50" relative="1" as="geometry">
            <mxPoint x="390" y="930" as="sourcePoint" />
            <mxPoint x="600.5" y="930" as="targetPoint" />
          </mxGeometry>
        </mxCell>
        <mxCell id="NK96kK6ZexJCDKCEKkFz-260" value="" style="endArrow=classic;html=1;" parent="NK96kK6ZexJCDKCEKkFz-1" edge="1">
          <mxGeometry width="50" height="50" relative="1" as="geometry">
            <mxPoint x="573" y="930" as="sourcePoint" />
            <mxPoint x="610" y="930" as="targetPoint" />
          </mxGeometry>
        </mxCell>
        <mxCell id="NK96kK6ZexJCDKCEKkFz-261" value="&lt;b&gt;&lt;font style=&quot;font-size: 14px&quot;&gt;Greedy Seach&lt;/font&gt;&lt;/b&gt;" style="text;html=1;resizable=0;autosize=1;align=center;verticalAlign=middle;points=[];fillColor=none;strokeColor=none;rounded=0;opacity=50;" parent="NK96kK6ZexJCDKCEKkFz-1" vertex="1">
          <mxGeometry x="600.5" y="980" width="110" height="20" as="geometry" />
        </mxCell>
        <mxCell id="NK96kK6ZexJCDKCEKkFz-262" value="&lt;div style=&quot;text-align: left&quot;&gt;&lt;font style=&quot;font-size: 14px&quot;&gt;&lt;b&gt;&lt;font color=&quot;#202124&quot;&gt;Relational T&lt;/font&gt;riples&lt;/b&gt;&lt;/font&gt;&lt;/div&gt;" style="text;html=1;resizable=0;autosize=1;align=center;verticalAlign=middle;points=[];fillColor=none;strokeColor=none;rounded=0;" parent="NK96kK6ZexJCDKCEKkFz-1" vertex="1">
          <mxGeometry x="232.5" y="1100" width="130" height="20" as="geometry" />
        </mxCell>
        <mxCell id="sT_bOk5FC5yaoyQuoM4E-0" value="Regardless of whether&lt;br&gt;prostitution is legal or&lt;br&gt;tolerated ..." style="text;html=1;resizable=0;autosize=1;align=left;verticalAlign=middle;points=[];fillColor=none;strokeColor=none;rounded=0;" parent="NK96kK6ZexJCDKCEKkFz-1" vertex="1">
          <mxGeometry x="270" y="885" width="140" height="50" as="geometry" />
        </mxCell>
        <mxCell id="sT_bOk5FC5yaoyQuoM4E-3" value="Attorney General &lt;br&gt;Holder..." style="text;html=1;resizable=0;autosize=1;align=left;verticalAlign=middle;points=[];fillColor=none;strokeColor=none;rounded=0;" parent="NK96kK6ZexJCDKCEKkFz-1" vertex="1">
          <mxGeometry x="538" y="885" width="110" height="30" as="geometry" />
        </mxCell>
        <mxCell id="sT_bOk5FC5yaoyQuoM4E-6" value="That was the message &lt;br&gt;Friday..." style="text;html=1;resizable=0;autosize=1;align=left;verticalAlign=middle;points=[];fillColor=none;strokeColor=none;rounded=0;" parent="NK96kK6ZexJCDKCEKkFz-1" vertex="1">
          <mxGeometry x="533" y="1050" width="140" height="30" as="geometry" />
        </mxCell>
        <mxCell id="sT_bOk5FC5yaoyQuoM4E-9" value="" style="ellipse;whiteSpace=wrap;html=1;aspect=fixed;fillColor=none;" parent="NK96kK6ZexJCDKCEKkFz-1" vertex="1">
          <mxGeometry x="250" y="992.5" width="95" height="95" as="geometry" />
        </mxCell>
        <mxCell id="sT_bOk5FC5yaoyQuoM4E-10" value="&lt;span style=&quot;color: rgb(0, 0, 0); font-family: helvetica; font-size: 12px; font-style: normal; font-weight: 400; letter-spacing: normal; text-align: left; text-indent: 0px; text-transform: none; word-spacing: 0px; background-color: rgb(248, 249, 250); display: inline; float: none;&quot;&gt;Eric Holder&lt;span&gt;&amp;nbsp;&lt;/span&gt;&lt;/span&gt;" style="text;whiteSpace=wrap;html=1;" parent="NK96kK6ZexJCDKCEKkFz-1" vertex="1">
          <mxGeometry x="295" y="995" width="70" height="30" as="geometry" />
        </mxCell>
        <mxCell id="sT_bOk5FC5yaoyQuoM4E-11" value="&lt;span style=&quot;color: rgb(0, 0, 0); font-family: helvetica; font-size: 12px; font-style: normal; font-weight: 400; letter-spacing: normal; text-align: left; text-indent: 0px; text-transform: none; word-spacing: 0px; background-color: rgb(248, 249, 250); display: inline; float: none;&quot;&gt;&lt;span&gt;&amp;nbsp;&lt;/span&gt;is from&lt;span&gt;&amp;nbsp;&lt;/span&gt;&lt;/span&gt;" style="text;whiteSpace=wrap;html=1;" parent="NK96kK6ZexJCDKCEKkFz-1" vertex="1">
          <mxGeometry x="287.5" y="1025" width="80" height="30" as="geometry" />
        </mxCell>
        <mxCell id="sT_bOk5FC5yaoyQuoM4E-12" value="&lt;span style=&quot;color: rgb(0, 0, 0); font-family: helvetica; font-size: 12px; font-style: normal; font-weight: 400; letter-spacing: normal; text-align: left; text-indent: 0px; text-transform: none; word-spacing: 0px; background-color: rgb(248, 249, 250); display: inline; float: none;&quot;&gt;Attorney General&lt;/span&gt;" style="text;whiteSpace=wrap;html=1;" parent="NK96kK6ZexJCDKCEKkFz-1" vertex="1">
          <mxGeometry x="290" y="1057.5" width="120" height="30" as="geometry" />
        </mxCell>
        <mxCell id="sT_bOk5FC5yaoyQuoM4E-25" value="" style="rounded=0;whiteSpace=wrap;html=1;fillColor=#dae8fc;strokeColor=#6c8ebf;" parent="NK96kK6ZexJCDKCEKkFz-1" vertex="1">
          <mxGeometry x="80" y="850" width="120" height="60" as="geometry" />
        </mxCell>
        <mxCell id="sT_bOk5FC5yaoyQuoM4E-26" value="" style="rounded=0;whiteSpace=wrap;html=1;fillColor=#dae8fc;strokeColor=#6c8ebf;" parent="NK96kK6ZexJCDKCEKkFz-1" vertex="1">
          <mxGeometry x="90" y="860" width="120" height="60" as="geometry" />
        </mxCell>
        <mxCell id="sT_bOk5FC5yaoyQuoM4E-27" value="&lt;span&gt;&lt;b&gt;Query:&lt;/b&gt;&lt;br&gt;Who is from&lt;/span&gt;&lt;br&gt;&lt;span&gt;&amp;nbsp;Attorney General ?&lt;/span&gt;" style="rounded=0;whiteSpace=wrap;html=1;fillColor=#dae8fc;strokeColor=#6c8ebf;align=left;" parent="NK96kK6ZexJCDKCEKkFz-1" vertex="1">
          <mxGeometry x="100" y="870" width="120" height="60" as="geometry" />
        </mxCell>
        <mxCell id="sT_bOk5FC5yaoyQuoM4E-30" value="&lt;font style=&quot;font-size: 6px&quot;&gt;bos&amp;nbsp; &amp;nbsp;q1&amp;nbsp; &amp;nbsp; &amp;nbsp;...&amp;nbsp; &amp;nbsp; &amp;nbsp; qn&amp;nbsp; &amp;nbsp;sep&amp;nbsp; bos&amp;nbsp; d1&amp;nbsp; &amp;nbsp; ...&amp;nbsp; &amp;nbsp; dm&amp;nbsp; eos&amp;nbsp;&amp;nbsp;&lt;/font&gt;" style="text;html=1;align=left;verticalAlign=middle;resizable=0;points=[];autosize=1;" parent="NK96kK6ZexJCDKCEKkFz-1" vertex="1">
          <mxGeometry x="72" y="810" width="280" height="20" as="geometry" />
        </mxCell>
        <mxCell id="sT_bOk5FC5yaoyQuoM4E-35" value="Multi-Head Attention" style="rounded=1;whiteSpace=wrap;html=1;fillColor=#fff2cc;strokeColor=#d6b656;" parent="NK96kK6ZexJCDKCEKkFz-1" vertex="1">
          <mxGeometry x="121.62" y="740" width="157.88" height="20" as="geometry" />
        </mxCell>
        <mxCell id="sT_bOk5FC5yaoyQuoM4E-36" value="Add &amp;amp; Norm" style="rounded=1;whiteSpace=wrap;html=1;fillColor=#f5f5f5;strokeColor=#666666;fontColor=#333333;" parent="NK96kK6ZexJCDKCEKkFz-1" vertex="1">
          <mxGeometry x="121.5" y="710" width="158" height="20" as="geometry" />
        </mxCell>
        <mxCell id="sT_bOk5FC5yaoyQuoM4E-38" value="Feed Forward" style="rounded=1;whiteSpace=wrap;html=1;fillColor=#fff2cc;strokeColor=#d6b656;" parent="NK96kK6ZexJCDKCEKkFz-1" vertex="1">
          <mxGeometry x="119.5" y="680" width="160" height="20" as="geometry" />
        </mxCell>
        <mxCell id="sT_bOk5FC5yaoyQuoM4E-39" value="Add &amp;amp; Norm" style="rounded=1;whiteSpace=wrap;html=1;fillColor=#f5f5f5;strokeColor=#666666;fontColor=#333333;" parent="NK96kK6ZexJCDKCEKkFz-1" vertex="1">
          <mxGeometry x="119.5" y="650" width="160" height="20" as="geometry" />
        </mxCell>
        <mxCell id="sT_bOk5FC5yaoyQuoM4E-72" style="edgeStyle=orthogonalEdgeStyle;rounded=0;orthogonalLoop=1;jettySize=auto;html=1;exitX=0.5;exitY=0;exitDx=0;exitDy=0;entryX=0.057;entryY=1.001;entryDx=0;entryDy=0;entryPerimeter=0;" parent="NK96kK6ZexJCDKCEKkFz-1" source="sT_bOk5FC5yaoyQuoM4E-41" edge="1">
          <mxGeometry relative="1" as="geometry">
            <mxPoint x="85.3900000000001" y="770.1300000000001" as="targetPoint" />
          </mxGeometry>
        </mxCell>
        <mxCell id="sT_bOk5FC5yaoyQuoM4E-41" value="" style="rounded=1;whiteSpace=wrap;html=1;fillColor=#dae8fc;strokeColor=#6c8ebf;" parent="NK96kK6ZexJCDKCEKkFz-1" vertex="1">
          <mxGeometry x="76" y="790" width="18" height="20" as="geometry" />
        </mxCell>
        <mxCell id="sT_bOk5FC5yaoyQuoM4E-54" value="" style="rounded=1;whiteSpace=wrap;html=1;fillColor=#dae8fc;strokeColor=#6c8ebf;arcSize=0;" parent="NK96kK6ZexJCDKCEKkFz-1" vertex="1">
          <mxGeometry x="104" y="790" width="18" height="20" as="geometry" />
        </mxCell>
        <mxCell id="sT_bOk5FC5yaoyQuoM4E-55" value="" style="rounded=1;whiteSpace=wrap;html=1;fillColor=#dae8fc;strokeColor=#6c8ebf;" parent="NK96kK6ZexJCDKCEKkFz-1" vertex="1">
          <mxGeometry x="134" y="790" width="18" height="20" as="geometry" />
        </mxCell>
        <mxCell id="sT_bOk5FC5yaoyQuoM4E-56" value="" style="rounded=1;whiteSpace=wrap;html=1;fillColor=#dae8fc;strokeColor=#6c8ebf;" parent="NK96kK6ZexJCDKCEKkFz-1" vertex="1">
          <mxGeometry x="160" y="790" width="18" height="20" as="geometry" />
        </mxCell>
        <mxCell id="sT_bOk5FC5yaoyQuoM4E-57" value="" style="rounded=1;whiteSpace=wrap;html=1;fillColor=#dae8fc;strokeColor=#6c8ebf;" parent="NK96kK6ZexJCDKCEKkFz-1" vertex="1">
          <mxGeometry x="186" y="790" width="18" height="20" as="geometry" />
        </mxCell>
        <mxCell id="sT_bOk5FC5yaoyQuoM4E-58" value="" style="rounded=1;whiteSpace=wrap;html=1;fillColor=#dae8fc;strokeColor=#6c8ebf;arcSize=0;" parent="NK96kK6ZexJCDKCEKkFz-1" vertex="1">
          <mxGeometry x="211" y="790" width="18" height="20" as="geometry" />
        </mxCell>
        <mxCell id="sT_bOk5FC5yaoyQuoM4E-59" value="" style="rounded=1;whiteSpace=wrap;html=1;fillColor=#dae8fc;strokeColor=#6c8ebf;" parent="NK96kK6ZexJCDKCEKkFz-1" vertex="1">
          <mxGeometry x="236" y="790" width="18" height="20" as="geometry" />
        </mxCell>
        <mxCell id="sT_bOk5FC5yaoyQuoM4E-60" value="" style="rounded=1;whiteSpace=wrap;html=1;fillColor=#dae8fc;strokeColor=#6c8ebf;" parent="NK96kK6ZexJCDKCEKkFz-1" vertex="1">
          <mxGeometry x="264" y="790" width="18" height="20" as="geometry" />
        </mxCell>
        <mxCell id="sT_bOk5FC5yaoyQuoM4E-61" value="" style="rounded=1;whiteSpace=wrap;html=1;fillColor=#dae8fc;strokeColor=#6c8ebf;" parent="NK96kK6ZexJCDKCEKkFz-1" vertex="1">
          <mxGeometry x="288.12" y="790" width="18" height="20" as="geometry" />
        </mxCell>
        <mxCell id="sT_bOk5FC5yaoyQuoM4E-62" value="" style="rounded=1;whiteSpace=wrap;html=1;fillColor=#dae8fc;strokeColor=#6c8ebf;" parent="NK96kK6ZexJCDKCEKkFz-1" vertex="1">
          <mxGeometry x="314" y="790" width="18" height="20" as="geometry" />
        </mxCell>
        <mxCell id="sT_bOk5FC5yaoyQuoM4E-65" style="edgeStyle=orthogonalEdgeStyle;sketch=0;orthogonalLoop=1;jettySize=auto;html=1;" parent="NK96kK6ZexJCDKCEKkFz-1" edge="1">
          <mxGeometry relative="1" as="geometry">
            <mxPoint x="327" y="830" as="targetPoint" />
            <mxPoint x="327" y="850" as="sourcePoint" />
            <Array as="points">
              <mxPoint x="327" y="840" />
              <mxPoint x="327" y="840" />
            </Array>
          </mxGeometry>
        </mxCell>
        <mxCell id="sT_bOk5FC5yaoyQuoM4E-73" style="edgeStyle=orthogonalEdgeStyle;rounded=0;orthogonalLoop=1;jettySize=auto;html=1;exitX=0.5;exitY=0;exitDx=0;exitDy=0;entryX=0.057;entryY=1.001;entryDx=0;entryDy=0;entryPerimeter=0;" parent="NK96kK6ZexJCDKCEKkFz-1" edge="1">
          <mxGeometry relative="1" as="geometry">
            <mxPoint x="112.5" y="790" as="sourcePoint" />
            <mxPoint x="112.8900000000001" y="770.1300000000001" as="targetPoint" />
          </mxGeometry>
        </mxCell>
        <mxCell id="sT_bOk5FC5yaoyQuoM4E-74" style="edgeStyle=orthogonalEdgeStyle;rounded=0;orthogonalLoop=1;jettySize=auto;html=1;exitX=0.5;exitY=0;exitDx=0;exitDy=0;entryX=0.057;entryY=1.001;entryDx=0;entryDy=0;entryPerimeter=0;" parent="NK96kK6ZexJCDKCEKkFz-1" edge="1">
          <mxGeometry relative="1" as="geometry">
            <mxPoint x="140" y="790" as="sourcePoint" />
            <mxPoint x="140.3900000000001" y="770.1300000000001" as="targetPoint" />
          </mxGeometry>
        </mxCell>
        <mxCell id="sT_bOk5FC5yaoyQuoM4E-75" style="edgeStyle=orthogonalEdgeStyle;rounded=0;orthogonalLoop=1;jettySize=auto;html=1;exitX=0.5;exitY=0;exitDx=0;exitDy=0;entryX=0.057;entryY=1.001;entryDx=0;entryDy=0;entryPerimeter=0;" parent="NK96kK6ZexJCDKCEKkFz-1" edge="1">
          <mxGeometry relative="1" as="geometry">
            <mxPoint x="168.5" y="789.87" as="sourcePoint" />
            <mxPoint x="168.8900000000001" y="770.0000000000001" as="targetPoint" />
          </mxGeometry>
        </mxCell>
        <mxCell id="sT_bOk5FC5yaoyQuoM4E-76" style="edgeStyle=orthogonalEdgeStyle;rounded=0;orthogonalLoop=1;jettySize=auto;html=1;exitX=0.5;exitY=0;exitDx=0;exitDy=0;entryX=0.057;entryY=1.001;entryDx=0;entryDy=0;entryPerimeter=0;" parent="NK96kK6ZexJCDKCEKkFz-1" edge="1">
          <mxGeometry relative="1" as="geometry">
            <mxPoint x="194.5" y="790" as="sourcePoint" />
            <mxPoint x="194.8900000000001" y="770.1300000000001" as="targetPoint" />
          </mxGeometry>
        </mxCell>
        <mxCell id="sT_bOk5FC5yaoyQuoM4E-77" style="edgeStyle=orthogonalEdgeStyle;rounded=0;orthogonalLoop=1;jettySize=auto;html=1;exitX=0.5;exitY=0;exitDx=0;exitDy=0;entryX=0.057;entryY=1.001;entryDx=0;entryDy=0;entryPerimeter=0;" parent="NK96kK6ZexJCDKCEKkFz-1" edge="1">
          <mxGeometry relative="1" as="geometry">
            <mxPoint x="219.5" y="790" as="sourcePoint" />
            <mxPoint x="219.8900000000001" y="770.1300000000001" as="targetPoint" />
          </mxGeometry>
        </mxCell>
        <mxCell id="sT_bOk5FC5yaoyQuoM4E-78" style="edgeStyle=orthogonalEdgeStyle;rounded=0;orthogonalLoop=1;jettySize=auto;html=1;exitX=0.5;exitY=0;exitDx=0;exitDy=0;entryX=0.057;entryY=1.001;entryDx=0;entryDy=0;entryPerimeter=0;" parent="NK96kK6ZexJCDKCEKkFz-1" edge="1">
          <mxGeometry relative="1" as="geometry">
            <mxPoint x="244.5" y="790" as="sourcePoint" />
            <mxPoint x="244.8900000000001" y="770.1300000000001" as="targetPoint" />
          </mxGeometry>
        </mxCell>
        <mxCell id="sT_bOk5FC5yaoyQuoM4E-79" style="edgeStyle=orthogonalEdgeStyle;rounded=0;orthogonalLoop=1;jettySize=auto;html=1;exitX=0.5;exitY=0;exitDx=0;exitDy=0;entryX=0.057;entryY=1.001;entryDx=0;entryDy=0;entryPerimeter=0;" parent="NK96kK6ZexJCDKCEKkFz-1" edge="1">
          <mxGeometry relative="1" as="geometry">
            <mxPoint x="271" y="790" as="sourcePoint" />
            <mxPoint x="271.3900000000001" y="770.1300000000001" as="targetPoint" />
          </mxGeometry>
        </mxCell>
        <mxCell id="sT_bOk5FC5yaoyQuoM4E-80" style="edgeStyle=orthogonalEdgeStyle;rounded=0;orthogonalLoop=1;jettySize=auto;html=1;exitX=0.5;exitY=0;exitDx=0;exitDy=0;entryX=0.057;entryY=1.001;entryDx=0;entryDy=0;entryPerimeter=0;" parent="NK96kK6ZexJCDKCEKkFz-1" edge="1">
          <mxGeometry relative="1" as="geometry">
            <mxPoint x="296.62" y="790" as="sourcePoint" />
            <mxPoint x="297.0100000000001" y="770.1300000000001" as="targetPoint" />
          </mxGeometry>
        </mxCell>
        <mxCell id="sT_bOk5FC5yaoyQuoM4E-81" style="edgeStyle=orthogonalEdgeStyle;rounded=0;orthogonalLoop=1;jettySize=auto;html=1;exitX=0.5;exitY=0;exitDx=0;exitDy=0;entryX=0.057;entryY=1.001;entryDx=0;entryDy=0;entryPerimeter=0;" parent="NK96kK6ZexJCDKCEKkFz-1" edge="1">
          <mxGeometry relative="1" as="geometry">
            <mxPoint x="322.5" y="790" as="sourcePoint" />
            <mxPoint x="322.8900000000001" y="770.1300000000001" as="targetPoint" />
          </mxGeometry>
        </mxCell>
        <mxCell id="sT_bOk5FC5yaoyQuoM4E-113" style="edgeStyle=orthogonalEdgeStyle;rounded=0;orthogonalLoop=1;jettySize=auto;html=1;" parent="NK96kK6ZexJCDKCEKkFz-1" source="sT_bOk5FC5yaoyQuoM4E-82" edge="1">
          <mxGeometry relative="1" as="geometry">
            <mxPoint x="206" y="610" as="targetPoint" />
          </mxGeometry>
        </mxCell>
        <mxCell id="sT_bOk5FC5yaoyQuoM4E-82" value="" style="rounded=1;whiteSpace=wrap;html=1;gradientColor=#ffffff;fillColor=none;strokeColor=#3399FF;" parent="NK96kK6ZexJCDKCEKkFz-1" vertex="1">
          <mxGeometry x="72" y="635" width="268" height="135" as="geometry" />
        </mxCell>
        <mxCell id="sT_bOk5FC5yaoyQuoM4E-83" value="Multi-Head (Mask) Attention" style="rounded=1;whiteSpace=wrap;html=1;fillColor=#fff2cc;strokeColor=#d6b656;" parent="NK96kK6ZexJCDKCEKkFz-1" vertex="1">
          <mxGeometry x="479.25" y="740" width="157.88" height="20" as="geometry" />
        </mxCell>
        <mxCell id="sT_bOk5FC5yaoyQuoM4E-84" value="Add &amp;amp; Norm" style="rounded=1;whiteSpace=wrap;html=1;fillColor=#f5f5f5;strokeColor=#666666;fontColor=#333333;" parent="NK96kK6ZexJCDKCEKkFz-1" vertex="1">
          <mxGeometry x="479.13" y="710" width="158" height="20" as="geometry" />
        </mxCell>
        <mxCell id="sT_bOk5FC5yaoyQuoM4E-85" value="Feed Forward" style="rounded=1;whiteSpace=wrap;html=1;fillColor=#fff2cc;strokeColor=#d6b656;" parent="NK96kK6ZexJCDKCEKkFz-1" vertex="1">
          <mxGeometry x="477.13" y="680" width="160" height="20" as="geometry" />
        </mxCell>
        <mxCell id="sT_bOk5FC5yaoyQuoM4E-86" value="Add &amp;amp; Norm" style="rounded=1;whiteSpace=wrap;html=1;fillColor=#f5f5f5;strokeColor=#666666;fontColor=#333333;" parent="NK96kK6ZexJCDKCEKkFz-1" vertex="1">
          <mxGeometry x="477.13" y="650" width="160" height="20" as="geometry" />
        </mxCell>
        <mxCell id="sT_bOk5FC5yaoyQuoM4E-90" value="" style="rounded=1;whiteSpace=wrap;html=1;fillColor=#dae8fc;strokeColor=#6c8ebf;" parent="NK96kK6ZexJCDKCEKkFz-1" vertex="1">
          <mxGeometry x="491.63" y="790" width="18" height="20" as="geometry" />
        </mxCell>
        <mxCell id="sT_bOk5FC5yaoyQuoM4E-91" value="" style="rounded=1;whiteSpace=wrap;html=1;fillColor=#dae8fc;strokeColor=#6c8ebf;" parent="NK96kK6ZexJCDKCEKkFz-1" vertex="1">
          <mxGeometry x="517.63" y="790" width="18" height="20" as="geometry" />
        </mxCell>
        <mxCell id="sT_bOk5FC5yaoyQuoM4E-92" value="" style="rounded=1;whiteSpace=wrap;html=1;fillColor=#dae8fc;strokeColor=#6c8ebf;" parent="NK96kK6ZexJCDKCEKkFz-1" vertex="1">
          <mxGeometry x="543.63" y="790" width="18" height="20" as="geometry" />
        </mxCell>
        <mxCell id="sT_bOk5FC5yaoyQuoM4E-93" value="" style="rounded=1;whiteSpace=wrap;html=1;fillColor=#dae8fc;strokeColor=#6c8ebf;arcSize=0;" parent="NK96kK6ZexJCDKCEKkFz-1" vertex="1">
          <mxGeometry x="568.63" y="790" width="18" height="20" as="geometry" />
        </mxCell>
        <mxCell id="sT_bOk5FC5yaoyQuoM4E-94" value="" style="rounded=1;whiteSpace=wrap;html=1;fillColor=#dae8fc;strokeColor=#6c8ebf;" parent="NK96kK6ZexJCDKCEKkFz-1" vertex="1">
          <mxGeometry x="593.63" y="790" width="18" height="20" as="geometry" />
        </mxCell>
        <mxCell id="sT_bOk5FC5yaoyQuoM4E-95" value="" style="rounded=1;whiteSpace=wrap;html=1;fillColor=#dae8fc;strokeColor=#6c8ebf;" parent="NK96kK6ZexJCDKCEKkFz-1" vertex="1">
          <mxGeometry x="621.63" y="790" width="18" height="20" as="geometry" />
        </mxCell>
        <mxCell id="sT_bOk5FC5yaoyQuoM4E-99" style="edgeStyle=orthogonalEdgeStyle;rounded=0;orthogonalLoop=1;jettySize=auto;html=1;exitX=0.5;exitY=0;exitDx=0;exitDy=0;entryX=0.057;entryY=1.001;entryDx=0;entryDy=0;entryPerimeter=0;" parent="NK96kK6ZexJCDKCEKkFz-1" edge="1">
          <mxGeometry relative="1" as="geometry">
            <mxPoint x="497.63" y="790" as="sourcePoint" />
            <mxPoint x="498.0200000000001" y="770.1300000000001" as="targetPoint" />
          </mxGeometry>
        </mxCell>
        <mxCell id="sT_bOk5FC5yaoyQuoM4E-100" style="edgeStyle=orthogonalEdgeStyle;rounded=0;orthogonalLoop=1;jettySize=auto;html=1;exitX=0.5;exitY=0;exitDx=0;exitDy=0;entryX=0.057;entryY=1.001;entryDx=0;entryDy=0;entryPerimeter=0;" parent="NK96kK6ZexJCDKCEKkFz-1" edge="1">
          <mxGeometry relative="1" as="geometry">
            <mxPoint x="526.13" y="789.8699999999999" as="sourcePoint" />
            <mxPoint x="526.5200000000001" y="770" as="targetPoint" />
          </mxGeometry>
        </mxCell>
        <mxCell id="sT_bOk5FC5yaoyQuoM4E-101" style="edgeStyle=orthogonalEdgeStyle;rounded=0;orthogonalLoop=1;jettySize=auto;html=1;exitX=0.5;exitY=0;exitDx=0;exitDy=0;entryX=0.057;entryY=1.001;entryDx=0;entryDy=0;entryPerimeter=0;" parent="NK96kK6ZexJCDKCEKkFz-1" edge="1">
          <mxGeometry relative="1" as="geometry">
            <mxPoint x="552.13" y="790" as="sourcePoint" />
            <mxPoint x="552.5200000000001" y="770.1300000000001" as="targetPoint" />
          </mxGeometry>
        </mxCell>
        <mxCell id="sT_bOk5FC5yaoyQuoM4E-102" style="edgeStyle=orthogonalEdgeStyle;rounded=0;orthogonalLoop=1;jettySize=auto;html=1;exitX=0.5;exitY=0;exitDx=0;exitDy=0;entryX=0.057;entryY=1.001;entryDx=0;entryDy=0;entryPerimeter=0;" parent="NK96kK6ZexJCDKCEKkFz-1" edge="1">
          <mxGeometry relative="1" as="geometry">
            <mxPoint x="577.13" y="790" as="sourcePoint" />
            <mxPoint x="577.5200000000001" y="770.1300000000001" as="targetPoint" />
          </mxGeometry>
        </mxCell>
        <mxCell id="sT_bOk5FC5yaoyQuoM4E-103" style="edgeStyle=orthogonalEdgeStyle;rounded=0;orthogonalLoop=1;jettySize=auto;html=1;exitX=0.5;exitY=0;exitDx=0;exitDy=0;entryX=0.057;entryY=1.001;entryDx=0;entryDy=0;entryPerimeter=0;" parent="NK96kK6ZexJCDKCEKkFz-1" edge="1">
          <mxGeometry relative="1" as="geometry">
            <mxPoint x="602.13" y="790" as="sourcePoint" />
            <mxPoint x="602.5200000000001" y="770.1300000000001" as="targetPoint" />
          </mxGeometry>
        </mxCell>
        <mxCell id="sT_bOk5FC5yaoyQuoM4E-104" style="edgeStyle=orthogonalEdgeStyle;rounded=0;orthogonalLoop=1;jettySize=auto;html=1;exitX=0.5;exitY=0;exitDx=0;exitDy=0;entryX=0.057;entryY=1.001;entryDx=0;entryDy=0;entryPerimeter=0;" parent="NK96kK6ZexJCDKCEKkFz-1" edge="1">
          <mxGeometry relative="1" as="geometry">
            <mxPoint x="628.63" y="790" as="sourcePoint" />
            <mxPoint x="629.0200000000001" y="770.1300000000001" as="targetPoint" />
          </mxGeometry>
        </mxCell>
        <mxCell id="sT_bOk5FC5yaoyQuoM4E-108" value="&lt;font style=&quot;font-size: 6px&quot;&gt;bos&amp;nbsp; &amp;nbsp;s1&amp;nbsp; &amp;nbsp;s2&amp;nbsp; &amp;nbsp; ...&amp;nbsp; &amp;nbsp; &amp;nbsp;st&amp;nbsp; &amp;nbsp; &amp;nbsp;sep&amp;nbsp;&amp;nbsp;&lt;/font&gt;" style="text;html=1;align=left;verticalAlign=middle;resizable=0;points=[];autosize=1;" parent="NK96kK6ZexJCDKCEKkFz-1" vertex="1">
          <mxGeometry x="490" y="810" width="170" height="20" as="geometry" />
        </mxCell>
        <mxCell id="sT_bOk5FC5yaoyQuoM4E-114" style="edgeStyle=orthogonalEdgeStyle;rounded=0;orthogonalLoop=1;jettySize=auto;html=1;" parent="NK96kK6ZexJCDKCEKkFz-1" edge="1">
          <mxGeometry relative="1" as="geometry">
            <mxPoint x="561.63" y="610" as="targetPoint" />
            <mxPoint x="561.63" y="635" as="sourcePoint" />
          </mxGeometry>
        </mxCell>
        <mxCell id="sT_bOk5FC5yaoyQuoM4E-116" value="" style="rounded=1;whiteSpace=wrap;html=1;fillColor=#dae8fc;strokeColor=#6c8ebf;" parent="NK96kK6ZexJCDKCEKkFz-1" vertex="1">
          <mxGeometry x="159.75" y="420" width="18" height="20" as="geometry" />
        </mxCell>
        <mxCell id="sT_bOk5FC5yaoyQuoM4E-118" value="" style="rounded=1;whiteSpace=wrap;html=1;fillColor=#dae8fc;strokeColor=#6c8ebf;" parent="NK96kK6ZexJCDKCEKkFz-1" vertex="1">
          <mxGeometry x="197.75" y="420" width="18" height="20" as="geometry" />
        </mxCell>
        <mxCell id="sT_bOk5FC5yaoyQuoM4E-119" value="" style="rounded=1;whiteSpace=wrap;html=1;fillColor=#dae8fc;strokeColor=#6c8ebf;" parent="NK96kK6ZexJCDKCEKkFz-1" vertex="1">
          <mxGeometry x="234.75" y="420" width="18" height="20" as="geometry" />
        </mxCell>
        <mxCell id="sT_bOk5FC5yaoyQuoM4E-120" value="" style="rounded=1;whiteSpace=wrap;html=1;fillColor=#dae8fc;strokeColor=#6c8ebf;" parent="NK96kK6ZexJCDKCEKkFz-1" vertex="1">
          <mxGeometry x="276.75" y="420" width="18" height="20" as="geometry" />
        </mxCell>
        <mxCell id="sT_bOk5FC5yaoyQuoM4E-127" style="edgeStyle=orthogonalEdgeStyle;rounded=0;orthogonalLoop=1;jettySize=auto;html=1;exitX=0.5;exitY=1;exitDx=0;exitDy=0;entryX=0.265;entryY=-0.114;entryDx=0;entryDy=0;entryPerimeter=0;dashed=1;" parent="NK96kK6ZexJCDKCEKkFz-1" source="sT_bOk5FC5yaoyQuoM4E-122" target="NK96kK6ZexJCDKCEKkFz-127" edge="1">
          <mxGeometry relative="1" as="geometry" />
        </mxCell>
        <mxCell id="sT_bOk5FC5yaoyQuoM4E-122" value="" style="rounded=1;whiteSpace=wrap;html=1;fillColor=#dae8fc;strokeColor=#6c8ebf;arcSize=0;" parent="NK96kK6ZexJCDKCEKkFz-1" vertex="1">
          <mxGeometry x="509.5" y="400" width="18" height="20" as="geometry" />
        </mxCell>
        <mxCell id="sT_bOk5FC5yaoyQuoM4E-123" value="" style="rounded=1;whiteSpace=wrap;html=1;fillColor=#dae8fc;strokeColor=#6c8ebf;arcSize=0;" parent="NK96kK6ZexJCDKCEKkFz-1" vertex="1">
          <mxGeometry x="569.63" y="400" width="18" height="20" as="geometry" />
        </mxCell>
        <mxCell id="sT_bOk5FC5yaoyQuoM4E-135" style="edgeStyle=orthogonalEdgeStyle;rounded=0;orthogonalLoop=1;jettySize=auto;html=1;exitX=0.5;exitY=1;exitDx=0;exitDy=0;entryX=0.265;entryY=-0.114;entryDx=0;entryDy=0;entryPerimeter=0;dashed=1;" parent="NK96kK6ZexJCDKCEKkFz-1" edge="1">
          <mxGeometry relative="1" as="geometry">
            <mxPoint x="582.42" y="422.28" as="sourcePoint" />
            <mxPoint x="580.57" y="440" as="targetPoint" />
          </mxGeometry>
        </mxCell>
        <mxCell id="sT_bOk5FC5yaoyQuoM4E-139" value="" style="endArrow=classic;html=1;dashed=1;entryX=0;entryY=1;entryDx=0;entryDy=0;rounded=0;" parent="NK96kK6ZexJCDKCEKkFz-1" target="sT_bOk5FC5yaoyQuoM4E-123" edge="1">
          <mxGeometry width="50" height="50" relative="1" as="geometry">
            <mxPoint x="541.5" y="440" as="sourcePoint" />
            <mxPoint x="451.5" y="470" as="targetPoint" />
            <Array as="points">
              <mxPoint x="541.5" y="430" />
            </Array>
          </mxGeometry>
        </mxCell>
        <mxCell id="sT_bOk5FC5yaoyQuoM4E-140" value="" style="endArrow=classic;html=1;dashed=1;entryX=0;entryY=1;entryDx=0;entryDy=0;rounded=0;" parent="NK96kK6ZexJCDKCEKkFz-1" edge="1">
          <mxGeometry width="50" height="50" relative="1" as="geometry">
            <mxPoint x="596.37" y="440" as="sourcePoint" />
            <mxPoint x="624.5000000000001" y="420" as="targetPoint" />
            <Array as="points">
              <mxPoint x="596.37" y="430" />
            </Array>
          </mxGeometry>
        </mxCell>
        <mxCell id="sT_bOk5FC5yaoyQuoM4E-141" value="" style="endArrow=none;html=1;" parent="NK96kK6ZexJCDKCEKkFz-1" edge="1">
          <mxGeometry width="50" height="50" relative="1" as="geometry">
            <mxPoint x="136.75" y="550" as="sourcePoint" />
            <mxPoint x="206.75" y="550" as="targetPoint" />
          </mxGeometry>
        </mxCell>
        <mxCell id="sT_bOk5FC5yaoyQuoM4E-142" value="" style="rounded=0;whiteSpace=wrap;html=1;strokeColor=#82b366;fillColor=#d5e8d4;" parent="NK96kK6ZexJCDKCEKkFz-1" vertex="1">
          <mxGeometry x="148.75" y="510" width="8" height="40" as="geometry" />
        </mxCell>
        <mxCell id="sT_bOk5FC5yaoyQuoM4E-148" value="" style="rounded=0;whiteSpace=wrap;html=1;strokeColor=#82b366;fillColor=#d5e8d4;" parent="NK96kK6ZexJCDKCEKkFz-1" vertex="1">
          <mxGeometry x="156.75" y="530" width="8" height="20" as="geometry" />
        </mxCell>
        <mxCell id="sT_bOk5FC5yaoyQuoM4E-152" value="" style="rounded=0;whiteSpace=wrap;html=1;strokeColor=#82b366;fillColor=#d5e8d4;" parent="NK96kK6ZexJCDKCEKkFz-1" vertex="1">
          <mxGeometry x="164.75" y="520" width="8" height="30" as="geometry" />
        </mxCell>
        <mxCell id="sT_bOk5FC5yaoyQuoM4E-153" value="" style="rounded=0;whiteSpace=wrap;html=1;strokeColor=#82b366;fillColor=#d5e8d4;" parent="NK96kK6ZexJCDKCEKkFz-1" vertex="1">
          <mxGeometry x="172.75" y="510" width="8" height="40" as="geometry" />
        </mxCell>
        <mxCell id="sT_bOk5FC5yaoyQuoM4E-154" value="" style="rounded=0;whiteSpace=wrap;html=1;strokeColor=#82b366;fillColor=#d5e8d4;" parent="NK96kK6ZexJCDKCEKkFz-1" vertex="1">
          <mxGeometry x="180.75" y="530" width="8" height="20" as="geometry" />
        </mxCell>
        <mxCell id="sT_bOk5FC5yaoyQuoM4E-155" value="" style="endArrow=none;html=1;" parent="NK96kK6ZexJCDKCEKkFz-1" edge="1">
          <mxGeometry width="50" height="50" relative="1" as="geometry">
            <mxPoint x="524.25" y="547.5" as="sourcePoint" />
            <mxPoint x="594.25" y="547.5" as="targetPoint" />
          </mxGeometry>
        </mxCell>
        <mxCell id="sT_bOk5FC5yaoyQuoM4E-156" value="" style="rounded=0;whiteSpace=wrap;html=1;strokeColor=#82b366;fillColor=#d5e8d4;" parent="NK96kK6ZexJCDKCEKkFz-1" vertex="1">
          <mxGeometry x="536.25" y="520" width="8" height="27.5" as="geometry" />
        </mxCell>
        <mxCell id="sT_bOk5FC5yaoyQuoM4E-157" value="" style="rounded=0;whiteSpace=wrap;html=1;strokeColor=#82b366;fillColor=#d5e8d4;" parent="NK96kK6ZexJCDKCEKkFz-1" vertex="1">
          <mxGeometry x="544.25" y="527.5" width="8" height="20" as="geometry" />
        </mxCell>
        <mxCell id="sT_bOk5FC5yaoyQuoM4E-158" value="" style="rounded=0;whiteSpace=wrap;html=1;strokeColor=#82b366;fillColor=#d5e8d4;" parent="NK96kK6ZexJCDKCEKkFz-1" vertex="1">
          <mxGeometry x="552.25" y="510" width="8" height="37.5" as="geometry" />
        </mxCell>
        <mxCell id="sT_bOk5FC5yaoyQuoM4E-159" value="" style="rounded=0;whiteSpace=wrap;html=1;strokeColor=#82b366;fillColor=#d5e8d4;" parent="NK96kK6ZexJCDKCEKkFz-1" vertex="1">
          <mxGeometry x="560.25" y="520" width="8" height="27.5" as="geometry" />
        </mxCell>
        <mxCell id="sT_bOk5FC5yaoyQuoM4E-160" value="" style="rounded=0;whiteSpace=wrap;html=1;strokeColor=#82b366;fillColor=#d5e8d4;" parent="NK96kK6ZexJCDKCEKkFz-1" vertex="1">
          <mxGeometry x="568.25" y="527.5" width="8" height="20" as="geometry" />
        </mxCell>
        <mxCell id="sT_bOk5FC5yaoyQuoM4E-169" value="" style="endArrow=none;html=1;" parent="NK96kK6ZexJCDKCEKkFz-1" edge="1">
          <mxGeometry width="50" height="50" relative="1" as="geometry">
            <mxPoint x="248.75" y="551" as="sourcePoint" />
            <mxPoint x="318.75" y="551" as="targetPoint" />
          </mxGeometry>
        </mxCell>
        <mxCell id="sT_bOk5FC5yaoyQuoM4E-170" value="" style="rounded=0;whiteSpace=wrap;html=1;strokeColor=#82b366;fillColor=#d5e8d4;" parent="NK96kK6ZexJCDKCEKkFz-1" vertex="1">
          <mxGeometry x="260.75" y="511" width="8" height="40" as="geometry" />
        </mxCell>
        <mxCell id="sT_bOk5FC5yaoyQuoM4E-171" value="" style="rounded=0;whiteSpace=wrap;html=1;strokeColor=#82b366;fillColor=#d5e8d4;" parent="NK96kK6ZexJCDKCEKkFz-1" vertex="1">
          <mxGeometry x="268.75" y="531" width="8" height="20" as="geometry" />
        </mxCell>
        <mxCell id="sT_bOk5FC5yaoyQuoM4E-172" value="" style="rounded=0;whiteSpace=wrap;html=1;strokeColor=#82b366;fillColor=#d5e8d4;" parent="NK96kK6ZexJCDKCEKkFz-1" vertex="1">
          <mxGeometry x="276.75" y="521" width="8" height="30" as="geometry" />
        </mxCell>
        <mxCell id="sT_bOk5FC5yaoyQuoM4E-173" value="" style="rounded=0;whiteSpace=wrap;html=1;strokeColor=#82b366;fillColor=#d5e8d4;" parent="NK96kK6ZexJCDKCEKkFz-1" vertex="1">
          <mxGeometry x="284.75" y="511" width="8" height="40" as="geometry" />
        </mxCell>
        <mxCell id="sT_bOk5FC5yaoyQuoM4E-174" value="" style="rounded=0;whiteSpace=wrap;html=1;strokeColor=#82b366;fillColor=#d5e8d4;" parent="NK96kK6ZexJCDKCEKkFz-1" vertex="1">
          <mxGeometry x="292.75" y="531" width="8" height="20" as="geometry" />
        </mxCell>
        <mxCell id="sT_bOk5FC5yaoyQuoM4E-181" style="edgeStyle=orthogonalEdgeStyle;rounded=0;orthogonalLoop=1;jettySize=auto;html=1;exitX=0.5;exitY=0;exitDx=0;exitDy=0;" parent="NK96kK6ZexJCDKCEKkFz-1" source="sT_bOk5FC5yaoyQuoM4E-176" edge="1">
          <mxGeometry relative="1" as="geometry">
            <mxPoint x="215" y="340" as="targetPoint" />
          </mxGeometry>
        </mxCell>
        <mxCell id="sT_bOk5FC5yaoyQuoM4E-176" value="" style="rounded=1;whiteSpace=wrap;html=1;strokeColor=#3399FF;fillColor=none;gradientColor=#ffffff;" parent="NK96kK6ZexJCDKCEKkFz-1" vertex="1">
          <mxGeometry x="144.25" y="390" width="169.5" height="70" as="geometry" />
        </mxCell>
        <mxCell id="sT_bOk5FC5yaoyQuoM4E-182" style="edgeStyle=orthogonalEdgeStyle;rounded=0;orthogonalLoop=1;jettySize=auto;html=1;exitX=0.5;exitY=0;exitDx=0;exitDy=0;entryX=0.686;entryY=1.062;entryDx=0;entryDy=0;entryPerimeter=0;" parent="NK96kK6ZexJCDKCEKkFz-1" source="sT_bOk5FC5yaoyQuoM4E-179" edge="1">
          <mxGeometry relative="1" as="geometry">
            <mxPoint x="547.1500000000001" y="341.24" as="targetPoint" />
          </mxGeometry>
        </mxCell>
        <mxCell id="sT_bOk5FC5yaoyQuoM4E-179" value="" style="rounded=1;whiteSpace=wrap;html=1;strokeColor=#3399FF;gradientColor=#ffffff;fillColor=none;" parent="NK96kK6ZexJCDKCEKkFz-1" vertex="1">
          <mxGeometry x="461" y="390" width="199" height="70" as="geometry" />
        </mxCell>
        <mxCell id="sT_bOk5FC5yaoyQuoM4E-183" value="&lt;b&gt;&lt;font color=&quot;#3333ff&quot;&gt;Summarization&amp;nbsp; Module&lt;/font&gt;&lt;/b&gt;" style="text;html=1;resizable=0;autosize=1;align=center;verticalAlign=middle;points=[];fillColor=none;strokeColor=none;rounded=0;dashed=1;" parent="NK96kK6ZexJCDKCEKkFz-1" vertex="1">
          <mxGeometry x="415" y="370" width="150" height="20" as="geometry" />
        </mxCell>
        <mxCell id="sT_bOk5FC5yaoyQuoM4E-189" value="$$P_{answer}^{start}$$" style="text;html=1;align=center;verticalAlign=middle;resizable=0;points=[];autosize=1;" parent="NK96kK6ZexJCDKCEKkFz-1" vertex="1">
          <mxGeometry x="48.75" y="507.5" width="140" height="20" as="geometry" />
        </mxCell>
        <mxCell id="sT_bOk5FC5yaoyQuoM4E-190" value="$$P_{answer}^{end}$$" style="text;html=1;resizable=0;autosize=1;align=center;verticalAlign=middle;points=[];fillColor=none;strokeColor=none;rounded=0;" parent="NK96kK6ZexJCDKCEKkFz-1" vertex="1">
          <mxGeometry x="252" y="507.5" width="140" height="20" as="geometry" />
        </mxCell>
        <mxCell id="sT_bOk5FC5yaoyQuoM4E-192" value="$$P(target_{i})$$" style="text;html=1;resizable=0;autosize=1;align=center;verticalAlign=middle;points=[];fillColor=none;strokeColor=none;rounded=0;" parent="NK96kK6ZexJCDKCEKkFz-1" vertex="1">
          <mxGeometry x="554.25" y="507.5" width="110" height="20" as="geometry" />
        </mxCell>
        <mxCell id="sT_bOk5FC5yaoyQuoM4E-195" value="" style="rounded=1;whiteSpace=wrap;html=1;strokeColor=#3399FF;fillColor=none;gradientColor=#ffffff;dashed=1;" parent="NK96kK6ZexJCDKCEKkFz-1" vertex="1">
          <mxGeometry x="52" y="370" width="318" height="250" as="geometry" />
        </mxCell>
        <mxCell id="sT_bOk5FC5yaoyQuoM4E-196" value="" style="rounded=1;whiteSpace=wrap;html=1;strokeColor=#3399FF;fillColor=none;gradientColor=#ffffff;dashed=1;" parent="NK96kK6ZexJCDKCEKkFz-1" vertex="1">
          <mxGeometry x="397.25" y="370" width="318" height="250" as="geometry" />
        </mxCell>
        <mxCell id="sT_bOk5FC5yaoyQuoM4E-200" value="" style="rounded=1;whiteSpace=wrap;html=1;gradientColor=#ffffff;fillColor=none;strokeColor=#3399FF;" parent="NK96kK6ZexJCDKCEKkFz-1" vertex="1">
          <mxGeometry x="424.19" y="635" width="268" height="135" as="geometry" />
        </mxCell>
      </root>
    </mxGraphModel>
  </diagram>
  <diagram name="Page-3" id="Wds9VuQtqept_IjM730A">
    <mxGraphModel dx="4547" dy="1907" grid="1" gridSize="10" guides="1" tooltips="1" connect="1" arrows="1" fold="1" page="1" pageScale="1" pageWidth="827" pageHeight="1169" math="0" shadow="0">
      <root>
        <mxCell id="tI9CS6r95HSDcBy_4aAu-0" />
        <mxCell id="tI9CS6r95HSDcBy_4aAu-1" parent="tI9CS6r95HSDcBy_4aAu-0" />
        <mxCell id="SAz2RZwR496jdOojdTyT-0" value="" style="shape=document;whiteSpace=wrap;html=1;boundedLbl=1;" parent="tI9CS6r95HSDcBy_4aAu-1" vertex="1">
          <mxGeometry x="318" y="130" width="120" height="80" as="geometry" />
        </mxCell>
        <mxCell id="SAz2RZwR496jdOojdTyT-1" value="" style="shape=document;whiteSpace=wrap;html=1;boundedLbl=1;" parent="tI9CS6r95HSDcBy_4aAu-1" vertex="1">
          <mxGeometry x="318" y="130" width="120" height="80" as="geometry" />
        </mxCell>
        <mxCell id="SAz2RZwR496jdOojdTyT-2" value="" style="shape=document;whiteSpace=wrap;html=1;boundedLbl=1;" parent="tI9CS6r95HSDcBy_4aAu-1" vertex="1">
          <mxGeometry x="318" y="130" width="120" height="80" as="geometry" />
        </mxCell>
        <mxCell id="SAz2RZwR496jdOojdTyT-3" value="" style="shape=document;whiteSpace=wrap;html=1;boundedLbl=1;fillColor=#dae8fc;strokeColor=#6c8ebf;" parent="tI9CS6r95HSDcBy_4aAu-1" vertex="1">
          <mxGeometry x="318" y="130" width="120" height="80" as="geometry" />
        </mxCell>
        <mxCell id="SAz2RZwR496jdOojdTyT-4" value="" style="shape=document;whiteSpace=wrap;html=1;boundedLbl=1;" parent="tI9CS6r95HSDcBy_4aAu-1" vertex="1">
          <mxGeometry x="318" y="130" width="120" height="80" as="geometry" />
        </mxCell>
        <mxCell id="SAz2RZwR496jdOojdTyT-5" value="" style="shape=document;whiteSpace=wrap;html=1;boundedLbl=1;fillColor=#dae8fc;strokeColor=#6c8ebf;" parent="tI9CS6r95HSDcBy_4aAu-1" vertex="1">
          <mxGeometry x="318" y="130" width="120" height="80" as="geometry" />
        </mxCell>
        <mxCell id="SAz2RZwR496jdOojdTyT-6" value="" style="shape=document;whiteSpace=wrap;html=1;boundedLbl=1;fillColor=#dae8fc;strokeColor=#6c8ebf;" parent="tI9CS6r95HSDcBy_4aAu-1" vertex="1">
          <mxGeometry x="308" y="140" width="120" height="80" as="geometry" />
        </mxCell>
        <mxCell id="SAz2RZwR496jdOojdTyT-7" value="" style="shape=document;whiteSpace=wrap;html=1;boundedLbl=1;fillColor=#dae8fc;strokeColor=#6c8ebf;" parent="tI9CS6r95HSDcBy_4aAu-1" vertex="1">
          <mxGeometry x="298" y="150" width="120" height="80" as="geometry" />
        </mxCell>
        <mxCell id="SAz2RZwR496jdOojdTyT-8" value="&lt;b&gt;&lt;font style=&quot;font-size: 8px&quot;&gt;&lt;font&gt;Input&lt;/font&gt;&amp;nbsp;&lt;font&gt;Do&lt;/font&gt;&lt;font&gt;cument:&lt;/font&gt;&lt;/font&gt;&lt;/b&gt;" style="text;html=1;resizable=0;autosize=1;align=center;verticalAlign=middle;points=[];fillColor=none;strokeColor=none;" parent="tI9CS6r95HSDcBy_4aAu-1" vertex="1">
          <mxGeometry x="293" y="150" width="110" height="20" as="geometry" />
        </mxCell>
        <mxCell id="SAz2RZwR496jdOojdTyT-9" style="edgeStyle=orthogonalEdgeStyle;rounded=0;orthogonalLoop=1;jettySize=auto;html=1;" parent="tI9CS6r95HSDcBy_4aAu-1" source="SAz2RZwR496jdOojdTyT-10" edge="1">
          <mxGeometry relative="1" as="geometry">
            <mxPoint x="596" y="110" as="targetPoint" />
          </mxGeometry>
        </mxCell>
        <mxCell id="SAz2RZwR496jdOojdTyT-10" value="" style="shape=document;whiteSpace=wrap;html=1;boundedLbl=1;fillColor=#ffe6cc;strokeColor=#d79b00;" parent="tI9CS6r95HSDcBy_4aAu-1" vertex="1">
          <mxGeometry x="536" y="130" width="120" height="30" as="geometry" />
        </mxCell>
        <mxCell id="SAz2RZwR496jdOojdTyT-11" value="" style="shape=document;whiteSpace=wrap;html=1;boundedLbl=1;fillColor=#ffe6cc;strokeColor=#d79b00;" parent="tI9CS6r95HSDcBy_4aAu-1" vertex="1">
          <mxGeometry x="546" y="140" width="120" height="30" as="geometry" />
        </mxCell>
        <mxCell id="SAz2RZwR496jdOojdTyT-12" value="" style="shape=document;whiteSpace=wrap;html=1;boundedLbl=1;fillColor=#ffe6cc;strokeColor=#d79b00;" parent="tI9CS6r95HSDcBy_4aAu-1" vertex="1">
          <mxGeometry x="556" y="150" width="120" height="50" as="geometry" />
        </mxCell>
        <mxCell id="SAz2RZwR496jdOojdTyT-13" value="&lt;font style=&quot;font-size: 12px&quot;&gt;&lt;b&gt;Target Summary:&lt;/b&gt;&lt;/font&gt;" style="text;html=1;resizable=0;autosize=1;align=left;verticalAlign=middle;points=[];fillColor=none;strokeColor=none;" parent="tI9CS6r95HSDcBy_4aAu-1" vertex="1">
          <mxGeometry x="561" y="150" width="110" height="20" as="geometry" />
        </mxCell>
        <mxCell id="SAz2RZwR496jdOojdTyT-14" style="edgeStyle=orthogonalEdgeStyle;orthogonalLoop=1;jettySize=auto;html=1;entryX=1;entryY=0.6;entryDx=0;entryDy=0;entryPerimeter=0;" parent="tI9CS6r95HSDcBy_4aAu-1" source="SAz2RZwR496jdOojdTyT-15" edge="1">
          <mxGeometry relative="1" as="geometry">
            <Array as="points">
              <mxPoint x="617" y="330" />
            </Array>
            <mxPoint x="368" y="330" as="targetPoint" />
          </mxGeometry>
        </mxCell>
        <mxCell id="SAz2RZwR496jdOojdTyT-15" value="" style="shape=document;whiteSpace=wrap;html=1;boundedLbl=1;size=0.3333333333333333;fillColor=#ffe6cc;strokeColor=#d79b00;" parent="tI9CS6r95HSDcBy_4aAu-1" vertex="1">
          <mxGeometry x="536" y="295" width="161" height="30" as="geometry" />
        </mxCell>
        <mxCell id="SAz2RZwR496jdOojdTyT-16" value="" style="shape=document;whiteSpace=wrap;html=1;boundedLbl=1;size=0.3333333333333333;fillColor=#ffe6cc;strokeColor=#d79b00;" parent="tI9CS6r95HSDcBy_4aAu-1" vertex="1">
          <mxGeometry x="546" y="305" width="161" height="30" as="geometry" />
        </mxCell>
        <mxCell id="SAz2RZwR496jdOojdTyT-17" value="" style="shape=document;whiteSpace=wrap;html=1;boundedLbl=1;size=0.18181818181818182;fillColor=#ffe6cc;strokeColor=#d79b00;" parent="tI9CS6r95HSDcBy_4aAu-1" vertex="1">
          <mxGeometry x="556" y="315" width="161" height="45" as="geometry" />
        </mxCell>
        <mxCell id="SAz2RZwR496jdOojdTyT-18" value="&lt;b&gt;&lt;font style=&quot;font-size: 12px&quot;&gt;Candidate Summary:&lt;/font&gt;&lt;/b&gt;" style="text;html=1;resizable=0;autosize=1;align=left;verticalAlign=middle;points=[];fillColor=none;strokeColor=none;" parent="tI9CS6r95HSDcBy_4aAu-1" vertex="1">
          <mxGeometry x="556" y="315" width="140" height="20" as="geometry" />
        </mxCell>
        <mxCell id="SAz2RZwR496jdOojdTyT-19" style="edgeStyle=orthogonalEdgeStyle;orthogonalLoop=1;jettySize=auto;html=1;entryX=0.347;entryY=0.94;entryDx=0;entryDy=0;entryPerimeter=0;" parent="tI9CS6r95HSDcBy_4aAu-1" edge="1">
          <mxGeometry relative="1" as="geometry">
            <mxPoint x="265.6500000000001" y="347.4000000000001" as="sourcePoint" />
            <mxPoint x="170.35000000000014" y="215" as="targetPoint" />
          </mxGeometry>
        </mxCell>
        <mxCell id="SAz2RZwR496jdOojdTyT-20" value="" style="ellipse;whiteSpace=wrap;html=1;aspect=fixed;fillColor=#f5f5f5;strokeColor=#666666;gradientColor=#b3b3b3;" parent="tI9CS6r95HSDcBy_4aAu-1" vertex="1">
          <mxGeometry x="298" y="280" width="20" height="20" as="geometry" />
        </mxCell>
        <mxCell id="SAz2RZwR496jdOojdTyT-21" value="" style="ellipse;whiteSpace=wrap;html=1;aspect=fixed;fillColor=#f5f5f5;strokeColor=#666666;gradientColor=#b3b3b3;" parent="tI9CS6r95HSDcBy_4aAu-1" vertex="1">
          <mxGeometry x="288" y="310" width="20" height="20" as="geometry" />
        </mxCell>
        <mxCell id="SAz2RZwR496jdOojdTyT-22" value="" style="ellipse;whiteSpace=wrap;html=1;aspect=fixed;fillColor=#f5f5f5;strokeColor=#666666;gradientColor=#b3b3b3;" parent="tI9CS6r95HSDcBy_4aAu-1" vertex="1">
          <mxGeometry x="298" y="340" width="20" height="20" as="geometry" />
        </mxCell>
        <mxCell id="SAz2RZwR496jdOojdTyT-23" value="" style="endArrow=none;html=1;" parent="tI9CS6r95HSDcBy_4aAu-1" edge="1">
          <mxGeometry width="50" height="50" relative="1" as="geometry">
            <mxPoint x="508" y="330" as="sourcePoint" />
            <mxPoint x="508" y="160" as="targetPoint" />
          </mxGeometry>
        </mxCell>
        <mxCell id="SAz2RZwR496jdOojdTyT-24" style="edgeStyle=orthogonalEdgeStyle;sketch=0;orthogonalLoop=1;jettySize=auto;html=1;" parent="tI9CS6r95HSDcBy_4aAu-1" edge="1">
          <mxGeometry relative="1" as="geometry">
            <mxPoint x="168" y="110" as="targetPoint" />
            <mxPoint x="167.5" y="150" as="sourcePoint" />
            <Array as="points">
              <mxPoint x="168" y="120" />
              <mxPoint x="168" y="120" />
            </Array>
          </mxGeometry>
        </mxCell>
        <mxCell id="SAz2RZwR496jdOojdTyT-25" value="" style="endArrow=none;html=1;" parent="tI9CS6r95HSDcBy_4aAu-1" source="SAz2RZwR496jdOojdTyT-13" edge="1">
          <mxGeometry width="50" height="50" relative="1" as="geometry">
            <mxPoint x="478" y="250" as="sourcePoint" />
            <mxPoint x="508" y="160" as="targetPoint" />
          </mxGeometry>
        </mxCell>
        <mxCell id="SAz2RZwR496jdOojdTyT-26" value="&lt;b&gt;&lt;font style=&quot;font-size: 14px&quot;&gt;Template&lt;/font&gt;&lt;/b&gt;" style="text;html=1;resizable=0;autosize=1;align=center;verticalAlign=middle;points=[];fillColor=none;strokeColor=none;" parent="tI9CS6r95HSDcBy_4aAu-1" vertex="1">
          <mxGeometry x="178" y="295" width="80" height="20" as="geometry" />
        </mxCell>
        <mxCell id="SAz2RZwR496jdOojdTyT-27" value="" style="endArrow=classic;html=1;" parent="tI9CS6r95HSDcBy_4aAu-1" edge="1">
          <mxGeometry width="50" height="50" relative="1" as="geometry">
            <mxPoint x="508" y="270" as="sourcePoint" />
            <mxPoint x="508" y="320" as="targetPoint" />
          </mxGeometry>
        </mxCell>
        <mxCell id="SAz2RZwR496jdOojdTyT-28" value="&lt;font style=&quot;font-size: 12px&quot; color=&quot;#3333ff&quot;&gt;&lt;b&gt;Data Construction&lt;/b&gt;&lt;/font&gt;" style="text;html=1;resizable=0;autosize=1;align=center;verticalAlign=middle;points=[];fillColor=none;strokeColor=none;dashed=1;sketch=0;" parent="tI9CS6r95HSDcBy_4aAu-1" vertex="1">
          <mxGeometry x="88" y="380" width="120" height="20" as="geometry" />
        </mxCell>
        <mxCell id="SAz2RZwR496jdOojdTyT-29" value="&lt;font style=&quot;font-size: 14px&quot;&gt;&lt;b&gt;OpenIE&lt;/b&gt;&lt;/font&gt;" style="text;html=1;resizable=0;autosize=1;align=center;verticalAlign=middle;points=[];fillColor=none;strokeColor=none;rounded=0;" parent="tI9CS6r95HSDcBy_4aAu-1" vertex="1">
          <mxGeometry x="416" y="335" width="60" height="20" as="geometry" />
        </mxCell>
        <mxCell id="SAz2RZwR496jdOojdTyT-30" value="" style="endArrow=classic;html=1;entryX=0.846;entryY=0.6;entryDx=0;entryDy=0;entryPerimeter=0;exitX=0.694;exitY=0.787;exitDx=0;exitDy=0;exitPerimeter=0;" parent="tI9CS6r95HSDcBy_4aAu-1" source="SAz2RZwR496jdOojdTyT-12" edge="1">
          <mxGeometry width="50" height="50" relative="1" as="geometry">
            <mxPoint x="638" y="200" as="sourcePoint" />
            <mxPoint x="637.9000000000001" y="300" as="targetPoint" />
            <Array as="points" />
          </mxGeometry>
        </mxCell>
        <mxCell id="SAz2RZwR496jdOojdTyT-31" value="" style="endArrow=none;html=1;" parent="tI9CS6r95HSDcBy_4aAu-1" edge="1">
          <mxGeometry width="50" height="50" relative="1" as="geometry">
            <mxPoint x="418" y="210" as="sourcePoint" />
            <mxPoint x="628.5" y="210" as="targetPoint" />
          </mxGeometry>
        </mxCell>
        <mxCell id="SAz2RZwR496jdOojdTyT-32" value="" style="endArrow=classic;html=1;" parent="tI9CS6r95HSDcBy_4aAu-1" edge="1">
          <mxGeometry width="50" height="50" relative="1" as="geometry">
            <mxPoint x="601" y="210" as="sourcePoint" />
            <mxPoint x="638" y="210" as="targetPoint" />
          </mxGeometry>
        </mxCell>
        <mxCell id="SAz2RZwR496jdOojdTyT-33" value="&lt;b&gt;&lt;font style=&quot;font-size: 14px&quot;&gt;Greedy Seach&lt;/font&gt;&lt;/b&gt;" style="text;html=1;resizable=0;autosize=1;align=center;verticalAlign=middle;points=[];fillColor=none;strokeColor=none;rounded=0;opacity=50;" parent="tI9CS6r95HSDcBy_4aAu-1" vertex="1">
          <mxGeometry x="628.5" y="260" width="110" height="20" as="geometry" />
        </mxCell>
        <mxCell id="SAz2RZwR496jdOojdTyT-34" value="&lt;div style=&quot;text-align: left&quot;&gt;&lt;font style=&quot;font-size: 14px&quot;&gt;&lt;b&gt;&lt;font color=&quot;#202124&quot;&gt;Relational T&lt;/font&gt;riples&lt;/b&gt;&lt;/font&gt;&lt;/div&gt;" style="text;html=1;resizable=0;autosize=1;align=center;verticalAlign=middle;points=[];fillColor=none;strokeColor=none;rounded=0;" parent="tI9CS6r95HSDcBy_4aAu-1" vertex="1">
          <mxGeometry x="260.5" y="380" width="130" height="20" as="geometry" />
        </mxCell>
        <mxCell id="SAz2RZwR496jdOojdTyT-35" value="Regardless of whether&lt;br&gt;prostitution is legal or&lt;br&gt;tolerated ..." style="text;html=1;resizable=0;autosize=1;align=left;verticalAlign=middle;points=[];fillColor=none;strokeColor=none;rounded=0;" parent="tI9CS6r95HSDcBy_4aAu-1" vertex="1">
          <mxGeometry x="298" y="165" width="140" height="50" as="geometry" />
        </mxCell>
        <mxCell id="SAz2RZwR496jdOojdTyT-36" value="Attorney General &lt;br&gt;Holder..." style="text;html=1;resizable=0;autosize=1;align=left;verticalAlign=middle;points=[];fillColor=none;strokeColor=none;rounded=0;" parent="tI9CS6r95HSDcBy_4aAu-1" vertex="1">
          <mxGeometry x="566" y="165" width="110" height="30" as="geometry" />
        </mxCell>
        <mxCell id="SAz2RZwR496jdOojdTyT-37" value="That was the message &lt;br&gt;Friday..." style="text;html=1;resizable=0;autosize=1;align=left;verticalAlign=middle;points=[];fillColor=none;strokeColor=none;rounded=0;" parent="tI9CS6r95HSDcBy_4aAu-1" vertex="1">
          <mxGeometry x="561" y="330" width="140" height="30" as="geometry" />
        </mxCell>
        <mxCell id="SAz2RZwR496jdOojdTyT-38" value="" style="ellipse;whiteSpace=wrap;html=1;aspect=fixed;fillColor=none;" parent="tI9CS6r95HSDcBy_4aAu-1" vertex="1">
          <mxGeometry x="278" y="272.5" width="95" height="95" as="geometry" />
        </mxCell>
        <mxCell id="SAz2RZwR496jdOojdTyT-39" value="&lt;span style=&quot;color: rgb(0, 0, 0); font-family: helvetica; font-size: 12px; font-style: normal; font-weight: 400; letter-spacing: normal; text-align: left; text-indent: 0px; text-transform: none; word-spacing: 0px; background-color: rgb(248, 249, 250); display: inline; float: none;&quot;&gt;Eric Holder&lt;span&gt;&amp;nbsp;&lt;/span&gt;&lt;/span&gt;" style="text;whiteSpace=wrap;html=1;" parent="tI9CS6r95HSDcBy_4aAu-1" vertex="1">
          <mxGeometry x="323" y="275" width="70" height="30" as="geometry" />
        </mxCell>
        <mxCell id="SAz2RZwR496jdOojdTyT-40" value="&lt;span style=&quot;color: rgb(0, 0, 0); font-family: helvetica; font-size: 12px; font-style: normal; font-weight: 400; letter-spacing: normal; text-align: left; text-indent: 0px; text-transform: none; word-spacing: 0px; background-color: rgb(248, 249, 250); display: inline; float: none;&quot;&gt;&lt;span&gt;&amp;nbsp;&lt;/span&gt;is from&lt;span&gt;&amp;nbsp;&lt;/span&gt;&lt;/span&gt;" style="text;whiteSpace=wrap;html=1;" parent="tI9CS6r95HSDcBy_4aAu-1" vertex="1">
          <mxGeometry x="315.5" y="305" width="80" height="30" as="geometry" />
        </mxCell>
        <mxCell id="SAz2RZwR496jdOojdTyT-41" value="&lt;span style=&quot;color: rgb(0, 0, 0); font-family: helvetica; font-size: 12px; font-style: normal; font-weight: 400; letter-spacing: normal; text-align: left; text-indent: 0px; text-transform: none; word-spacing: 0px; background-color: rgb(248, 249, 250); display: inline; float: none;&quot;&gt;Attorney General&lt;/span&gt;" style="text;whiteSpace=wrap;html=1;" parent="tI9CS6r95HSDcBy_4aAu-1" vertex="1">
          <mxGeometry x="318" y="337.5" width="120" height="30" as="geometry" />
        </mxCell>
        <mxCell id="SAz2RZwR496jdOojdTyT-42" value="" style="rounded=0;whiteSpace=wrap;html=1;fillColor=#dae8fc;strokeColor=#6c8ebf;" parent="tI9CS6r95HSDcBy_4aAu-1" vertex="1">
          <mxGeometry x="108" y="130" width="120" height="60" as="geometry" />
        </mxCell>
        <mxCell id="SAz2RZwR496jdOojdTyT-43" value="" style="rounded=0;whiteSpace=wrap;html=1;fillColor=#dae8fc;strokeColor=#6c8ebf;" parent="tI9CS6r95HSDcBy_4aAu-1" vertex="1">
          <mxGeometry x="118" y="140" width="120" height="60" as="geometry" />
        </mxCell>
        <mxCell id="SAz2RZwR496jdOojdTyT-44" value="&lt;span&gt;&lt;b&gt;Query:&lt;/b&gt;&lt;br&gt;Who is from&lt;/span&gt;&lt;br&gt;&lt;span&gt;&amp;nbsp;Attorney General ?&lt;/span&gt;" style="rounded=0;whiteSpace=wrap;html=1;fillColor=#dae8fc;strokeColor=#6c8ebf;align=left;" parent="tI9CS6r95HSDcBy_4aAu-1" vertex="1">
          <mxGeometry x="128" y="150" width="120" height="60" as="geometry" />
        </mxCell>
        <mxCell id="SAz2RZwR496jdOojdTyT-45" style="edgeStyle=orthogonalEdgeStyle;sketch=0;orthogonalLoop=1;jettySize=auto;html=1;" parent="tI9CS6r95HSDcBy_4aAu-1" edge="1">
          <mxGeometry relative="1" as="geometry">
            <mxPoint x="355" y="110" as="targetPoint" />
            <mxPoint x="355" y="130" as="sourcePoint" />
            <Array as="points">
              <mxPoint x="355" y="120" />
              <mxPoint x="355" y="120" />
            </Array>
          </mxGeometry>
        </mxCell>
        <mxCell id="SAz2RZwR496jdOojdTyT-46" value="" style="ellipse;whiteSpace=wrap;html=1;aspect=fixed;fillColor=none;" parent="tI9CS6r95HSDcBy_4aAu-1" vertex="1">
          <mxGeometry x="110" y="840" width="200" height="200" as="geometry" />
        </mxCell>
        <mxCell id="SAz2RZwR496jdOojdTyT-47" value="" style="shape=document;whiteSpace=wrap;html=1;boundedLbl=1;fillColor=#ffe6cc;strokeColor=#d79b00;size=0.23076923076923078;" parent="tI9CS6r95HSDcBy_4aAu-1" vertex="1">
          <mxGeometry x="530" y="860" width="275" height="142" as="geometry" />
        </mxCell>
        <mxCell id="uN_uQLKap5fgCXFg_8PL-94" value="" style="shape=document;whiteSpace=wrap;html=1;boundedLbl=1;fillColor=#ffe6cc;strokeColor=#d79b00;size=0.23076923076923078;" parent="tI9CS6r95HSDcBy_4aAu-1" vertex="1">
          <mxGeometry x="540" y="870" width="275" height="142" as="geometry" />
        </mxCell>
        <mxCell id="uN_uQLKap5fgCXFg_8PL-95" value="&lt;font&gt;&lt;b&gt;&lt;span style=&quot;font-size: 24px&quot;&gt;Candidate Sumamry:&lt;/span&gt;&lt;br&gt;&lt;/b&gt;&lt;div&gt;&lt;font style=&quot;font-size: 18px&quot;&gt;Jason James has been charged with manslaughter over the death of a man ...&lt;/font&gt;&lt;/div&gt;&lt;/font&gt;" style="shape=document;whiteSpace=wrap;html=1;boundedLbl=1;fillColor=#ffe6cc;strokeColor=#d79b00;size=0.23076923076923078;align=left;" parent="tI9CS6r95HSDcBy_4aAu-1" vertex="1">
          <mxGeometry x="550" y="880" width="275" height="142" as="geometry" />
        </mxCell>
        <mxCell id="uN_uQLKap5fgCXFg_8PL-96" value="" style="ellipse;whiteSpace=wrap;html=1;aspect=fixed;fillColor=#f5f5f5;strokeColor=#666666;gradientColor=#b3b3b3;" parent="tI9CS6r95HSDcBy_4aAu-1" vertex="1">
          <mxGeometry x="157.5" y="860" width="50" height="50" as="geometry" />
        </mxCell>
        <mxCell id="uN_uQLKap5fgCXFg_8PL-97" value="" style="ellipse;whiteSpace=wrap;html=1;aspect=fixed;fillColor=#d5e8d4;strokeColor=#82b366;gradientColor=#97d077;" parent="tI9CS6r95HSDcBy_4aAu-1" vertex="1">
          <mxGeometry x="145" y="920" width="50" height="50" as="geometry" />
        </mxCell>
        <mxCell id="uN_uQLKap5fgCXFg_8PL-98" value="" style="ellipse;whiteSpace=wrap;html=1;aspect=fixed;fillColor=#f8cecc;strokeColor=#b85450;gradientColor=#ea6b66;" parent="tI9CS6r95HSDcBy_4aAu-1" vertex="1">
          <mxGeometry x="162.5" y="980" width="50" height="50" as="geometry" />
        </mxCell>
        <mxCell id="uN_uQLKap5fgCXFg_8PL-99" value="" style="ellipse;whiteSpace=wrap;html=1;aspect=fixed;fillColor=#f5f5f5;gradientColor=#b3b3b3;strokeColor=#666666;" parent="tI9CS6r95HSDcBy_4aAu-1" vertex="1">
          <mxGeometry x="468" y="1040" width="20" height="20" as="geometry" />
        </mxCell>
        <mxCell id="uN_uQLKap5fgCXFg_8PL-101" value="" style="ellipse;whiteSpace=wrap;html=1;aspect=fixed;fillColor=#d5e8d4;gradientColor=#97d077;strokeColor=#82b366;" parent="tI9CS6r95HSDcBy_4aAu-1" vertex="1">
          <mxGeometry x="468" y="1080" width="20" height="20" as="geometry" />
        </mxCell>
        <mxCell id="uN_uQLKap5fgCXFg_8PL-102" value="" style="ellipse;whiteSpace=wrap;html=1;aspect=fixed;fillColor=#f8cecc;gradientColor=#ea6b66;strokeColor=#b85450;" parent="tI9CS6r95HSDcBy_4aAu-1" vertex="1">
          <mxGeometry x="498" y="1110" width="20" height="20" as="geometry" />
        </mxCell>
        <mxCell id="dD9xYEHXrxqUb9K7kkyn-1" value="&lt;font style=&quot;font-size: 18px&quot;&gt;Jason James&lt;/font&gt;" style="text;html=1;resizable=0;autosize=1;align=center;verticalAlign=middle;points=[];strokeColor=none;rounded=0;fillColor=#ffffff;" parent="tI9CS6r95HSDcBy_4aAu-1" vertex="1">
          <mxGeometry x="212.5" y="870" width="120" height="20" as="geometry" />
        </mxCell>
        <mxCell id="dD9xYEHXrxqUb9K7kkyn-2" value="&lt;font style=&quot;font-size: 18px&quot;&gt;manslaughter&lt;/font&gt;" style="text;html=1;resizable=0;autosize=1;align=center;verticalAlign=middle;points=[];strokeColor=none;rounded=0;fillColor=#ffffff;" parent="tI9CS6r95HSDcBy_4aAu-1" vertex="1">
          <mxGeometry x="215.5" y="1000" width="120" height="20" as="geometry" />
        </mxCell>
        <mxCell id="dD9xYEHXrxqUb9K7kkyn-3" value="&lt;font style=&quot;font-size: 18px&quot;&gt;been charged with&amp;nbsp;&lt;/font&gt;" style="text;html=1;resizable=0;autosize=1;align=center;verticalAlign=middle;points=[];strokeColor=none;rounded=0;fillColor=#ffffff;" parent="tI9CS6r95HSDcBy_4aAu-1" vertex="1">
          <mxGeometry x="203" y="935" width="170" height="20" as="geometry" />
        </mxCell>
        <mxCell id="GKtptdsvIX_6xv89Govl-0" value="" style="rounded=0;whiteSpace=wrap;html=1;fillColor=#b0e3e6;strokeColor=#0e8088;" parent="tI9CS6r95HSDcBy_4aAu-1" vertex="1">
          <mxGeometry x="-40" y="610" width="212" height="110" as="geometry" />
        </mxCell>
        <mxCell id="GKtptdsvIX_6xv89Govl-1" value="" style="rounded=0;whiteSpace=wrap;html=1;fillColor=#b0e3e6;strokeColor=#0e8088;" parent="tI9CS6r95HSDcBy_4aAu-1" vertex="1">
          <mxGeometry x="-30" y="620" width="212" height="110" as="geometry" />
        </mxCell>
        <mxCell id="GKtptdsvIX_6xv89Govl-2" value="&lt;font style=&quot;font-size: 24px&quot;&gt;&lt;b&gt;Query:&lt;/b&gt;&lt;/font&gt;&lt;br&gt;&lt;font style=&quot;font-size: 18px&quot;&gt;Who has been charged with manslaughter?&lt;br&gt;&lt;br&gt;&lt;br&gt;&lt;/font&gt;" style="rounded=0;whiteSpace=wrap;html=1;fillColor=#b0e3e6;strokeColor=#0e8088;align=left;" parent="tI9CS6r95HSDcBy_4aAu-1" vertex="1">
          <mxGeometry x="-20" y="630" width="212" height="110" as="geometry" />
        </mxCell>
        <mxCell id="GKtptdsvIX_6xv89Govl-4" value="" style="shape=document;whiteSpace=wrap;html=1;boundedLbl=1;fillColor=#b0e3e6;size=0.17391304347826086;strokeColor=#0e8088;" parent="tI9CS6r95HSDcBy_4aAu-1" vertex="1">
          <mxGeometry x="590" y="610" width="190" height="115" as="geometry" />
        </mxCell>
        <mxCell id="GKtptdsvIX_6xv89Govl-5" value="" style="shape=document;whiteSpace=wrap;html=1;boundedLbl=1;fillColor=#b0e3e6;size=0.29411764705882354;strokeColor=#0e8088;" parent="tI9CS6r95HSDcBy_4aAu-1" vertex="1">
          <mxGeometry x="270" y="610" width="202" height="130" as="geometry" />
        </mxCell>
        <mxCell id="GKtptdsvIX_6xv89Govl-7" value="" style="shape=document;whiteSpace=wrap;html=1;boundedLbl=1;fillColor=#b0e3e6;size=0.17391304347826086;strokeColor=#0e8088;" parent="tI9CS6r95HSDcBy_4aAu-1" vertex="1">
          <mxGeometry x="600" y="620" width="190" height="115" as="geometry" />
        </mxCell>
        <mxCell id="GKtptdsvIX_6xv89Govl-8" value="&lt;font style=&quot;font-size: 24px&quot;&gt;&lt;b&gt;Summary&lt;/b&gt;&lt;/font&gt;&lt;font style=&quot;font-size: 18px&quot;&gt;&lt;b&gt;:&lt;br&gt;&lt;/b&gt;Jason James has been charged with manslaughter over the...&lt;/font&gt;" style="shape=document;whiteSpace=wrap;html=1;boundedLbl=1;fillColor=#b0e3e6;size=0.17391304347826086;strokeColor=#0e8088;align=left;" parent="tI9CS6r95HSDcBy_4aAu-1" vertex="1">
          <mxGeometry x="610" y="630" width="190" height="120" as="geometry" />
        </mxCell>
        <mxCell id="GKtptdsvIX_6xv89Govl-9" value="" style="shape=document;whiteSpace=wrap;html=1;boundedLbl=1;fillColor=#b0e3e6;size=0.29411764705882354;strokeColor=#0e8088;" parent="tI9CS6r95HSDcBy_4aAu-1" vertex="1">
          <mxGeometry x="280" y="620" width="202" height="130" as="geometry" />
        </mxCell>
        <mxCell id="GKtptdsvIX_6xv89Govl-10" value="&lt;div style=&quot;text-align: left&quot;&gt;&lt;b style=&quot;font-size: 18px&quot;&gt;&lt;br&gt;&lt;/b&gt;&lt;/div&gt;&lt;div style=&quot;text-align: left&quot;&gt;&lt;font style=&quot;font-size: 24px&quot;&gt;&lt;b&gt;Document:&lt;/b&gt;&lt;/font&gt;&lt;/div&gt;&lt;font&gt;&lt;div style=&quot;text-align: left&quot;&gt;&lt;span style=&quot;font-size: 18px&quot;&gt;Police were called to reports of a serious assault at around 02:20 GMT on...&amp;nbsp;&lt;/span&gt;&lt;/div&gt;&lt;/font&gt;" style="shape=document;whiteSpace=wrap;html=1;boundedLbl=1;fillColor=#b0e3e6;size=0.29411764705882354;strokeColor=#0e8088;" parent="tI9CS6r95HSDcBy_4aAu-1" vertex="1">
          <mxGeometry x="290" y="630" width="202" height="130" as="geometry" />
        </mxCell>
        <mxCell id="BXgkxypa6Kd5CFfpftLk-1" value="Multi-Head Attention" style="rounded=1;whiteSpace=wrap;html=1;fillColor=#fff2cc;strokeColor=#d6b656;" parent="tI9CS6r95HSDcBy_4aAu-1" vertex="1">
          <mxGeometry x="247.12" y="510" width="157.88" height="20" as="geometry" />
        </mxCell>
        <mxCell id="BXgkxypa6Kd5CFfpftLk-2" value="Add &amp;amp; Norm" style="rounded=1;whiteSpace=wrap;html=1;fillColor=#f5f5f5;strokeColor=#666666;fontColor=#333333;" parent="tI9CS6r95HSDcBy_4aAu-1" vertex="1">
          <mxGeometry x="247" y="480" width="158" height="20" as="geometry" />
        </mxCell>
        <mxCell id="BXgkxypa6Kd5CFfpftLk-3" value="Feed Forward" style="rounded=1;whiteSpace=wrap;html=1;fillColor=#fff2cc;strokeColor=#d6b656;" parent="tI9CS6r95HSDcBy_4aAu-1" vertex="1">
          <mxGeometry x="245" y="450" width="160" height="20" as="geometry" />
        </mxCell>
        <mxCell id="BXgkxypa6Kd5CFfpftLk-4" value="Add &amp;amp; Norm" style="rounded=1;whiteSpace=wrap;html=1;fillColor=#f5f5f5;strokeColor=#666666;fontColor=#333333;" parent="tI9CS6r95HSDcBy_4aAu-1" vertex="1">
          <mxGeometry x="245" y="420" width="160" height="20" as="geometry" />
        </mxCell>
        <mxCell id="BXgkxypa6Kd5CFfpftLk-5" style="edgeStyle=orthogonalEdgeStyle;rounded=0;orthogonalLoop=1;jettySize=auto;html=1;exitX=0.5;exitY=0;exitDx=0;exitDy=0;entryX=0.057;entryY=1.001;entryDx=0;entryDy=0;entryPerimeter=0;" parent="tI9CS6r95HSDcBy_4aAu-1" edge="1">
          <mxGeometry relative="1" as="geometry">
            <mxPoint x="238" y="560" as="sourcePoint" />
            <mxPoint x="238.3900000000001" y="540.1300000000001" as="targetPoint" />
          </mxGeometry>
        </mxCell>
        <mxCell id="BXgkxypa6Kd5CFfpftLk-6" style="edgeStyle=orthogonalEdgeStyle;rounded=0;orthogonalLoop=1;jettySize=auto;html=1;exitX=0.5;exitY=0;exitDx=0;exitDy=0;entryX=0.057;entryY=1.001;entryDx=0;entryDy=0;entryPerimeter=0;" parent="tI9CS6r95HSDcBy_4aAu-1" edge="1">
          <mxGeometry relative="1" as="geometry">
            <mxPoint x="265.5" y="560" as="sourcePoint" />
            <mxPoint x="265.8900000000001" y="540.1300000000001" as="targetPoint" />
          </mxGeometry>
        </mxCell>
        <mxCell id="BXgkxypa6Kd5CFfpftLk-7" style="edgeStyle=orthogonalEdgeStyle;rounded=0;orthogonalLoop=1;jettySize=auto;html=1;exitX=0.5;exitY=0;exitDx=0;exitDy=0;entryX=0.057;entryY=1.001;entryDx=0;entryDy=0;entryPerimeter=0;" parent="tI9CS6r95HSDcBy_4aAu-1" edge="1">
          <mxGeometry relative="1" as="geometry">
            <mxPoint x="294" y="559.8699999999999" as="sourcePoint" />
            <mxPoint x="294.3900000000001" y="540" as="targetPoint" />
          </mxGeometry>
        </mxCell>
        <mxCell id="BXgkxypa6Kd5CFfpftLk-8" style="edgeStyle=orthogonalEdgeStyle;rounded=0;orthogonalLoop=1;jettySize=auto;html=1;exitX=0.5;exitY=0;exitDx=0;exitDy=0;entryX=0.057;entryY=1.001;entryDx=0;entryDy=0;entryPerimeter=0;" parent="tI9CS6r95HSDcBy_4aAu-1" edge="1">
          <mxGeometry relative="1" as="geometry">
            <mxPoint x="320" y="560" as="sourcePoint" />
            <mxPoint x="320.3900000000001" y="540.1300000000001" as="targetPoint" />
          </mxGeometry>
        </mxCell>
        <mxCell id="BXgkxypa6Kd5CFfpftLk-9" style="edgeStyle=orthogonalEdgeStyle;rounded=0;orthogonalLoop=1;jettySize=auto;html=1;exitX=0.5;exitY=0;exitDx=0;exitDy=0;entryX=0.057;entryY=1.001;entryDx=0;entryDy=0;entryPerimeter=0;" parent="tI9CS6r95HSDcBy_4aAu-1" edge="1">
          <mxGeometry relative="1" as="geometry">
            <mxPoint x="345" y="560" as="sourcePoint" />
            <mxPoint x="345.3900000000001" y="540.1300000000001" as="targetPoint" />
          </mxGeometry>
        </mxCell>
        <mxCell id="BXgkxypa6Kd5CFfpftLk-10" style="edgeStyle=orthogonalEdgeStyle;rounded=0;orthogonalLoop=1;jettySize=auto;html=1;exitX=0.5;exitY=0;exitDx=0;exitDy=0;entryX=0.057;entryY=1.001;entryDx=0;entryDy=0;entryPerimeter=0;" parent="tI9CS6r95HSDcBy_4aAu-1" edge="1">
          <mxGeometry relative="1" as="geometry">
            <mxPoint x="370" y="560" as="sourcePoint" />
            <mxPoint x="370.3900000000001" y="540.1300000000001" as="targetPoint" />
          </mxGeometry>
        </mxCell>
        <mxCell id="BXgkxypa6Kd5CFfpftLk-11" style="edgeStyle=orthogonalEdgeStyle;rounded=0;orthogonalLoop=1;jettySize=auto;html=1;exitX=0.5;exitY=0;exitDx=0;exitDy=0;entryX=0.057;entryY=1.001;entryDx=0;entryDy=0;entryPerimeter=0;" parent="tI9CS6r95HSDcBy_4aAu-1" edge="1">
          <mxGeometry relative="1" as="geometry">
            <mxPoint x="396.5" y="560" as="sourcePoint" />
            <mxPoint x="396.8900000000001" y="540.1300000000001" as="targetPoint" />
          </mxGeometry>
        </mxCell>
        <mxCell id="BXgkxypa6Kd5CFfpftLk-12" style="edgeStyle=orthogonalEdgeStyle;rounded=0;orthogonalLoop=1;jettySize=auto;html=1;exitX=0.5;exitY=0;exitDx=0;exitDy=0;entryX=0.057;entryY=1.001;entryDx=0;entryDy=0;entryPerimeter=0;" parent="tI9CS6r95HSDcBy_4aAu-1" edge="1">
          <mxGeometry relative="1" as="geometry">
            <mxPoint x="422.1199999999999" y="560" as="sourcePoint" />
            <mxPoint x="422.5100000000002" y="540.1300000000001" as="targetPoint" />
          </mxGeometry>
        </mxCell>
        <mxCell id="BXgkxypa6Kd5CFfpftLk-13" style="edgeStyle=orthogonalEdgeStyle;rounded=0;orthogonalLoop=1;jettySize=auto;html=1;exitX=0.5;exitY=0;exitDx=0;exitDy=0;entryX=0.057;entryY=1.001;entryDx=0;entryDy=0;entryPerimeter=0;" parent="tI9CS6r95HSDcBy_4aAu-1" edge="1">
          <mxGeometry relative="1" as="geometry">
            <mxPoint x="448" y="560" as="sourcePoint" />
            <mxPoint x="448.3900000000001" y="540.1300000000001" as="targetPoint" />
          </mxGeometry>
        </mxCell>
      </root>
    </mxGraphModel>
  </diagram>
  <diagram name="Page-4" id="7dFnJGc-odfHB0vNvDvz">
    <mxGraphModel dx="1860" dy="953" grid="1" gridSize="10" guides="1" tooltips="1" connect="1" arrows="1" fold="1" page="1" pageScale="1" pageWidth="827" pageHeight="1169" math="1" shadow="0">
      <root>
        <mxCell id="6KxkqN7M90k9Lj1RuUj--0" />
        <mxCell id="6KxkqN7M90k9Lj1RuUj--1" parent="6KxkqN7M90k9Lj1RuUj--0" />
        <mxCell id="6KxkqN7M90k9Lj1RuUj--2" value="z" style="shape=document;whiteSpace=wrap;html=1;boundedLbl=1;spacingTop=5;fontSize=13;rounded=1;" parent="6KxkqN7M90k9Lj1RuUj--1" vertex="1">
          <mxGeometry x="270" y="814" width="157" height="91" as="geometry" />
        </mxCell>
        <mxCell id="6KxkqN7M90k9Lj1RuUj--3" value="" style="shape=document;whiteSpace=wrap;html=1;boundedLbl=1;spacingTop=5;fontSize=13;rounded=1;" parent="6KxkqN7M90k9Lj1RuUj--1" vertex="1">
          <mxGeometry x="270" y="814" width="157" height="91" as="geometry" />
        </mxCell>
        <mxCell id="6KxkqN7M90k9Lj1RuUj--4" value="" style="shape=document;whiteSpace=wrap;html=1;boundedLbl=1;spacingTop=5;fontSize=13;rounded=1;" parent="6KxkqN7M90k9Lj1RuUj--1" vertex="1">
          <mxGeometry x="270" y="814" width="157" height="91" as="geometry" />
        </mxCell>
        <mxCell id="6KxkqN7M90k9Lj1RuUj--5" value="" style="shape=document;whiteSpace=wrap;html=1;boundedLbl=1;fillColor=#dae8fc;strokeColor=#6c8ebf;spacingTop=5;fontSize=13;rounded=1;" parent="6KxkqN7M90k9Lj1RuUj--1" vertex="1">
          <mxGeometry x="270" y="814" width="157" height="91" as="geometry" />
        </mxCell>
        <mxCell id="6KxkqN7M90k9Lj1RuUj--6" value="" style="shape=document;whiteSpace=wrap;html=1;boundedLbl=1;spacingTop=5;fontSize=13;rounded=1;" parent="6KxkqN7M90k9Lj1RuUj--1" vertex="1">
          <mxGeometry x="270" y="814" width="157" height="91" as="geometry" />
        </mxCell>
        <mxCell id="6KxkqN7M90k9Lj1RuUj--7" value="" style="shape=document;whiteSpace=wrap;html=1;boundedLbl=1;fillColor=#dae8fc;strokeColor=#6c8ebf;spacingTop=5;fontSize=13;rounded=1;" parent="6KxkqN7M90k9Lj1RuUj--1" vertex="1">
          <mxGeometry x="270" y="814" width="157" height="91" as="geometry" />
        </mxCell>
        <mxCell id="6KxkqN7M90k9Lj1RuUj--8" value="" style="shape=document;whiteSpace=wrap;html=1;boundedLbl=1;fillColor=#dae8fc;strokeColor=#6c8ebf;spacingTop=5;fontSize=13;rounded=1;" parent="6KxkqN7M90k9Lj1RuUj--1" vertex="1">
          <mxGeometry x="260" y="824" width="157" height="91" as="geometry" />
        </mxCell>
        <mxCell id="6KxkqN7M90k9Lj1RuUj--9" value="&lt;font style=&quot;font-size: 18px&quot;&gt;&lt;font&gt;&lt;b&gt;输入文档：&lt;br&gt;&lt;/b&gt;&lt;/font&gt;&lt;font&gt;Police were called to reports of a ...&lt;/font&gt;&lt;/font&gt;" style="shape=document;whiteSpace=wrap;html=1;boundedLbl=1;fillColor=#dae8fc;strokeColor=#6c8ebf;spacingTop=5;fontSize=13;rounded=1;align=center;" parent="6KxkqN7M90k9Lj1RuUj--1" vertex="1">
          <mxGeometry x="250" y="834" width="157" height="91" as="geometry" />
        </mxCell>
        <mxCell id="Zs1HAmu2zwIQlZjoMgUZ-10" style="edgeStyle=orthogonalEdgeStyle;orthogonalLoop=1;jettySize=auto;html=1;fontSize=16;" parent="6KxkqN7M90k9Lj1RuUj--1" source="6KxkqN7M90k9Lj1RuUj--12" edge="1">
          <mxGeometry relative="1" as="geometry">
            <mxPoint x="480" y="1010" as="targetPoint" />
          </mxGeometry>
        </mxCell>
        <mxCell id="6KxkqN7M90k9Lj1RuUj--12" value="" style="shape=document;whiteSpace=wrap;html=1;boundedLbl=1;fillColor=#ffe6cc;strokeColor=#d79b00;rounded=1;" parent="6KxkqN7M90k9Lj1RuUj--1" vertex="1">
          <mxGeometry x="561" y="814" width="156" height="93" as="geometry" />
        </mxCell>
        <mxCell id="6KxkqN7M90k9Lj1RuUj--13" value="" style="shape=document;whiteSpace=wrap;html=1;boundedLbl=1;fillColor=#ffe6cc;strokeColor=#d79b00;rounded=1;" parent="6KxkqN7M90k9Lj1RuUj--1" vertex="1">
          <mxGeometry x="571" y="824" width="156" height="93" as="geometry" />
        </mxCell>
        <mxCell id="Zs1HAmu2zwIQlZjoMgUZ-0" style="edgeStyle=orthogonalEdgeStyle;orthogonalLoop=1;jettySize=auto;html=1;fontSize=16;exitX=0.494;exitY=0.899;exitDx=0;exitDy=0;exitPerimeter=0;" parent="6KxkqN7M90k9Lj1RuUj--1" source="6KxkqN7M90k9Lj1RuUj--14" edge="1">
          <mxGeometry relative="1" as="geometry">
            <mxPoint x="658" y="971" as="targetPoint" />
          </mxGeometry>
        </mxCell>
        <mxCell id="0vAuht8NElmBegkXjj2U-22" style="edgeStyle=orthogonalEdgeStyle;curved=0;rounded=1;sketch=0;orthogonalLoop=1;jettySize=auto;html=1;exitX=0.5;exitY=0;exitDx=0;exitDy=0;entryX=0.672;entryY=1.001;entryDx=0;entryDy=0;entryPerimeter=0;" parent="6KxkqN7M90k9Lj1RuUj--1" source="6KxkqN7M90k9Lj1RuUj--14" target="6KxkqN7M90k9Lj1RuUj--131" edge="1">
          <mxGeometry relative="1" as="geometry">
            <mxPoint x="659" y="790" as="targetPoint" />
          </mxGeometry>
        </mxCell>
        <mxCell id="6KxkqN7M90k9Lj1RuUj--14" value="&lt;div style=&quot;text-align: left;&quot;&gt;&lt;b&gt;&lt;font style=&quot;font-size: 18px&quot;&gt;&lt;br&gt;&lt;/font&gt;&lt;/b&gt;&lt;/div&gt;&lt;div style=&quot;text-align: left;&quot;&gt;&lt;b style=&quot;font-size: 18px; background-color: initial;&quot;&gt;&amp;nbsp;目标摘要：&lt;/b&gt;&lt;br&gt;&lt;/div&gt;&lt;font&gt;&lt;div style=&quot;text-align: left;&quot;&gt;&lt;span&gt;&lt;font style=&quot;font-size: 18px&quot;&gt;&amp;nbsp;Jason James has&amp;nbsp; &amp;nbsp;been ...&lt;/font&gt;&lt;/span&gt;&lt;/div&gt;&lt;div style=&quot;text-align: left;&quot;&gt;&lt;b&gt;&lt;br&gt;&lt;/b&gt;&lt;/div&gt;&lt;/font&gt;" style="shape=document;whiteSpace=wrap;html=1;boundedLbl=1;fillColor=#ffe6cc;strokeColor=#d79b00;rounded=1;size=0.2903225806451613;" parent="6KxkqN7M90k9Lj1RuUj--1" vertex="1">
          <mxGeometry x="581" y="834" width="156" height="93" as="geometry" />
        </mxCell>
        <mxCell id="_Q10psuRQLJJDG5r6k7m-3" style="edgeStyle=orthogonalEdgeStyle;orthogonalLoop=1;jettySize=auto;html=1;fontSize=16;" parent="6KxkqN7M90k9Lj1RuUj--1" source="6KxkqN7M90k9Lj1RuUj--17" edge="1">
          <mxGeometry relative="1" as="geometry">
            <mxPoint x="410" y="1020.5" as="targetPoint" />
          </mxGeometry>
        </mxCell>
        <mxCell id="6KxkqN7M90k9Lj1RuUj--17" value="" style="shape=document;whiteSpace=wrap;html=1;boundedLbl=1;size=0.3333333333333333;fillColor=#ffe6cc;strokeColor=#d79b00;rounded=1;" parent="6KxkqN7M90k9Lj1RuUj--1" vertex="1">
          <mxGeometry x="560" y="976" width="156" height="89" as="geometry" />
        </mxCell>
        <mxCell id="6KxkqN7M90k9Lj1RuUj--18" value="" style="shape=document;whiteSpace=wrap;html=1;boundedLbl=1;size=0.3333333333333333;fillColor=#ffe6cc;strokeColor=#d79b00;rounded=1;" parent="6KxkqN7M90k9Lj1RuUj--1" vertex="1">
          <mxGeometry x="570" y="986" width="156" height="89" as="geometry" />
        </mxCell>
        <mxCell id="6KxkqN7M90k9Lj1RuUj--19" value="&lt;font style=&quot;font-size: 18px&quot;&gt;&lt;b&gt;候选摘要：&lt;br&gt;&lt;/b&gt;&lt;div&gt;&lt;span&gt;The victim has not&amp;nbsp; yet been formally&lt;/span&gt;&lt;span&gt;...&lt;/span&gt;&lt;/div&gt;&lt;/font&gt;" style="shape=document;whiteSpace=wrap;html=1;boundedLbl=1;size=0.18181818181818182;fillColor=#ffe6cc;strokeColor=#d79b00;rounded=1;align=left;" parent="6KxkqN7M90k9Lj1RuUj--1" vertex="1">
          <mxGeometry x="580" y="996" width="156" height="89" as="geometry" />
        </mxCell>
        <mxCell id="6KxkqN7M90k9Lj1RuUj--28" value="&lt;span style=&quot;font-size: 18px;&quot;&gt;&lt;b&gt;模板&lt;/b&gt;&lt;/span&gt;" style="text;html=1;resizable=0;autosize=1;align=center;verticalAlign=middle;points=[];fillColor=none;strokeColor=none;rounded=1;" parent="6KxkqN7M90k9Lj1RuUj--1" vertex="1">
          <mxGeometry x="158.25" y="1030.5" width="50" height="20" as="geometry" />
        </mxCell>
        <mxCell id="6KxkqN7M90k9Lj1RuUj--30" value="&lt;b&gt;&lt;font style=&quot;font-size: 18px&quot;&gt;Summarization Layer&lt;/font&gt;&lt;/b&gt;" style="whiteSpace=wrap;html=1;sketch=0;fillColor=#dae8fc;strokeColor=#6c8ebf;rounded=1;" parent="6KxkqN7M90k9Lj1RuUj--1" vertex="1">
          <mxGeometry x="483.25" y="430" width="232.75" height="40" as="geometry" />
        </mxCell>
        <mxCell id="6KxkqN7M90k9Lj1RuUj--31" value="&lt;span style=&quot;font-size: 18px;&quot;&gt;&lt;b&gt;数据构建&lt;/b&gt;&lt;/span&gt;" style="text;html=1;resizable=0;autosize=1;align=center;verticalAlign=middle;points=[];fillColor=none;strokeColor=none;dashed=1;sketch=0;rounded=1;" parent="6KxkqN7M90k9Lj1RuUj--1" vertex="1">
          <mxGeometry x="91.75" y="1098.5" width="90" height="20" as="geometry" />
        </mxCell>
        <mxCell id="6KxkqN7M90k9Lj1RuUj--36" value="&lt;b&gt;&lt;font style=&quot;font-size: 18px&quot; color=&quot;#ff33ff&quot;&gt;...&lt;/font&gt;&lt;/b&gt;" style="text;html=1;resizable=0;autosize=1;align=center;verticalAlign=middle;points=[];fillColor=none;strokeColor=none;sketch=0;rounded=1;" parent="6KxkqN7M90k9Lj1RuUj--1" vertex="1">
          <mxGeometry x="587.75" y="265" width="30" height="20" as="geometry" />
        </mxCell>
        <mxCell id="6KxkqN7M90k9Lj1RuUj--37" value="&lt;font style=&quot;font-size: 18px&quot;&gt;&lt;b&gt;question answering Layer&lt;/b&gt;&lt;/font&gt;" style="whiteSpace=wrap;html=1;sketch=0;fillColor=#dae8fc;strokeColor=#6c8ebf;rounded=1;" parent="6KxkqN7M90k9Lj1RuUj--1" vertex="1">
          <mxGeometry x="103.75" y="440" width="265.75" height="40" as="geometry" />
        </mxCell>
        <mxCell id="6KxkqN7M90k9Lj1RuUj--39" value="&lt;font style=&quot;font-size: 18px&quot;&gt;bos&lt;/font&gt;" style="text;html=1;resizable=0;autosize=1;align=center;verticalAlign=middle;points=[];fillColor=none;strokeColor=none;rounded=1;" parent="6KxkqN7M90k9Lj1RuUj--1" vertex="1">
          <mxGeometry x="477.75" y="321" width="40" height="20" as="geometry" />
        </mxCell>
        <mxCell id="6KxkqN7M90k9Lj1RuUj--42" value="&lt;span style=&quot;font-size: 18px;&quot;&gt;&lt;b&gt;答案开始位置&lt;/b&gt;&lt;/span&gt;" style="text;html=1;resizable=0;autosize=1;align=center;verticalAlign=middle;points=[];fillColor=none;strokeColor=none;rounded=1;" parent="6KxkqN7M90k9Lj1RuUj--1" vertex="1">
          <mxGeometry x="80.5" y="360" width="120" height="20" as="geometry" />
        </mxCell>
        <mxCell id="6KxkqN7M90k9Lj1RuUj--43" value="&lt;span style=&quot;font-size: 18px;&quot;&gt;&lt;b&gt;答案结束位置&lt;/b&gt;&lt;/span&gt;" style="text;html=1;resizable=0;autosize=1;align=center;verticalAlign=middle;points=[];fillColor=none;strokeColor=none;rounded=1;" parent="6KxkqN7M90k9Lj1RuUj--1" vertex="1">
          <mxGeometry x="263.5" y="360" width="120" height="20" as="geometry" />
        </mxCell>
        <mxCell id="6KxkqN7M90k9Lj1RuUj--48" value="&lt;span style=&quot;font-size: 18px;&quot;&gt;&lt;b&gt;问答模块&lt;/b&gt;&lt;/span&gt;" style="text;html=1;resizable=0;autosize=1;align=center;verticalAlign=middle;points=[];fillColor=none;strokeColor=none;dashed=1;rounded=1;" parent="6KxkqN7M90k9Lj1RuUj--1" vertex="1">
          <mxGeometry x="86.75" y="490" width="90" height="20" as="geometry" />
        </mxCell>
        <mxCell id="6KxkqN7M90k9Lj1RuUj--49" value="" style="endArrow=classic;html=1;exitX=0.5;exitY=0.56;exitDx=0;exitDy=0;exitPerimeter=0;" parent="6KxkqN7M90k9Lj1RuUj--1" edge="1">
          <mxGeometry width="50" height="50" relative="1" as="geometry">
            <mxPoint x="588.1800000000001" y="380" as="sourcePoint" />
            <mxPoint x="588" y="360" as="targetPoint" />
          </mxGeometry>
        </mxCell>
        <mxCell id="6KxkqN7M90k9Lj1RuUj--50" value="" style="whiteSpace=wrap;html=1;fillColor=#f5f5f5;strokeColor=#666666;gradientColor=#b3b3b3;rounded=1;" parent="6KxkqN7M90k9Lj1RuUj--1" vertex="1">
          <mxGeometry x="238" y="142" width="6" height="35" as="geometry" />
        </mxCell>
        <mxCell id="6KxkqN7M90k9Lj1RuUj--51" value="" style="whiteSpace=wrap;html=1;fillColor=#fff2cc;strokeColor=#d6b656;gradientColor=#ffd966;rounded=1;" parent="6KxkqN7M90k9Lj1RuUj--1" vertex="1">
          <mxGeometry x="218" y="142" width="6" height="35" as="geometry" />
        </mxCell>
        <mxCell id="6KxkqN7M90k9Lj1RuUj--52" value="" style="whiteSpace=wrap;html=1;fillColor=#f5f5f5;strokeColor=#666666;gradientColor=#b3b3b3;rounded=1;" parent="6KxkqN7M90k9Lj1RuUj--1" vertex="1">
          <mxGeometry x="258" y="142" width="6" height="35" as="geometry" />
        </mxCell>
        <mxCell id="6KxkqN7M90k9Lj1RuUj--53" value="" style="whiteSpace=wrap;html=1;fillColor=#ffcd28;strokeColor=#d79b00;gradientColor=#ffa500;rounded=1;" parent="6KxkqN7M90k9Lj1RuUj--1" vertex="1">
          <mxGeometry x="276" y="142" width="6" height="35" as="geometry" />
        </mxCell>
        <mxCell id="6KxkqN7M90k9Lj1RuUj--54" value="" style="whiteSpace=wrap;html=1;fillColor=#dae8fc;strokeColor=#6c8ebf;rounded=1;" parent="6KxkqN7M90k9Lj1RuUj--1" vertex="1">
          <mxGeometry x="582.25" y="135" width="6" height="35" as="geometry" />
        </mxCell>
        <mxCell id="6KxkqN7M90k9Lj1RuUj--55" value="" style="whiteSpace=wrap;html=1;fillColor=#f8cecc;strokeColor=#b85450;rounded=1;" parent="6KxkqN7M90k9Lj1RuUj--1" vertex="1">
          <mxGeometry x="601.5" y="135" width="6" height="35" as="geometry" />
        </mxCell>
        <mxCell id="6KxkqN7M90k9Lj1RuUj--56" value="" style="whiteSpace=wrap;html=1;fillColor=#ffe6cc;strokeColor=#d79b00;rounded=1;" parent="6KxkqN7M90k9Lj1RuUj--1" vertex="1">
          <mxGeometry x="561" y="135" width="6" height="35" as="geometry" />
        </mxCell>
        <mxCell id="_U_ca107Dku7xIuLwuv_-53" style="edgeStyle=orthogonalEdgeStyle;curved=0;rounded=1;sketch=0;orthogonalLoop=1;jettySize=auto;html=1;entryX=0.75;entryY=1;entryDx=0;entryDy=0;" parent="6KxkqN7M90k9Lj1RuUj--1" source="6KxkqN7M90k9Lj1RuUj--61" target="_U_ca107Dku7xIuLwuv_-31" edge="1">
          <mxGeometry relative="1" as="geometry" />
        </mxCell>
        <mxCell id="_U_ca107Dku7xIuLwuv_-60" style="edgeStyle=orthogonalEdgeStyle;curved=0;rounded=1;sketch=0;orthogonalLoop=1;jettySize=auto;html=1;entryX=0.5;entryY=1;entryDx=0;entryDy=0;" parent="6KxkqN7M90k9Lj1RuUj--1" target="_U_ca107Dku7xIuLwuv_-30" edge="1">
          <mxGeometry relative="1" as="geometry">
            <mxPoint x="340" y="132" as="sourcePoint" />
          </mxGeometry>
        </mxCell>
        <mxCell id="_U_ca107Dku7xIuLwuv_-64" style="edgeStyle=orthogonalEdgeStyle;curved=0;rounded=1;sketch=0;orthogonalLoop=1;jettySize=auto;html=1;entryX=0.5;entryY=1;entryDx=0;entryDy=0;" parent="6KxkqN7M90k9Lj1RuUj--1" source="6KxkqN7M90k9Lj1RuUj--61" target="_U_ca107Dku7xIuLwuv_-28" edge="1">
          <mxGeometry relative="1" as="geometry" />
        </mxCell>
        <mxCell id="_U_ca107Dku7xIuLwuv_-65" style="edgeStyle=orthogonalEdgeStyle;curved=0;rounded=1;sketch=0;orthogonalLoop=1;jettySize=auto;html=1;entryX=0.5;entryY=1;entryDx=0;entryDy=0;" parent="6KxkqN7M90k9Lj1RuUj--1" source="6KxkqN7M90k9Lj1RuUj--61" target="_U_ca107Dku7xIuLwuv_-29" edge="1">
          <mxGeometry relative="1" as="geometry" />
        </mxCell>
        <mxCell id="_U_ca107Dku7xIuLwuv_-66" style="edgeStyle=orthogonalEdgeStyle;curved=0;rounded=1;sketch=0;orthogonalLoop=1;jettySize=auto;html=1;exitX=0.25;exitY=1;exitDx=0;exitDy=0;entryX=0.25;entryY=1;entryDx=0;entryDy=0;" parent="6KxkqN7M90k9Lj1RuUj--1" source="6KxkqN7M90k9Lj1RuUj--61" target="6KxkqN7M90k9Lj1RuUj--53" edge="1">
          <mxGeometry relative="1" as="geometry" />
        </mxCell>
        <mxCell id="_U_ca107Dku7xIuLwuv_-67" style="edgeStyle=orthogonalEdgeStyle;curved=0;rounded=1;sketch=0;orthogonalLoop=1;jettySize=auto;html=1;exitX=0.25;exitY=1;exitDx=0;exitDy=0;entryX=0.75;entryY=1;entryDx=0;entryDy=0;" parent="6KxkqN7M90k9Lj1RuUj--1" source="6KxkqN7M90k9Lj1RuUj--61" target="6KxkqN7M90k9Lj1RuUj--52" edge="1">
          <mxGeometry relative="1" as="geometry" />
        </mxCell>
        <mxCell id="_U_ca107Dku7xIuLwuv_-72" style="edgeStyle=orthogonalEdgeStyle;curved=0;rounded=1;sketch=0;orthogonalLoop=1;jettySize=auto;html=1;exitX=0.25;exitY=1;exitDx=0;exitDy=0;entryX=0.5;entryY=1;entryDx=0;entryDy=0;" parent="6KxkqN7M90k9Lj1RuUj--1" source="6KxkqN7M90k9Lj1RuUj--61" target="6KxkqN7M90k9Lj1RuUj--50" edge="1">
          <mxGeometry relative="1" as="geometry" />
        </mxCell>
        <mxCell id="_U_ca107Dku7xIuLwuv_-73" style="edgeStyle=orthogonalEdgeStyle;curved=0;rounded=1;sketch=0;orthogonalLoop=1;jettySize=auto;html=1;exitX=0.25;exitY=1;exitDx=0;exitDy=0;entryX=0.5;entryY=1;entryDx=0;entryDy=0;" parent="6KxkqN7M90k9Lj1RuUj--1" source="6KxkqN7M90k9Lj1RuUj--61" target="6KxkqN7M90k9Lj1RuUj--51" edge="1">
          <mxGeometry relative="1" as="geometry" />
        </mxCell>
        <mxCell id="6KxkqN7M90k9Lj1RuUj--61" value="" style="whiteSpace=wrap;html=1;fillColor=#bac8d3;strokeColor=#23445d;rounded=1;" parent="6KxkqN7M90k9Lj1RuUj--1" vertex="1">
          <mxGeometry x="384" y="129" width="35" height="6" as="geometry" />
        </mxCell>
        <mxCell id="6KxkqN7M90k9Lj1RuUj--62" value="&lt;b&gt;&lt;font color=&quot;#ff33ff&quot; style=&quot;font-size: 14px&quot;&gt;（正样本）答案短语表征&lt;/font&gt;&lt;/b&gt;" style="text;html=1;resizable=0;autosize=1;align=left;verticalAlign=middle;points=[];fillColor=none;strokeColor=none;rounded=1;" parent="6KxkqN7M90k9Lj1RuUj--1" vertex="1">
          <mxGeometry x="54.25" y="149.5" width="170" height="20" as="geometry" />
        </mxCell>
        <mxCell id="6KxkqN7M90k9Lj1RuUj--63" value="&lt;b&gt;&lt;font color=&quot;#cc00cc&quot; style=&quot;font-size: 14px&quot;&gt;（正样本）平均摘要表示&lt;br&gt;向量&lt;/font&gt;&lt;/b&gt;" style="text;html=1;resizable=0;autosize=1;align=center;verticalAlign=middle;points=[];fillColor=none;strokeColor=none;rounded=1;" parent="6KxkqN7M90k9Lj1RuUj--1" vertex="1">
          <mxGeometry x="390" y="162.75" width="170" height="30" as="geometry" />
        </mxCell>
        <mxCell id="6KxkqN7M90k9Lj1RuUj--65" style="edgeStyle=orthogonalEdgeStyle;orthogonalLoop=1;jettySize=auto;html=1;" parent="6KxkqN7M90k9Lj1RuUj--1" edge="1">
          <mxGeometry relative="1" as="geometry">
            <mxPoint x="552" y="155" as="sourcePoint" />
            <mxPoint x="409" y="135" as="targetPoint" />
          </mxGeometry>
        </mxCell>
        <mxCell id="6KxkqN7M90k9Lj1RuUj--70" value="&lt;span style=&quot;font-size: 18px;&quot;&gt;&lt;b&gt;互信息模块&lt;/b&gt;&lt;/span&gt;" style="text;html=1;resizable=0;autosize=1;align=center;verticalAlign=middle;points=[];fillColor=none;strokeColor=none;dashed=1;rounded=1;" parent="6KxkqN7M90k9Lj1RuUj--1" vertex="1">
          <mxGeometry x="75.75" y="202.5" width="110" height="20" as="geometry" />
        </mxCell>
        <mxCell id="6KxkqN7M90k9Lj1RuUj--71" value="&lt;font style=&quot;font-size: 18px&quot;&gt;&lt;b&gt;OpenIE&lt;/b&gt;&lt;/font&gt;" style="text;html=1;resizable=0;autosize=1;align=center;verticalAlign=middle;points=[];fillColor=none;strokeColor=none;rounded=1;" parent="6KxkqN7M90k9Lj1RuUj--1" vertex="1">
          <mxGeometry x="420.5" y="1030" width="80" height="20" as="geometry" />
        </mxCell>
        <mxCell id="6KxkqN7M90k9Lj1RuUj--75" value="&lt;span style=&quot;font-size: 18px;&quot;&gt;&lt;b&gt;贪婪搜索&lt;/b&gt;&lt;/span&gt;" style="text;html=1;resizable=0;autosize=1;align=left;verticalAlign=middle;points=[];fillColor=none;strokeColor=none;opacity=50;rounded=1;" parent="6KxkqN7M90k9Lj1RuUj--1" vertex="1">
          <mxGeometry x="680" y="932.5" width="90" height="20" as="geometry" />
        </mxCell>
        <mxCell id="6KxkqN7M90k9Lj1RuUj--76" value="&lt;div style=&quot;text-align: left&quot;&gt;&lt;font color=&quot;#202124&quot;&gt;&lt;span style=&quot;font-size: 18px;&quot;&gt;&lt;b&gt;关系三元组&lt;/b&gt;&lt;/span&gt;&lt;/font&gt;&lt;/div&gt;" style="text;html=1;resizable=0;autosize=1;align=center;verticalAlign=middle;points=[];fillColor=none;strokeColor=none;rounded=1;" parent="6KxkqN7M90k9Lj1RuUj--1" vertex="1">
          <mxGeometry x="250.5" y="1101" width="110" height="20" as="geometry" />
        </mxCell>
        <mxCell id="0vAuht8NElmBegkXjj2U-11" style="edgeStyle=orthogonalEdgeStyle;curved=0;rounded=1;sketch=0;orthogonalLoop=1;jettySize=auto;html=1;entryX=0.482;entryY=1.079;entryDx=0;entryDy=0;entryPerimeter=0;" parent="6KxkqN7M90k9Lj1RuUj--1" source="6KxkqN7M90k9Lj1RuUj--80" target="6KxkqN7M90k9Lj1RuUj--86" edge="1">
          <mxGeometry relative="1" as="geometry" />
        </mxCell>
        <mxCell id="6KxkqN7M90k9Lj1RuUj--80" value="" style="ellipse;whiteSpace=wrap;html=1;aspect=fixed;fillColor=none;rounded=1;" parent="6KxkqN7M90k9Lj1RuUj--1" vertex="1">
          <mxGeometry x="231" y="952.5" width="136" height="136" as="geometry" />
        </mxCell>
        <mxCell id="6KxkqN7M90k9Lj1RuUj--84" value="" style="whiteSpace=wrap;html=1;fillColor=#dae8fc;strokeColor=#6c8ebf;rounded=1;" parent="6KxkqN7M90k9Lj1RuUj--1" vertex="1">
          <mxGeometry x="78.25" y="814" width="128" height="89" as="geometry" />
        </mxCell>
        <mxCell id="6KxkqN7M90k9Lj1RuUj--85" value="" style="whiteSpace=wrap;html=1;fillColor=#dae8fc;strokeColor=#6c8ebf;rounded=1;" parent="6KxkqN7M90k9Lj1RuUj--1" vertex="1">
          <mxGeometry x="88.25" y="824" width="128" height="89" as="geometry" />
        </mxCell>
        <mxCell id="usOy6zRG9W8R6tI-JioP-4" style="edgeStyle=orthogonalEdgeStyle;orthogonalLoop=1;jettySize=auto;html=1;fontSize=16;" parent="6KxkqN7M90k9Lj1RuUj--1" source="6KxkqN7M90k9Lj1RuUj--86" edge="1">
          <mxGeometry relative="1" as="geometry">
            <mxPoint x="162.25" y="794" as="targetPoint" />
          </mxGeometry>
        </mxCell>
        <mxCell id="6KxkqN7M90k9Lj1RuUj--86" value="&lt;font&gt;&lt;br&gt;&lt;br&gt;&lt;font style=&quot;font-size: 18px&quot;&gt;&lt;b&gt;&lt;br&gt;&lt;/b&gt;&lt;/font&gt;&lt;/font&gt;&lt;b style=&quot;&quot;&gt;&lt;span style=&quot;font-size: 18px;&quot;&gt;查询&lt;/span&gt;&lt;font size=&quot;3&quot;&gt;:&lt;/font&gt;&lt;/b&gt;&lt;br&gt;&lt;font style=&quot;font-size: 18px&quot;&gt;Who is from&lt;br&gt;&amp;nbsp;Attorney &lt;br&gt;&amp;nbsp;General ?&lt;br&gt;&lt;br&gt;&lt;br&gt;&lt;/font&gt;" style="whiteSpace=wrap;html=1;fillColor=#dae8fc;strokeColor=#6c8ebf;align=left;rounded=1;" parent="6KxkqN7M90k9Lj1RuUj--1" vertex="1">
          <mxGeometry x="98.25" y="834" width="128" height="89" as="geometry" />
        </mxCell>
        <mxCell id="6KxkqN7M90k9Lj1RuUj--87" value="&lt;font style=&quot;font-size: 6px&quot;&gt;&lt;b&gt;bos&amp;nbsp; &amp;nbsp;q1&amp;nbsp; &amp;nbsp; &amp;nbsp;...&amp;nbsp; &amp;nbsp; &amp;nbsp;qn&amp;nbsp; &amp;nbsp;sep&amp;nbsp; &amp;nbsp;bos&amp;nbsp; d1&amp;nbsp; &amp;nbsp; ...&amp;nbsp; &amp;nbsp; dm&amp;nbsp; eos&amp;nbsp; &amp;nbsp;&lt;/b&gt;&lt;/font&gt;" style="text;html=1;align=left;verticalAlign=middle;resizable=0;points=[];autosize=1;rounded=1;" parent="6KxkqN7M90k9Lj1RuUj--1" vertex="1">
          <mxGeometry x="95.56" y="772" width="290" height="20" as="geometry" />
        </mxCell>
        <mxCell id="usOy6zRG9W8R6tI-JioP-9" style="edgeStyle=orthogonalEdgeStyle;orthogonalLoop=1;jettySize=auto;html=1;exitX=0.5;exitY=0;exitDx=0;exitDy=0;fontSize=16;" parent="6KxkqN7M90k9Lj1RuUj--1" source="6KxkqN7M90k9Lj1RuUj--93" edge="1">
          <mxGeometry relative="1" as="geometry">
            <mxPoint x="108" y="734" as="targetPoint" />
          </mxGeometry>
        </mxCell>
        <mxCell id="6KxkqN7M90k9Lj1RuUj--93" value="" style="whiteSpace=wrap;html=1;fillColor=#dae8fc;strokeColor=#6c8ebf;rounded=1;" parent="6KxkqN7M90k9Lj1RuUj--1" vertex="1">
          <mxGeometry x="98.5" y="751" width="18" height="20" as="geometry" />
        </mxCell>
        <mxCell id="6KxkqN7M90k9Lj1RuUj--94" value="" style="whiteSpace=wrap;html=1;fillColor=#dae8fc;strokeColor=#6c8ebf;arcSize=0;rounded=1;" parent="6KxkqN7M90k9Lj1RuUj--1" vertex="1">
          <mxGeometry x="126.5" y="751" width="18" height="20" as="geometry" />
        </mxCell>
        <mxCell id="6KxkqN7M90k9Lj1RuUj--95" value="" style="whiteSpace=wrap;html=1;fillColor=#dae8fc;strokeColor=#6c8ebf;rounded=1;" parent="6KxkqN7M90k9Lj1RuUj--1" vertex="1">
          <mxGeometry x="156.5" y="751" width="18" height="20" as="geometry" />
        </mxCell>
        <mxCell id="6KxkqN7M90k9Lj1RuUj--96" value="" style="whiteSpace=wrap;html=1;fillColor=#dae8fc;strokeColor=#6c8ebf;rounded=1;" parent="6KxkqN7M90k9Lj1RuUj--1" vertex="1">
          <mxGeometry x="182.5" y="751" width="18" height="20" as="geometry" />
        </mxCell>
        <mxCell id="6KxkqN7M90k9Lj1RuUj--97" value="" style="whiteSpace=wrap;html=1;fillColor=#dae8fc;strokeColor=#6c8ebf;rounded=1;" parent="6KxkqN7M90k9Lj1RuUj--1" vertex="1">
          <mxGeometry x="208.5" y="751" width="18" height="20" as="geometry" />
        </mxCell>
        <mxCell id="6KxkqN7M90k9Lj1RuUj--98" value="" style="whiteSpace=wrap;html=1;fillColor=#dae8fc;strokeColor=#6c8ebf;arcSize=0;rounded=1;" parent="6KxkqN7M90k9Lj1RuUj--1" vertex="1">
          <mxGeometry x="233.5" y="751" width="18" height="20" as="geometry" />
        </mxCell>
        <mxCell id="6KxkqN7M90k9Lj1RuUj--99" value="" style="whiteSpace=wrap;html=1;fillColor=#dae8fc;strokeColor=#6c8ebf;rounded=1;" parent="6KxkqN7M90k9Lj1RuUj--1" vertex="1">
          <mxGeometry x="258.5" y="751" width="18" height="20" as="geometry" />
        </mxCell>
        <mxCell id="6KxkqN7M90k9Lj1RuUj--100" value="" style="whiteSpace=wrap;html=1;fillColor=#dae8fc;strokeColor=#6c8ebf;rounded=1;" parent="6KxkqN7M90k9Lj1RuUj--1" vertex="1">
          <mxGeometry x="286.5" y="751" width="18" height="20" as="geometry" />
        </mxCell>
        <mxCell id="6KxkqN7M90k9Lj1RuUj--101" value="" style="whiteSpace=wrap;html=1;fillColor=#dae8fc;strokeColor=#6c8ebf;rounded=1;" parent="6KxkqN7M90k9Lj1RuUj--1" vertex="1">
          <mxGeometry x="310.62" y="751" width="18" height="20" as="geometry" />
        </mxCell>
        <mxCell id="6KxkqN7M90k9Lj1RuUj--102" value="" style="whiteSpace=wrap;html=1;fillColor=#dae8fc;strokeColor=#6c8ebf;rounded=1;" parent="6KxkqN7M90k9Lj1RuUj--1" vertex="1">
          <mxGeometry x="336.5" y="751" width="18" height="20" as="geometry" />
        </mxCell>
        <mxCell id="0vAuht8NElmBegkXjj2U-5" style="edgeStyle=orthogonalEdgeStyle;curved=0;rounded=1;sketch=0;orthogonalLoop=1;jettySize=auto;html=1;entryX=-0.007;entryY=0.691;entryDx=0;entryDy=0;entryPerimeter=0;" parent="6KxkqN7M90k9Lj1RuUj--1" source="6KxkqN7M90k9Lj1RuUj--114" target="S8OJNKqdoQRrh8NZsohx-4" edge="1">
          <mxGeometry relative="1" as="geometry" />
        </mxCell>
        <mxCell id="6KxkqN7M90k9Lj1RuUj--114" value="" style="whiteSpace=wrap;html=1;gradientColor=#ffffff;fillColor=none;strokeColor=#3399FF;rounded=1;" parent="6KxkqN7M90k9Lj1RuUj--1" vertex="1">
          <mxGeometry x="70.56" y="544" width="305" height="184" as="geometry" />
        </mxCell>
        <mxCell id="6KxkqN7M90k9Lj1RuUj--131" value="&lt;font style=&quot;font-size: 6px&quot;&gt;&lt;b&gt;bos&amp;nbsp; &amp;nbsp;s1&amp;nbsp; &amp;nbsp;s2&amp;nbsp; &amp;nbsp; ...&amp;nbsp; &amp;nbsp; &amp;nbsp;st&amp;nbsp; &amp;nbsp; &amp;nbsp;sep&amp;nbsp;&amp;nbsp;&lt;/b&gt;&lt;/font&gt;" style="text;html=1;align=left;verticalAlign=middle;resizable=0;points=[];autosize=1;rounded=1;" parent="6KxkqN7M90k9Lj1RuUj--1" vertex="1">
          <mxGeometry x="536.5" y="772" width="180" height="20" as="geometry" />
        </mxCell>
        <mxCell id="6KxkqN7M90k9Lj1RuUj--133" value="" style="whiteSpace=wrap;html=1;fillColor=#fff2cc;strokeColor=#d6b656;gradientColor=#ffd966;rounded=1;" parent="6KxkqN7M90k9Lj1RuUj--1" vertex="1">
          <mxGeometry x="140.75" y="288" width="30" height="30" as="geometry" />
        </mxCell>
        <mxCell id="6KxkqN7M90k9Lj1RuUj--134" value="" style="whiteSpace=wrap;html=1;fillColor=#f5f5f5;strokeColor=#666666;gradientColor=#b3b3b3;rounded=1;" parent="6KxkqN7M90k9Lj1RuUj--1" vertex="1">
          <mxGeometry x="191.75" y="288" width="30" height="30" as="geometry" />
        </mxCell>
        <mxCell id="6KxkqN7M90k9Lj1RuUj--135" value="" style="whiteSpace=wrap;html=1;fillColor=#f5f5f5;strokeColor=#666666;gradientColor=#b3b3b3;rounded=1;" parent="6KxkqN7M90k9Lj1RuUj--1" vertex="1">
          <mxGeometry x="243.75" y="288" width="30" height="30" as="geometry" />
        </mxCell>
        <mxCell id="6KxkqN7M90k9Lj1RuUj--136" value="" style="whiteSpace=wrap;html=1;fillColor=#ffcd28;strokeColor=#d79b00;gradientColor=#ffa500;rounded=1;" parent="6KxkqN7M90k9Lj1RuUj--1" vertex="1">
          <mxGeometry x="293.75" y="288" width="30" height="30" as="geometry" />
        </mxCell>
        <mxCell id="6KxkqN7M90k9Lj1RuUj--143" value="" style="endArrow=none;html=1;" parent="6KxkqN7M90k9Lj1RuUj--1" edge="1">
          <mxGeometry width="50" height="50" relative="1" as="geometry">
            <mxPoint x="168.25" y="430" as="sourcePoint" />
            <mxPoint x="222" y="430" as="targetPoint" />
          </mxGeometry>
        </mxCell>
        <mxCell id="6KxkqN7M90k9Lj1RuUj--144" value="" style="whiteSpace=wrap;html=1;strokeColor=#82b366;fillColor=#d5e8d4;rounded=1;" parent="6KxkqN7M90k9Lj1RuUj--1" vertex="1">
          <mxGeometry x="178.25" y="419" width="5" height="10" as="geometry" />
        </mxCell>
        <mxCell id="6KxkqN7M90k9Lj1RuUj--145" value="" style="whiteSpace=wrap;html=1;strokeColor=#82b366;fillColor=#d5e8d4;rounded=1;" parent="6KxkqN7M90k9Lj1RuUj--1" vertex="1">
          <mxGeometry x="183.25" y="399" width="5" height="30" as="geometry" />
        </mxCell>
        <mxCell id="6KxkqN7M90k9Lj1RuUj--146" value="" style="whiteSpace=wrap;html=1;strokeColor=#82b366;fillColor=#d5e8d4;rounded=1;" parent="6KxkqN7M90k9Lj1RuUj--1" vertex="1">
          <mxGeometry x="188.25" y="414" width="5" height="15" as="geometry" />
        </mxCell>
        <mxCell id="6KxkqN7M90k9Lj1RuUj--147" value="" style="whiteSpace=wrap;html=1;strokeColor=#82b366;fillColor=#d5e8d4;rounded=1;" parent="6KxkqN7M90k9Lj1RuUj--1" vertex="1">
          <mxGeometry x="193.25" y="389" width="5" height="40" as="geometry" />
        </mxCell>
        <mxCell id="6KxkqN7M90k9Lj1RuUj--148" value="" style="whiteSpace=wrap;html=1;strokeColor=#82b366;fillColor=#d5e8d4;rounded=1;" parent="6KxkqN7M90k9Lj1RuUj--1" vertex="1">
          <mxGeometry x="199.25" y="404" width="5" height="25" as="geometry" />
        </mxCell>
        <mxCell id="6KxkqN7M90k9Lj1RuUj--165" value="&lt;span style=&quot;font-size: 18px;&quot;&gt;&lt;b&gt;摘要模块&lt;/b&gt;&lt;/span&gt;" style="text;html=1;resizable=0;autosize=1;align=center;verticalAlign=middle;points=[];fillColor=none;strokeColor=none;dashed=1;rounded=1;" parent="6KxkqN7M90k9Lj1RuUj--1" vertex="1">
          <mxGeometry x="455" y="490" width="90" height="20" as="geometry" />
        </mxCell>
        <mxCell id="6KxkqN7M90k9Lj1RuUj--166" value="&lt;font style=&quot;font-size: 18px&quot;&gt;$$P_{answer}^{start}$$&lt;/font&gt;" style="text;html=1;align=center;verticalAlign=middle;resizable=0;points=[];autosize=1;rounded=1;" parent="6KxkqN7M90k9Lj1RuUj--1" vertex="1">
          <mxGeometry x="48.25" y="387.5" width="200" height="20" as="geometry" />
        </mxCell>
        <mxCell id="6KxkqN7M90k9Lj1RuUj--167" value="&lt;font style=&quot;font-size: 18px&quot;&gt;$$P_{answer}^{end}$$&lt;/font&gt;" style="text;html=1;resizable=0;autosize=1;align=center;verticalAlign=middle;points=[];fillColor=none;strokeColor=none;rounded=1;" parent="6KxkqN7M90k9Lj1RuUj--1" vertex="1">
          <mxGeometry x="213.5" y="390.5" width="200" height="20" as="geometry" />
        </mxCell>
        <mxCell id="6KxkqN7M90k9Lj1RuUj--168" value="&lt;font style=&quot;font-size: 18px&quot;&gt;$$P(target_{i})$$&lt;/font&gt;" style="text;html=1;resizable=0;autosize=1;align=center;verticalAlign=middle;points=[];fillColor=none;strokeColor=none;rounded=1;" parent="6KxkqN7M90k9Lj1RuUj--1" vertex="1">
          <mxGeometry x="570" y="384" width="150" height="20" as="geometry" />
        </mxCell>
        <mxCell id="6KxkqN7M90k9Lj1RuUj--176" value="" style="ellipse;whiteSpace=wrap;html=1;aspect=fixed;fillColor=#f5f5f5;fontSize=16;gradientColor=#b3b3b3;strokeColor=#666666;rounded=1;" parent="6KxkqN7M90k9Lj1RuUj--1" vertex="1">
          <mxGeometry x="264.25" y="971" width="25" height="25" as="geometry" />
        </mxCell>
        <mxCell id="6KxkqN7M90k9Lj1RuUj--177" value="" style="ellipse;whiteSpace=wrap;html=1;aspect=fixed;fillColor=#dae8fc;fontSize=16;gradientColor=#7ea6e0;strokeColor=#6c8ebf;rounded=1;" parent="6KxkqN7M90k9Lj1RuUj--1" vertex="1">
          <mxGeometry x="242" y="1008" width="25" height="25" as="geometry" />
        </mxCell>
        <mxCell id="6KxkqN7M90k9Lj1RuUj--178" value="" style="ellipse;whiteSpace=wrap;html=1;aspect=fixed;fillColor=#d5e8d4;fontSize=16;gradientColor=#97d077;strokeColor=#82b366;rounded=1;" parent="6KxkqN7M90k9Lj1RuUj--1" vertex="1">
          <mxGeometry x="264.25" y="1050" width="25" height="25" as="geometry" />
        </mxCell>
        <mxCell id="99Q3Eupq_cFcsktWPw3N-0" value="&lt;span style=&quot;color: rgb(0 , 0 , 0) ; font-family: &amp;#34;helvetica&amp;#34; ; font-style: normal ; font-weight: 400 ; letter-spacing: normal ; text-align: center ; text-indent: 0px ; text-transform: none ; word-spacing: 0px ; background-color: rgb(248 , 249 , 250) ; display: inline ; float: none&quot;&gt;&lt;font style=&quot;font-size: 18px&quot;&gt;Jason James&lt;/font&gt;&lt;/span&gt;" style="text;whiteSpace=wrap;html=1;fontSize=16;rounded=1;" parent="6KxkqN7M90k9Lj1RuUj--1" vertex="1">
          <mxGeometry x="291.5" y="968.5" width="130" height="30" as="geometry" />
        </mxCell>
        <mxCell id="_Q10psuRQLJJDG5r6k7m-0" value="&lt;span style=&quot;color: rgb(0 , 0 , 0) ; font-family: &amp;#34;helvetica&amp;#34; ; font-style: normal ; font-weight: 400 ; letter-spacing: normal ; text-align: center ; text-indent: 0px ; text-transform: none ; word-spacing: 0px ; background-color: rgb(248 , 249 , 250) ; display: inline ; float: none&quot;&gt;&lt;font style=&quot;font-size: 18px&quot;&gt;been charged with&amp;nbsp;&lt;/font&gt;&lt;/span&gt;" style="text;whiteSpace=wrap;html=1;fontSize=16;rounded=1;" parent="6KxkqN7M90k9Lj1RuUj--1" vertex="1">
          <mxGeometry x="270" y="996" width="129" height="30" as="geometry" />
        </mxCell>
        <mxCell id="-LnaQjLi3yZbbVHMJ9hH-0" value="&lt;span style=&quot;color: rgb(0 , 0 , 0) ; font-family: &amp;#34;helvetica&amp;#34; ; font-style: normal ; font-weight: 400 ; letter-spacing: normal ; text-align: center ; text-indent: 0px ; text-transform: none ; word-spacing: 0px ; background-color: rgb(248 , 249 , 250) ; display: inline ; float: none&quot;&gt;&lt;font style=&quot;font-size: 18px&quot;&gt;manslaughter&lt;/font&gt;&lt;/span&gt;" style="text;whiteSpace=wrap;html=1;fontSize=16;rounded=1;" parent="6KxkqN7M90k9Lj1RuUj--1" vertex="1">
          <mxGeometry x="293.5" y="1045" width="100" height="30" as="geometry" />
        </mxCell>
        <mxCell id="Zs1HAmu2zwIQlZjoMgUZ-7" value="" style="endArrow=classic;html=1;fontSize=16;" parent="6KxkqN7M90k9Lj1RuUj--1" edge="1">
          <mxGeometry width="50" height="50" relative="1" as="geometry">
            <mxPoint x="357" y="934" as="sourcePoint" />
            <mxPoint x="651" y="934" as="targetPoint" />
          </mxGeometry>
        </mxCell>
        <mxCell id="Zs1HAmu2zwIQlZjoMgUZ-8" value="" style="endArrow=none;html=1;fontSize=16;entryX=0.684;entryY=0.777;entryDx=0;entryDy=0;entryPerimeter=0;" parent="6KxkqN7M90k9Lj1RuUj--1" target="6KxkqN7M90k9Lj1RuUj--9" edge="1">
          <mxGeometry width="50" height="50" relative="1" as="geometry">
            <mxPoint x="357.5" y="934" as="sourcePoint" />
            <mxPoint x="407.5" y="884" as="targetPoint" />
          </mxGeometry>
        </mxCell>
        <mxCell id="S8OJNKqdoQRrh8NZsohx-0" value="&lt;font style=&quot;font-size: 18px&quot;&gt;&lt;b&gt;Multi-Head Attention&lt;/b&gt;&lt;/font&gt;" style="whiteSpace=wrap;html=1;fillColor=#fff2cc;strokeColor=#d6b656;rounded=1;" parent="6KxkqN7M90k9Lj1RuUj--1" vertex="1">
          <mxGeometry x="119.31" y="684" width="200" height="33" as="geometry" />
        </mxCell>
        <mxCell id="S8OJNKqdoQRrh8NZsohx-1" value="&lt;font style=&quot;font-size: 18px&quot;&gt;&lt;b&gt;Add &amp;amp; Norm&lt;/b&gt;&lt;/font&gt;" style="whiteSpace=wrap;html=1;fillColor=#f5f5f5;strokeColor=#666666;fontColor=#333333;rounded=1;" parent="6KxkqN7M90k9Lj1RuUj--1" vertex="1">
          <mxGeometry x="119.31" y="640" width="200" height="33" as="geometry" />
        </mxCell>
        <mxCell id="S8OJNKqdoQRrh8NZsohx-2" value="&lt;font style=&quot;font-size: 18px&quot;&gt;&lt;b&gt;Feed Forward&lt;/b&gt;&lt;/font&gt;" style="whiteSpace=wrap;html=1;fillColor=#fff2cc;strokeColor=#d6b656;rounded=1;" parent="6KxkqN7M90k9Lj1RuUj--1" vertex="1">
          <mxGeometry x="120" y="597" width="200" height="33" as="geometry" />
        </mxCell>
        <mxCell id="9gOhwHK5rS1fbylUewf2-8" style="edgeStyle=orthogonalEdgeStyle;curved=0;rounded=1;sketch=0;orthogonalLoop=1;jettySize=auto;html=1;" parent="6KxkqN7M90k9Lj1RuUj--1" source="S8OJNKqdoQRrh8NZsohx-3" edge="1">
          <mxGeometry relative="1" as="geometry">
            <mxPoint x="217" y="530" as="targetPoint" />
          </mxGeometry>
        </mxCell>
        <mxCell id="S8OJNKqdoQRrh8NZsohx-3" value="&lt;font style=&quot;font-size: 18px&quot;&gt;&lt;b&gt;Add &amp;amp; Norm&lt;/b&gt;&lt;/font&gt;" style="whiteSpace=wrap;html=1;fillColor=#f5f5f5;strokeColor=#666666;fontColor=#333333;rounded=1;" parent="6KxkqN7M90k9Lj1RuUj--1" vertex="1">
          <mxGeometry x="117" y="554" width="200" height="33" as="geometry" />
        </mxCell>
        <mxCell id="S8OJNKqdoQRrh8NZsohx-4" value="" style="whiteSpace=wrap;html=1;gradientColor=#ffffff;fillColor=none;strokeColor=#3399FF;rounded=1;" parent="6KxkqN7M90k9Lj1RuUj--1" vertex="1">
          <mxGeometry x="455" y="544" width="305" height="184" as="geometry" />
        </mxCell>
        <mxCell id="S8OJNKqdoQRrh8NZsohx-5" value="&lt;font style=&quot;font-size: 18px&quot;&gt;&lt;b&gt;Multi-Head(Mask) Attention&lt;/b&gt;&lt;/font&gt;" style="whiteSpace=wrap;html=1;fillColor=#fff2cc;strokeColor=#d6b656;rounded=1;" parent="6KxkqN7M90k9Lj1RuUj--1" vertex="1">
          <mxGeometry x="506.5" y="680" width="200" height="40" as="geometry" />
        </mxCell>
        <mxCell id="S8OJNKqdoQRrh8NZsohx-6" value="&lt;font style=&quot;font-size: 18px&quot;&gt;&lt;b&gt;Add &amp;amp; Norm&lt;/b&gt;&lt;/font&gt;" style="whiteSpace=wrap;html=1;fillColor=#f5f5f5;strokeColor=#666666;fontColor=#333333;rounded=1;" parent="6KxkqN7M90k9Lj1RuUj--1" vertex="1">
          <mxGeometry x="506.5" y="640" width="200" height="33" as="geometry" />
        </mxCell>
        <mxCell id="S8OJNKqdoQRrh8NZsohx-7" value="&lt;font style=&quot;font-size: 18px&quot;&gt;&lt;b&gt;Feed Forward&lt;/b&gt;&lt;/font&gt;" style="whiteSpace=wrap;html=1;fillColor=#fff2cc;strokeColor=#d6b656;rounded=1;" parent="6KxkqN7M90k9Lj1RuUj--1" vertex="1">
          <mxGeometry x="506.5" y="597" width="200" height="33" as="geometry" />
        </mxCell>
        <mxCell id="9gOhwHK5rS1fbylUewf2-9" style="edgeStyle=orthogonalEdgeStyle;curved=0;rounded=1;sketch=0;orthogonalLoop=1;jettySize=auto;html=1;" parent="6KxkqN7M90k9Lj1RuUj--1" source="S8OJNKqdoQRrh8NZsohx-8" edge="1">
          <mxGeometry relative="1" as="geometry">
            <mxPoint x="606.5" y="530" as="targetPoint" />
          </mxGeometry>
        </mxCell>
        <mxCell id="S8OJNKqdoQRrh8NZsohx-8" value="&lt;font style=&quot;font-size: 18px&quot;&gt;&lt;b&gt;Add &amp;amp; Norm&lt;/b&gt;&lt;/font&gt;" style="whiteSpace=wrap;html=1;fillColor=#f5f5f5;strokeColor=#666666;fontColor=#333333;rounded=1;" parent="6KxkqN7M90k9Lj1RuUj--1" vertex="1">
          <mxGeometry x="506.5" y="554" width="200" height="33" as="geometry" />
        </mxCell>
        <mxCell id="usOy6zRG9W8R6tI-JioP-10" style="edgeStyle=orthogonalEdgeStyle;orthogonalLoop=1;jettySize=auto;html=1;exitX=0.5;exitY=0;exitDx=0;exitDy=0;fontSize=16;" parent="6KxkqN7M90k9Lj1RuUj--1" edge="1">
          <mxGeometry relative="1" as="geometry">
            <mxPoint x="136.5" y="734" as="targetPoint" />
            <mxPoint x="136" y="751" as="sourcePoint" />
          </mxGeometry>
        </mxCell>
        <mxCell id="usOy6zRG9W8R6tI-JioP-11" style="edgeStyle=orthogonalEdgeStyle;orthogonalLoop=1;jettySize=auto;html=1;exitX=0.5;exitY=0;exitDx=0;exitDy=0;fontSize=16;" parent="6KxkqN7M90k9Lj1RuUj--1" edge="1">
          <mxGeometry relative="1" as="geometry">
            <mxPoint x="165.5" y="734" as="targetPoint" />
            <mxPoint x="165" y="751" as="sourcePoint" />
          </mxGeometry>
        </mxCell>
        <mxCell id="usOy6zRG9W8R6tI-JioP-12" style="edgeStyle=orthogonalEdgeStyle;orthogonalLoop=1;jettySize=auto;html=1;exitX=0.5;exitY=0;exitDx=0;exitDy=0;fontSize=16;" parent="6KxkqN7M90k9Lj1RuUj--1" edge="1">
          <mxGeometry relative="1" as="geometry">
            <mxPoint x="190.75" y="734" as="targetPoint" />
            <mxPoint x="190.25" y="751" as="sourcePoint" />
          </mxGeometry>
        </mxCell>
        <mxCell id="usOy6zRG9W8R6tI-JioP-13" style="edgeStyle=orthogonalEdgeStyle;orthogonalLoop=1;jettySize=auto;html=1;exitX=0.5;exitY=0;exitDx=0;exitDy=0;fontSize=16;" parent="6KxkqN7M90k9Lj1RuUj--1" edge="1">
          <mxGeometry relative="1" as="geometry">
            <mxPoint x="216.75" y="734" as="targetPoint" />
            <mxPoint x="216.25" y="751" as="sourcePoint" />
          </mxGeometry>
        </mxCell>
        <mxCell id="usOy6zRG9W8R6tI-JioP-14" style="edgeStyle=orthogonalEdgeStyle;orthogonalLoop=1;jettySize=auto;html=1;exitX=0.5;exitY=0;exitDx=0;exitDy=0;fontSize=16;" parent="6KxkqN7M90k9Lj1RuUj--1" edge="1">
          <mxGeometry relative="1" as="geometry">
            <mxPoint x="242.5" y="734" as="targetPoint" />
            <mxPoint x="242" y="751" as="sourcePoint" />
          </mxGeometry>
        </mxCell>
        <mxCell id="usOy6zRG9W8R6tI-JioP-15" style="edgeStyle=orthogonalEdgeStyle;orthogonalLoop=1;jettySize=auto;html=1;exitX=0.5;exitY=0;exitDx=0;exitDy=0;fontSize=16;" parent="6KxkqN7M90k9Lj1RuUj--1" edge="1">
          <mxGeometry relative="1" as="geometry">
            <mxPoint x="267.5" y="734" as="targetPoint" />
            <mxPoint x="267" y="751" as="sourcePoint" />
          </mxGeometry>
        </mxCell>
        <mxCell id="usOy6zRG9W8R6tI-JioP-16" style="edgeStyle=orthogonalEdgeStyle;orthogonalLoop=1;jettySize=auto;html=1;exitX=0.5;exitY=0;exitDx=0;exitDy=0;fontSize=16;" parent="6KxkqN7M90k9Lj1RuUj--1" edge="1">
          <mxGeometry relative="1" as="geometry">
            <mxPoint x="295.5" y="734" as="targetPoint" />
            <mxPoint x="295" y="751" as="sourcePoint" />
          </mxGeometry>
        </mxCell>
        <mxCell id="usOy6zRG9W8R6tI-JioP-17" style="edgeStyle=orthogonalEdgeStyle;orthogonalLoop=1;jettySize=auto;html=1;exitX=0.5;exitY=0;exitDx=0;exitDy=0;fontSize=16;" parent="6KxkqN7M90k9Lj1RuUj--1" edge="1">
          <mxGeometry relative="1" as="geometry">
            <mxPoint x="319.81" y="734" as="targetPoint" />
            <mxPoint x="319.31" y="751" as="sourcePoint" />
          </mxGeometry>
        </mxCell>
        <mxCell id="usOy6zRG9W8R6tI-JioP-18" style="edgeStyle=orthogonalEdgeStyle;orthogonalLoop=1;jettySize=auto;html=1;exitX=0.5;exitY=0;exitDx=0;exitDy=0;fontSize=16;" parent="6KxkqN7M90k9Lj1RuUj--1" edge="1">
          <mxGeometry relative="1" as="geometry">
            <mxPoint x="345.5" y="734" as="targetPoint" />
            <mxPoint x="345" y="751" as="sourcePoint" />
          </mxGeometry>
        </mxCell>
        <mxCell id="9fYPl-gzezHNJvv1755q-0" value="" style="whiteSpace=wrap;html=1;fillColor=#dae8fc;strokeColor=#6c8ebf;rounded=1;" parent="6KxkqN7M90k9Lj1RuUj--1" vertex="1">
          <mxGeometry x="536" y="751" width="18" height="20" as="geometry" />
        </mxCell>
        <mxCell id="9fYPl-gzezHNJvv1755q-1" value="" style="whiteSpace=wrap;html=1;fillColor=#dae8fc;strokeColor=#6c8ebf;rounded=1;" parent="6KxkqN7M90k9Lj1RuUj--1" vertex="1">
          <mxGeometry x="562" y="751" width="18" height="20" as="geometry" />
        </mxCell>
        <mxCell id="9fYPl-gzezHNJvv1755q-2" value="" style="whiteSpace=wrap;html=1;fillColor=#dae8fc;strokeColor=#6c8ebf;rounded=1;" parent="6KxkqN7M90k9Lj1RuUj--1" vertex="1">
          <mxGeometry x="587.37" y="751" width="18" height="20" as="geometry" />
        </mxCell>
        <mxCell id="9fYPl-gzezHNJvv1755q-4" value="" style="whiteSpace=wrap;html=1;fillColor=#dae8fc;strokeColor=#6c8ebf;rounded=1;" parent="6KxkqN7M90k9Lj1RuUj--1" vertex="1">
          <mxGeometry x="640" y="751" width="18" height="20" as="geometry" />
        </mxCell>
        <mxCell id="9fYPl-gzezHNJvv1755q-5" value="" style="whiteSpace=wrap;html=1;fillColor=#dae8fc;strokeColor=#6c8ebf;rounded=1;" parent="6KxkqN7M90k9Lj1RuUj--1" vertex="1">
          <mxGeometry x="668" y="751" width="18" height="20" as="geometry" />
        </mxCell>
        <mxCell id="9fYPl-gzezHNJvv1755q-10" style="edgeStyle=orthogonalEdgeStyle;orthogonalLoop=1;jettySize=auto;html=1;exitX=0.5;exitY=0;exitDx=0;exitDy=0;fontSize=16;" parent="6KxkqN7M90k9Lj1RuUj--1" edge="1">
          <mxGeometry relative="1" as="geometry">
            <mxPoint x="545" y="734" as="targetPoint" />
            <mxPoint x="544.5" y="751" as="sourcePoint" />
          </mxGeometry>
        </mxCell>
        <mxCell id="9fYPl-gzezHNJvv1755q-11" style="edgeStyle=orthogonalEdgeStyle;orthogonalLoop=1;jettySize=auto;html=1;exitX=0.5;exitY=0;exitDx=0;exitDy=0;fontSize=16;" parent="6KxkqN7M90k9Lj1RuUj--1" edge="1">
          <mxGeometry relative="1" as="geometry">
            <mxPoint x="571" y="734" as="targetPoint" />
            <mxPoint x="570.5" y="751" as="sourcePoint" />
          </mxGeometry>
        </mxCell>
        <mxCell id="9fYPl-gzezHNJvv1755q-12" value="" style="whiteSpace=wrap;html=1;fillColor=#dae8fc;strokeColor=#6c8ebf;rounded=1;" parent="6KxkqN7M90k9Lj1RuUj--1" vertex="1">
          <mxGeometry x="612.37" y="751" width="18" height="20" as="geometry" />
        </mxCell>
        <mxCell id="9fYPl-gzezHNJvv1755q-18" style="edgeStyle=orthogonalEdgeStyle;orthogonalLoop=1;jettySize=auto;html=1;exitX=0.5;exitY=0;exitDx=0;exitDy=0;fontSize=16;" parent="6KxkqN7M90k9Lj1RuUj--1" edge="1">
          <mxGeometry relative="1" as="geometry">
            <mxPoint x="596.37" y="734" as="targetPoint" />
            <mxPoint x="595.87" y="751" as="sourcePoint" />
          </mxGeometry>
        </mxCell>
        <mxCell id="9fYPl-gzezHNJvv1755q-21" style="edgeStyle=orthogonalEdgeStyle;orthogonalLoop=1;jettySize=auto;html=1;exitX=0.5;exitY=0;exitDx=0;exitDy=0;fontSize=16;" parent="6KxkqN7M90k9Lj1RuUj--1" edge="1">
          <mxGeometry relative="1" as="geometry">
            <mxPoint x="621.75" y="734" as="targetPoint" />
            <mxPoint x="621.25" y="751" as="sourcePoint" />
          </mxGeometry>
        </mxCell>
        <mxCell id="9fYPl-gzezHNJvv1755q-22" style="edgeStyle=orthogonalEdgeStyle;orthogonalLoop=1;jettySize=auto;html=1;exitX=0.5;exitY=0;exitDx=0;exitDy=0;fontSize=16;" parent="6KxkqN7M90k9Lj1RuUj--1" edge="1">
          <mxGeometry relative="1" as="geometry">
            <mxPoint x="649" y="734" as="targetPoint" />
            <mxPoint x="648.5" y="751" as="sourcePoint" />
          </mxGeometry>
        </mxCell>
        <mxCell id="9fYPl-gzezHNJvv1755q-23" style="edgeStyle=orthogonalEdgeStyle;orthogonalLoop=1;jettySize=auto;html=1;exitX=0.5;exitY=0;exitDx=0;exitDy=0;fontSize=16;" parent="6KxkqN7M90k9Lj1RuUj--1" edge="1">
          <mxGeometry relative="1" as="geometry">
            <mxPoint x="677" y="734" as="targetPoint" />
            <mxPoint x="676.5" y="751" as="sourcePoint" />
          </mxGeometry>
        </mxCell>
        <mxCell id="9fYPl-gzezHNJvv1755q-27" value="" style="whiteSpace=wrap;html=1;strokeColor=#82b366;fillColor=#d5e8d4;rounded=1;" parent="6KxkqN7M90k9Lj1RuUj--1" vertex="1">
          <mxGeometry x="205.25" y="411" width="5" height="18" as="geometry" />
        </mxCell>
        <mxCell id="9fYPl-gzezHNJvv1755q-34" value="" style="endArrow=none;html=1;" parent="6KxkqN7M90k9Lj1RuUj--1" edge="1">
          <mxGeometry width="50" height="50" relative="1" as="geometry">
            <mxPoint x="241.25" y="430" as="sourcePoint" />
            <mxPoint x="295" y="430" as="targetPoint" />
          </mxGeometry>
        </mxCell>
        <mxCell id="9fYPl-gzezHNJvv1755q-35" value="" style="whiteSpace=wrap;html=1;strokeColor=#82b366;fillColor=#d5e8d4;rounded=1;" parent="6KxkqN7M90k9Lj1RuUj--1" vertex="1">
          <mxGeometry x="251.25" y="417" width="5" height="12" as="geometry" />
        </mxCell>
        <mxCell id="9fYPl-gzezHNJvv1755q-36" value="" style="whiteSpace=wrap;html=1;strokeColor=#82b366;fillColor=#d5e8d4;rounded=1;" parent="6KxkqN7M90k9Lj1RuUj--1" vertex="1">
          <mxGeometry x="256.25" y="414" width="5" height="15" as="geometry" />
        </mxCell>
        <mxCell id="9fYPl-gzezHNJvv1755q-37" value="" style="whiteSpace=wrap;html=1;strokeColor=#82b366;fillColor=#d5e8d4;rounded=1;" parent="6KxkqN7M90k9Lj1RuUj--1" vertex="1">
          <mxGeometry x="261.25" y="399" width="5" height="30" as="geometry" />
        </mxCell>
        <mxCell id="9fYPl-gzezHNJvv1755q-38" value="" style="whiteSpace=wrap;html=1;strokeColor=#82b366;fillColor=#d5e8d4;rounded=1;" parent="6KxkqN7M90k9Lj1RuUj--1" vertex="1">
          <mxGeometry x="266.25" y="404" width="5" height="25" as="geometry" />
        </mxCell>
        <mxCell id="9fYPl-gzezHNJvv1755q-39" value="" style="whiteSpace=wrap;html=1;strokeColor=#82b366;fillColor=#d5e8d4;rounded=1;" parent="6KxkqN7M90k9Lj1RuUj--1" vertex="1">
          <mxGeometry x="272.25" y="389" width="5" height="40" as="geometry" />
        </mxCell>
        <mxCell id="9fYPl-gzezHNJvv1755q-40" value="" style="whiteSpace=wrap;html=1;strokeColor=#82b366;fillColor=#d5e8d4;rounded=1;" parent="6KxkqN7M90k9Lj1RuUj--1" vertex="1">
          <mxGeometry x="278.25" y="419" width="5" height="10" as="geometry" />
        </mxCell>
        <mxCell id="9fYPl-gzezHNJvv1755q-49" value="&lt;font style=&quot;font-size: 18px&quot;&gt;James&lt;/font&gt;" style="text;html=1;resizable=0;autosize=1;align=center;verticalAlign=middle;points=[];fillColor=none;strokeColor=none;fontSize=16;rounded=1;" parent="6KxkqN7M90k9Lj1RuUj--1" vertex="1">
          <mxGeometry x="225.5" y="321" width="70" height="20" as="geometry" />
        </mxCell>
        <mxCell id="kGFu82vN4zffjt_7wWij-1" value="&lt;font style=&quot;font-size: 18px&quot;&gt;c&lt;/font&gt;" style="text;html=1;resizable=0;autosize=1;align=center;verticalAlign=middle;points=[];fillColor=none;strokeColor=none;fontSize=16;rounded=1;" parent="6KxkqN7M90k9Lj1RuUj--1" vertex="1">
          <mxGeometry x="146.75" y="320" width="20" height="20" as="geometry" />
        </mxCell>
        <mxCell id="umtMGm41OY7JnBmVBeyT-0" value="&lt;font style=&quot;font-size: 18px&quot;&gt;c&#39;&lt;/font&gt;" style="text;html=1;resizable=0;autosize=1;align=center;verticalAlign=middle;points=[];fillColor=none;strokeColor=none;fontSize=16;rounded=1;" parent="6KxkqN7M90k9Lj1RuUj--1" vertex="1">
          <mxGeometry x="293.25" y="320" width="30" height="20" as="geometry" />
        </mxCell>
        <mxCell id="umtMGm41OY7JnBmVBeyT-1" value="" style="endArrow=none;html=1;" parent="6KxkqN7M90k9Lj1RuUj--1" edge="1">
          <mxGeometry width="50" height="50" relative="1" as="geometry">
            <mxPoint x="564.25" y="426" as="sourcePoint" />
            <mxPoint x="618" y="426" as="targetPoint" />
          </mxGeometry>
        </mxCell>
        <mxCell id="umtMGm41OY7JnBmVBeyT-2" value="" style="whiteSpace=wrap;html=1;strokeColor=#82b366;fillColor=#d5e8d4;rounded=1;" parent="6KxkqN7M90k9Lj1RuUj--1" vertex="1">
          <mxGeometry x="573.25" y="417" width="5" height="8" as="geometry" />
        </mxCell>
        <mxCell id="umtMGm41OY7JnBmVBeyT-3" value="" style="whiteSpace=wrap;html=1;strokeColor=#82b366;fillColor=#d5e8d4;rounded=1;" parent="6KxkqN7M90k9Lj1RuUj--1" vertex="1">
          <mxGeometry x="578.25" y="397" width="5" height="28" as="geometry" />
        </mxCell>
        <mxCell id="umtMGm41OY7JnBmVBeyT-4" value="" style="whiteSpace=wrap;html=1;strokeColor=#82b366;fillColor=#d5e8d4;rounded=1;" parent="6KxkqN7M90k9Lj1RuUj--1" vertex="1">
          <mxGeometry x="583.25" y="385" width="5" height="40" as="geometry" />
        </mxCell>
        <mxCell id="umtMGm41OY7JnBmVBeyT-5" value="" style="whiteSpace=wrap;html=1;strokeColor=#82b366;fillColor=#d5e8d4;rounded=1;" parent="6KxkqN7M90k9Lj1RuUj--1" vertex="1">
          <mxGeometry x="588.25" y="410" width="5" height="15" as="geometry" />
        </mxCell>
        <mxCell id="umtMGm41OY7JnBmVBeyT-6" value="" style="whiteSpace=wrap;html=1;strokeColor=#82b366;fillColor=#d5e8d4;rounded=1;" parent="6KxkqN7M90k9Lj1RuUj--1" vertex="1">
          <mxGeometry x="594.25" y="402" width="5" height="23" as="geometry" />
        </mxCell>
        <mxCell id="umtMGm41OY7JnBmVBeyT-7" value="" style="whiteSpace=wrap;html=1;strokeColor=#82b366;fillColor=#d5e8d4;rounded=1;" parent="6KxkqN7M90k9Lj1RuUj--1" vertex="1">
          <mxGeometry x="599.25" y="410" width="5" height="15" as="geometry" />
        </mxCell>
        <mxCell id="_U_ca107Dku7xIuLwuv_-6" style="edgeStyle=orthogonalEdgeStyle;orthogonalLoop=1;jettySize=auto;html=1;fontSize=16;" parent="6KxkqN7M90k9Lj1RuUj--1" source="umtMGm41OY7JnBmVBeyT-8" edge="1">
          <mxGeometry relative="1" as="geometry">
            <mxPoint x="550.1199999999999" y="312" as="targetPoint" />
          </mxGeometry>
        </mxCell>
        <mxCell id="umtMGm41OY7JnBmVBeyT-8" value="" style="whiteSpace=wrap;html=1;fillColor=#ffe6cc;fontSize=16;strokeColor=#d79b00;rounded=1;" parent="6KxkqN7M90k9Lj1RuUj--1" vertex="1">
          <mxGeometry x="535.12" y="262" width="30" height="30" as="geometry" />
        </mxCell>
        <mxCell id="_U_ca107Dku7xIuLwuv_-11" style="edgeStyle=orthogonalEdgeStyle;orthogonalLoop=1;jettySize=auto;html=1;fontSize=16;" parent="6KxkqN7M90k9Lj1RuUj--1" source="umtMGm41OY7JnBmVBeyT-9" edge="1">
          <mxGeometry relative="1" as="geometry">
            <mxPoint x="655.75" y="312" as="targetPoint" />
          </mxGeometry>
        </mxCell>
        <mxCell id="umtMGm41OY7JnBmVBeyT-9" value="" style="whiteSpace=wrap;html=1;fillColor=#f8cecc;fontSize=16;strokeColor=#b85450;rounded=1;" parent="6KxkqN7M90k9Lj1RuUj--1" vertex="1">
          <mxGeometry x="640.75" y="262" width="30" height="30" as="geometry" />
        </mxCell>
        <mxCell id="qPucoU6n_4LdnSBY8SzJ-1" value="&lt;span style=&quot;color: rgb(0 , 0 , 0) ; font-family: &amp;#34;helvetica&amp;#34; ; font-style: normal ; font-weight: 400 ; letter-spacing: normal ; text-align: left ; text-indent: 0px ; text-transform: none ; word-spacing: 0px ; background-color: rgb(248 , 249 , 250) ; display: inline ; float: none&quot;&gt;&lt;font style=&quot;font-size: 18px&quot;&gt;Jason&lt;/font&gt;&lt;/span&gt;" style="text;whiteSpace=wrap;html=1;fontSize=16;rounded=1;" parent="6KxkqN7M90k9Lj1RuUj--1" vertex="1">
          <mxGeometry x="531.75" y="317" width="47.63" height="24" as="geometry" />
        </mxCell>
        <mxCell id="qPucoU6n_4LdnSBY8SzJ-2" value="&lt;b&gt;&lt;font style=&quot;font-size: 18px&quot;&gt;...&lt;/font&gt;&lt;/b&gt;" style="text;html=1;resizable=0;autosize=1;align=center;verticalAlign=middle;points=[];fillColor=none;strokeColor=none;sketch=0;rounded=1;" parent="6KxkqN7M90k9Lj1RuUj--1" vertex="1">
          <mxGeometry x="590.12" y="321" width="30" height="20" as="geometry" />
        </mxCell>
        <mxCell id="qPucoU6n_4LdnSBY8SzJ-3" value="&lt;font style=&quot;font-size: 18px&quot;&gt;eos&lt;/font&gt;" style="text;html=1;resizable=0;autosize=1;align=center;verticalAlign=middle;points=[];fillColor=none;strokeColor=none;rounded=1;" parent="6KxkqN7M90k9Lj1RuUj--1" vertex="1">
          <mxGeometry x="635.75" y="321" width="40" height="20" as="geometry" />
        </mxCell>
        <mxCell id="_U_ca107Dku7xIuLwuv_-1" value="" style="endArrow=none;html=1;fontSize=16;" parent="6KxkqN7M90k9Lj1RuUj--1" edge="1">
          <mxGeometry width="50" height="50" relative="1" as="geometry">
            <mxPoint x="497.75" y="321" as="sourcePoint" />
            <mxPoint x="497.75" y="302" as="targetPoint" />
          </mxGeometry>
        </mxCell>
        <mxCell id="_U_ca107Dku7xIuLwuv_-3" value="" style="endArrow=classic;html=1;fontSize=16;" parent="6KxkqN7M90k9Lj1RuUj--1" edge="1">
          <mxGeometry width="50" height="50" relative="1" as="geometry">
            <mxPoint x="497.75" y="302" as="sourcePoint" />
            <mxPoint x="527.75" y="292" as="targetPoint" />
          </mxGeometry>
        </mxCell>
        <mxCell id="_U_ca107Dku7xIuLwuv_-8" value="" style="endArrow=none;html=1;fontSize=16;" parent="6KxkqN7M90k9Lj1RuUj--1" edge="1">
          <mxGeometry width="50" height="50" relative="1" as="geometry">
            <mxPoint x="561.75" y="325" as="sourcePoint" />
            <mxPoint x="561.75" y="306" as="targetPoint" />
          </mxGeometry>
        </mxCell>
        <mxCell id="_U_ca107Dku7xIuLwuv_-9" value="" style="endArrow=classic;html=1;fontSize=16;" parent="6KxkqN7M90k9Lj1RuUj--1" edge="1">
          <mxGeometry width="50" height="50" relative="1" as="geometry">
            <mxPoint x="561.75" y="306" as="sourcePoint" />
            <mxPoint x="591.75" y="296" as="targetPoint" />
          </mxGeometry>
        </mxCell>
        <mxCell id="_U_ca107Dku7xIuLwuv_-15" value="&lt;font style=&quot;font-size: 18px&quot;&gt;Jason&lt;/font&gt;" style="text;html=1;resizable=0;autosize=1;align=center;verticalAlign=middle;points=[];fillColor=none;strokeColor=none;fontSize=16;rounded=1;" parent="6KxkqN7M90k9Lj1RuUj--1" vertex="1">
          <mxGeometry x="170.75" y="321" width="60" height="20" as="geometry" />
        </mxCell>
        <mxCell id="_U_ca107Dku7xIuLwuv_-17" value="" style="endArrow=classic;html=1;exitX=0.5;exitY=0.56;exitDx=0;exitDy=0;exitPerimeter=0;" parent="6KxkqN7M90k9Lj1RuUj--1" edge="1">
          <mxGeometry width="50" height="50" relative="1" as="geometry">
            <mxPoint x="263.68000000000006" y="379" as="sourcePoint" />
            <mxPoint x="263.5" y="359" as="targetPoint" />
          </mxGeometry>
        </mxCell>
        <mxCell id="_U_ca107Dku7xIuLwuv_-18" value="" style="endArrow=classic;html=1;exitX=0.5;exitY=0.56;exitDx=0;exitDy=0;exitPerimeter=0;" parent="6KxkqN7M90k9Lj1RuUj--1" edge="1">
          <mxGeometry width="50" height="50" relative="1" as="geometry">
            <mxPoint x="204.43000000000006" y="378" as="sourcePoint" />
            <mxPoint x="204.25" y="358" as="targetPoint" />
          </mxGeometry>
        </mxCell>
        <mxCell id="_U_ca107Dku7xIuLwuv_-20" value="" style="whiteSpace=wrap;html=1;strokeColor=#3399FF;fillColor=none;gradientColor=#ffffff;rounded=1;" parent="6KxkqN7M90k9Lj1RuUj--1" vertex="1">
          <mxGeometry x="471.62" y="256" width="228.25" height="100" as="geometry" />
        </mxCell>
        <mxCell id="_U_ca107Dku7xIuLwuv_-21" value="" style="whiteSpace=wrap;html=1;strokeColor=#3399FF;fillColor=none;gradientColor=#ffffff;rounded=1;" parent="6KxkqN7M90k9Lj1RuUj--1" vertex="1">
          <mxGeometry x="120" y="253" width="228.25" height="100" as="geometry" />
        </mxCell>
        <mxCell id="_U_ca107Dku7xIuLwuv_-28" value="" style="whiteSpace=wrap;html=1;fillColor=#008a00;strokeColor=#005700;fontColor=#ffffff;rounded=1;" parent="6KxkqN7M90k9Lj1RuUj--1" vertex="1">
          <mxGeometry x="238" y="75" width="6" height="35" as="geometry" />
        </mxCell>
        <mxCell id="_U_ca107Dku7xIuLwuv_-29" value="" style="whiteSpace=wrap;html=1;fillColor=#008a00;strokeColor=#005700;fontColor=#ffffff;rounded=1;" parent="6KxkqN7M90k9Lj1RuUj--1" vertex="1">
          <mxGeometry x="218" y="75" width="6" height="35" as="geometry" />
        </mxCell>
        <mxCell id="_U_ca107Dku7xIuLwuv_-30" value="" style="whiteSpace=wrap;html=1;fillColor=#a20025;strokeColor=#6F0000;fontColor=#ffffff;rounded=1;" parent="6KxkqN7M90k9Lj1RuUj--1" vertex="1">
          <mxGeometry x="258" y="75" width="6" height="35" as="geometry" />
        </mxCell>
        <mxCell id="_U_ca107Dku7xIuLwuv_-31" value="" style="whiteSpace=wrap;html=1;fillColor=#a0522d;strokeColor=#6D1F00;fontColor=#ffffff;rounded=1;" parent="6KxkqN7M90k9Lj1RuUj--1" vertex="1">
          <mxGeometry x="276" y="75" width="6" height="35" as="geometry" />
        </mxCell>
        <mxCell id="_U_ca107Dku7xIuLwuv_-32" value="" style="whiteSpace=wrap;html=1;fillColor=#a20025;strokeColor=#6F0000;fontColor=#ffffff;rounded=1;" parent="6KxkqN7M90k9Lj1RuUj--1" vertex="1">
          <mxGeometry x="582.25" y="71" width="6" height="35" as="geometry" />
        </mxCell>
        <mxCell id="_U_ca107Dku7xIuLwuv_-33" value="" style="whiteSpace=wrap;html=1;fillColor=#008a00;strokeColor=#005700;fontColor=#ffffff;rounded=1;" parent="6KxkqN7M90k9Lj1RuUj--1" vertex="1">
          <mxGeometry x="601.5" y="71" width="6" height="35" as="geometry" />
        </mxCell>
        <mxCell id="_U_ca107Dku7xIuLwuv_-40" style="edgeStyle=orthogonalEdgeStyle;orthogonalLoop=1;jettySize=auto;html=1;entryX=0.75;entryY=0;entryDx=0;entryDy=0;fontSize=16;" parent="6KxkqN7M90k9Lj1RuUj--1" target="_U_ca107Dku7xIuLwuv_-36" edge="1">
          <mxGeometry relative="1" as="geometry">
            <mxPoint x="552" y="88" as="sourcePoint" />
          </mxGeometry>
        </mxCell>
        <mxCell id="_U_ca107Dku7xIuLwuv_-34" value="" style="whiteSpace=wrap;html=1;fillColor=#008a00;strokeColor=#005700;fontColor=#ffffff;rounded=1;" parent="6KxkqN7M90k9Lj1RuUj--1" vertex="1">
          <mxGeometry x="561" y="71" width="6" height="35" as="geometry" />
        </mxCell>
        <mxCell id="_U_ca107Dku7xIuLwuv_-36" value="" style="whiteSpace=wrap;html=1;fillColor=#6d8764;strokeColor=#3A5431;fontColor=#ffffff;rounded=1;" parent="6KxkqN7M90k9Lj1RuUj--1" vertex="1">
          <mxGeometry x="384" y="108" width="35" height="6" as="geometry" />
        </mxCell>
        <mxCell id="_U_ca107Dku7xIuLwuv_-74" value="&lt;b&gt;&lt;font color=&quot;#cc0000&quot; style=&quot;font-size: 14px&quot;&gt;（负样本）答案短语表征&lt;/font&gt;&lt;/b&gt;" style="text;html=1;resizable=0;autosize=1;align=left;verticalAlign=middle;points=[];fillColor=none;strokeColor=none;rounded=1;" parent="6KxkqN7M90k9Lj1RuUj--1" vertex="1">
          <mxGeometry x="53.25" y="89" width="170" height="20" as="geometry" />
        </mxCell>
        <mxCell id="_U_ca107Dku7xIuLwuv_-75" value="&lt;b&gt;&lt;font color=&quot;#990000&quot; style=&quot;font-size: 14px&quot;&gt;（负样本）平均摘要表示&lt;br&gt;向量&lt;/font&gt;&lt;/b&gt;" style="text;html=1;resizable=0;autosize=1;align=center;verticalAlign=middle;points=[];fillColor=none;strokeColor=none;rounded=1;" parent="6KxkqN7M90k9Lj1RuUj--1" vertex="1">
          <mxGeometry x="384.37" y="56" width="170" height="30" as="geometry" />
        </mxCell>
        <mxCell id="9gOhwHK5rS1fbylUewf2-0" value="" style="rounded=1;whiteSpace=wrap;html=1;sketch=0;fillColor=none;dashed=1;strokeWidth=2;" parent="6KxkqN7M90k9Lj1RuUj--1" vertex="1">
          <mxGeometry x="49.25" y="246.25" width="344.25" height="275" as="geometry" />
        </mxCell>
        <mxCell id="9gOhwHK5rS1fbylUewf2-1" value="" style="rounded=1;whiteSpace=wrap;html=1;sketch=0;fillColor=none;dashed=1;strokeWidth=2;" parent="6KxkqN7M90k9Lj1RuUj--1" vertex="1">
          <mxGeometry x="414.37" y="243.75" width="365.63" height="277.5" as="geometry" />
        </mxCell>
        <mxCell id="9gOhwHK5rS1fbylUewf2-12" value="" style="endArrow=classic;html=1;entryX=0.751;entryY=0.945;entryDx=0;entryDy=0;entryPerimeter=0;" parent="6KxkqN7M90k9Lj1RuUj--1" edge="1">
          <mxGeometry width="50" height="50" relative="1" as="geometry">
            <mxPoint x="600" y="246" as="sourcePoint" />
            <mxPoint x="599.23" y="208.46249999999998" as="targetPoint" />
          </mxGeometry>
        </mxCell>
        <mxCell id="9gOhwHK5rS1fbylUewf2-17" value="" style="endArrow=classic;html=1;" parent="6KxkqN7M90k9Lj1RuUj--1" edge="1">
          <mxGeometry width="50" height="50" relative="1" as="geometry">
            <mxPoint x="330" y="835" as="sourcePoint" />
            <mxPoint x="329" y="793" as="targetPoint" />
          </mxGeometry>
        </mxCell>
        <mxCell id="0vAuht8NElmBegkXjj2U-0" value="" style="endArrow=none;html=1;fontSize=16;" parent="6KxkqN7M90k9Lj1RuUj--1" edge="1">
          <mxGeometry width="50" height="50" relative="1" as="geometry">
            <mxPoint x="611.75" y="326" as="sourcePoint" />
            <mxPoint x="611.75" y="307" as="targetPoint" />
          </mxGeometry>
        </mxCell>
        <mxCell id="0vAuht8NElmBegkXjj2U-1" value="" style="endArrow=classic;html=1;fontSize=16;" parent="6KxkqN7M90k9Lj1RuUj--1" edge="1">
          <mxGeometry width="50" height="50" relative="1" as="geometry">
            <mxPoint x="611.75" y="307" as="sourcePoint" />
            <mxPoint x="641.75" y="297" as="targetPoint" />
          </mxGeometry>
        </mxCell>
        <mxCell id="0vAuht8NElmBegkXjj2U-3" value="" style="endArrow=classic;html=1;" parent="6KxkqN7M90k9Lj1RuUj--1" edge="1">
          <mxGeometry width="50" height="50" relative="1" as="geometry">
            <mxPoint x="234" y="246" as="sourcePoint" />
            <mxPoint x="234" y="210" as="targetPoint" />
          </mxGeometry>
        </mxCell>
        <mxCell id="0vAuht8NElmBegkXjj2U-7" value="&lt;b&gt;&lt;font color=&quot;#990000&quot; style=&quot;font-size: 14px&quot;&gt;（负样本）摘要表示向量&lt;/font&gt;&lt;/b&gt;" style="text;html=1;resizable=0;autosize=1;align=left;verticalAlign=middle;points=[];fillColor=none;strokeColor=none;rounded=1;" parent="6KxkqN7M90k9Lj1RuUj--1" vertex="1">
          <mxGeometry x="612.37" y="78.5" width="170" height="20" as="geometry" />
        </mxCell>
        <mxCell id="0vAuht8NElmBegkXjj2U-8" value="&lt;b&gt;&lt;font color=&quot;#990000&quot; style=&quot;font-size: 14px&quot;&gt;（正样本）摘要表示向量&lt;/font&gt;&lt;/b&gt;" style="text;html=1;resizable=0;autosize=1;align=left;verticalAlign=middle;points=[];fillColor=none;strokeColor=none;rounded=1;" parent="6KxkqN7M90k9Lj1RuUj--1" vertex="1">
          <mxGeometry x="612.37" y="140" width="170" height="20" as="geometry" />
        </mxCell>
        <mxCell id="9gOhwHK5rS1fbylUewf2-7" value="" style="rounded=1;whiteSpace=wrap;html=1;sketch=0;fillColor=none;dashed=1;strokeWidth=2;" parent="6KxkqN7M90k9Lj1RuUj--1" vertex="1">
          <mxGeometry x="66" y="798" width="700" height="321.5" as="geometry" />
        </mxCell>
        <mxCell id="_U_ca107Dku7xIuLwuv_-77" value="" style="rounded=1;whiteSpace=wrap;html=1;sketch=0;fillColor=none;dashed=1;strokeWidth=2;" parent="6KxkqN7M90k9Lj1RuUj--1" vertex="1">
          <mxGeometry x="48.25" y="32" width="730" height="200" as="geometry" />
        </mxCell>
      </root>
    </mxGraphModel>
  </diagram>
</mxfile>
